Ortica Linear-Regular.ufo
<glyph name="exclam" format="2">
  <advance width="291"/>
  <unicode hex="0021"/>
  <guideline x="128" y="175" angle="0"/>
  <outline>
    <contour>
      <point x="113" y="175" type="line"/>
      <point x="79" y="702" type="line"/>
      <point x="182" y="702" type="line"/>
      <point x="143" y="175" type="line"/>
    </contour>
    <component base="period" xOffset="10" identifier="DDE51382"/>
  </outline>
</glyph>
<glyph name="numbersign" format="2">
  <advance width="759.875"/>
  <unicode hex="0023"/>
  <outline>
    <contour>
      <point x="335" y="702" type="line"/>
      <point x="143" y="0" type="line"/>
      <point x="189" y="0" type="line"/>
      <point x="381" y="702" type="line"/>
    </contour>
    <contour>
      <point x="76" y="444" type="line"/>
      <point x="705" y="444" type="line"/>
      <point x="716" y="486" type="line"/>
      <point x="87" y="486" type="line"/>
    </contour>
    <contour>
      <point x="43" y="201" type="line"/>
      <point x="666" y="202" type="line"/>
      <point x="678" y="245" type="line"/>
      <point x="54" y="244" type="line"/>
    </contour>
    <contour>
      <point x="577" y="702" type="line"/>
      <point x="393" y="0" type="line"/>
      <point x="439" y="0" type="line"/>
      <point x="624" y="702" type="line"/>
    </contour>
  </outline>
</glyph>
<glyph name="dollar" format="2">
  <advance width="546"/>
  <unicode hex="0024"/>
  <outline>
    <contour>
      <point x="250" y="760" type="line"/>
      <point x="250" y="-74" type="line"/>
      <point x="293" y="-74" type="line"/>
      <point x="293" y="760" type="line"/>
    </contour>
    <contour>
      <point x="480" y="637" type="line"/>
      <point x="467" y="648"/>
      <point x="366" y="698"/>
      <point x="268" y="698" type="curve" smooth="yes"/>
      <point x="145" y="698"/>
      <point x="38" y="641"/>
      <point x="38" y="526" type="curve" smooth="yes"/>
      <point x="38" y="444"/>
      <point x="92" y="385"/>
      <point x="176" y="348" type="curve" smooth="yes"/>
      <point x="320" y="285" type="line" smooth="yes"/>
      <point x="387" y="256"/>
      <point x="415" y="218"/>
      <point x="415" y="172" type="curve" smooth="yes"/>
      <point x="415" y="105"/>
      <point x="373" y="39"/>
      <point x="277" y="37" type="curve" smooth="yes"/>
      <point x="152" y="34"/>
      <point x="81" y="120"/>
      <point x="82" y="263" type="curve"/>
      <point x="62" y="263" type="line"/>
      <point x="39" y="88" type="line"/>
      <point x="70" y="65"/>
      <point x="153" y="4"/>
      <point x="261" y="4" type="curve" smooth="yes"/>
      <point x="421" y="4"/>
      <point x="504" y="103"/>
      <point x="504" y="208" type="curve" smooth="yes"/>
      <point x="504" y="278"/>
      <point x="468" y="327"/>
      <point x="381" y="365" type="curve" smooth="yes"/>
      <point x="238" y="428" type="line" smooth="yes"/>
      <point x="171" y="458"/>
      <point x="133" y="493"/>
      <point x="133" y="560" type="curve" smooth="yes"/>
      <point x="133" y="623"/>
      <point x="181" y="667"/>
      <point x="257" y="667" type="curve" smooth="yes"/>
      <point x="373" y="667"/>
      <point x="436" y="582"/>
      <point x="434" y="464" type="curve"/>
      <point x="452" y="464" type="line"/>
    </contour>
  </outline>
</glyph>
<glyph name="percent" format="2">
  <advance width="714"/>
  <unicode hex="0025"/>
  <outline>
    <contour>
      <point x="78" y="0" type="line"/>
      <point x="137" y="0" type="line"/>
      <point x="646" y="702" type="line"/>
      <point x="588" y="702" type="line"/>
    </contour>
    <contour>
      <point x="311" y="551" type="curve" smooth="yes"/>
      <point x="311" y="474"/>
      <point x="253" y="395"/>
      <point x="173" y="395" type="curve" smooth="yes"/>
      <point x="95" y="395"/>
      <point x="35" y="476"/>
      <point x="35" y="551" type="curve" smooth="yes"/>
      <point x="35" y="625"/>
      <point x="95" y="707"/>
      <point x="173" y="707" type="curve" smooth="yes"/>
      <point x="253" y="707"/>
      <point x="311" y="623"/>
    </contour>
    <contour>
      <point x="173" y="673" type="curve" smooth="yes"/>
      <point x="126" y="673"/>
      <point x="97" y="621"/>
      <point x="97" y="551" type="curve" smooth="yes"/>
      <point x="97" y="487"/>
      <point x="126" y="429"/>
      <point x="173" y="429" type="curve" smooth="yes"/>
      <point x="222" y="429"/>
      <point x="251" y="478"/>
      <point x="251" y="551" type="curve" smooth="yes"/>
      <point x="251" y="614"/>
      <point x="222" y="673"/>
    </contour>
    <contour>
      <point x="679" y="151" type="curve" smooth="yes"/>
      <point x="679" y="75"/>
      <point x="621" y="-4"/>
      <point x="542" y="-4" type="curve" smooth="yes"/>
      <point x="463" y="-4"/>
      <point x="404" y="76"/>
      <point x="404" y="151" type="curve" smooth="yes"/>
      <point x="404" y="225"/>
      <point x="463" y="308"/>
      <point x="542" y="308" type="curve" smooth="yes"/>
      <point x="621" y="308"/>
      <point x="679" y="224"/>
    </contour>
    <contour>
      <point x="542" y="274" type="curve" smooth="yes"/>
      <point x="495" y="274"/>
      <point x="465" y="222"/>
      <point x="465" y="151" type="curve" smooth="yes"/>
      <point x="465" y="88"/>
      <point x="495" y="30"/>
      <point x="542" y="30" type="curve" smooth="yes"/>
      <point x="591" y="30"/>
      <point x="619" y="79"/>
      <point x="619" y="151" type="curve" smooth="yes"/>
      <point x="619" y="214"/>
      <point x="591" y="274"/>
    </contour>
  </outline>
</glyph>
<glyph name="ampersand" format="2">
  <advance width="725.625"/>
  <unicode hex="0026"/>
  <outline>
    <contour>
      <point x="722" y="0" type="line"/>
      <point x="722" y="19" type="line"/>
      <point x="690" y="20" type="line" smooth="yes"/>
      <point x="653" y="21"/>
      <point x="636" y="31"/>
      <point x="616" y="52" type="curve" smooth="yes"/>
      <point x="379" y="297" type="line" smooth="yes"/>
      <point x="243" y="437"/>
      <point x="197" y="488"/>
      <point x="197" y="566" type="curve" smooth="yes"/>
      <point x="197" y="625"/>
      <point x="234" y="685"/>
      <point x="318" y="685" type="curve" smooth="yes"/>
      <point x="399" y="685"/>
      <point x="457" y="629"/>
      <point x="456" y="495" type="curve"/>
      <point x="476" y="495" type="line"/>
      <point x="523" y="632" type="line"/>
      <point x="478" y="672"/>
      <point x="402" y="713"/>
      <point x="319" y="713" type="curve" smooth="yes"/>
      <point x="223" y="713"/>
      <point x="110" y="665"/>
      <point x="110" y="541" type="curve" smooth="yes"/>
      <point x="110" y="464"/>
      <point x="153" y="403"/>
      <point x="285" y="267" type="curve" smooth="yes"/>
      <point x="544" y="0" type="line"/>
    </contour>
    <contour>
      <point x="234" y="396" type="line"/>
      <point x="157" y="350"/>
      <point x="58" y="284"/>
      <point x="58" y="171" type="curve" smooth="yes"/>
      <point x="58" y="72"/>
      <point x="143" y="-6"/>
      <point x="251" y="-6" type="curve" smooth="yes"/>
      <point x="371" y="-6"/>
      <point x="440" y="83"/>
      <point x="484" y="148" type="curve" smooth="yes"/>
      <point x="583" y="291"/>
      <point x="605" y="373"/>
      <point x="667" y="373" type="curve" smooth="yes"/>
      <point x="693" y="373" type="line"/>
      <point x="693" y="397" type="line"/>
      <point x="450" y="397" type="line"/>
      <point x="450" y="373" type="line"/>
      <point x="514" y="373" type="line" smooth="yes"/>
      <point x="565" y="373"/>
      <point x="570" y="332"/>
      <point x="464" y="184" type="curve" smooth="yes"/>
      <point x="420" y="124"/>
      <point x="370" y="59"/>
      <point x="288" y="59" type="curve" smooth="yes"/>
      <point x="216" y="59"/>
      <point x="149" y="113"/>
      <point x="149" y="205" type="curve" smooth="yes"/>
      <point x="149" y="283"/>
      <point x="194" y="338"/>
      <point x="257" y="378" type="curve"/>
    </contour>
  </outline>
</glyph>
<glyph name="quotesingle" format="2">
  <advance width="161.125"/>
  <unicode hex="0027"/>
  <outline>
    <contour>
      <point x="68" y="536" type="line"/>
      <point x="42" y="728" type="line" smooth="yes"/>
      <point x="35" y="785"/>
      <point x="126" y="785"/>
      <point x="118" y="728" type="curve" smooth="yes"/>
      <point x="93" y="536" type="line"/>
    </contour>
  </outline>
</glyph>
<glyph name="parenleft" format="2">
  <advance width="370.875"/>
  <unicode hex="0028"/>
  <outline>
    <contour>
      <point x="317" y="715" type="line"/>
      <point x="198" y="575"/>
      <point x="84" y="432"/>
      <point x="84" y="251" type="curve" smooth="yes"/>
      <point x="84" y="70"/>
      <point x="198" y="-83"/>
      <point x="317" y="-213" type="curve"/>
      <point x="333" y="-202" type="line"/>
      <point x="225" y="-62"/>
      <point x="183" y="110"/>
      <point x="183" y="251" type="curve" smooth="yes"/>
      <point x="183" y="392"/>
      <point x="225" y="553"/>
      <point x="333" y="704" type="curve"/>
    </contour>
  </outline>
</glyph>
<glyph name="asterisk" format="2">
  <advance width="402.5"/>
  <unicode hex="002A"/>
  <outline>
    <contour>
      <point x="226" y="524" type="line"/>
      <point x="324" y="415" type="line"/>
      <point x="251" y="372" type="line"/>
      <point x="204" y="515" type="line"/>
      <point x="198" y="515" type="line"/>
      <point x="149" y="372" type="line"/>
      <point x="79" y="414" type="line"/>
      <point x="176" y="524" type="line"/>
      <point x="174" y="529" type="line"/>
      <point x="34" y="505" type="line"/>
      <point x="34" y="582" type="line"/>
      <point x="174" y="554" type="line"/>
      <point x="176" y="559" type="line"/>
      <point x="79" y="670" type="line"/>
      <point x="149" y="712" type="line"/>
      <point x="198" y="569" type="line"/>
      <point x="204" y="569" type="line"/>
      <point x="251" y="712" type="line"/>
      <point x="324" y="669" type="line"/>
      <point x="226" y="559" type="line"/>
      <point x="228" y="554" type="line"/>
      <point x="369" y="582" type="line"/>
      <point x="369" y="505" type="line"/>
      <point x="228" y="529" type="line"/>
    </contour>
  </outline>
</glyph>
<glyph name="plus" format="2">
  <advance width="585"/>
  <unicode hex="002B"/>
  <outline>
    <contour>
      <point x="531" y="344" type="line"/>
      <point x="54" y="344" type="line"/>
      <point x="54" y="296" type="line"/>
      <point x="531" y="296" type="line"/>
    </contour>
    <contour>
      <point x="319" y="79" type="line"/>
      <point x="319" y="561" type="line"/>
      <point x="267" y="561" type="line"/>
      <point x="267" y="79" type="line"/>
    </contour>
  </outline>
</glyph>
<glyph name="comma" format="2">
  <advance width="235"/>
  <unicode hex="002C"/>
  <outline>
    <contour>
      <point x="60" y="-149" type="line"/>
      <point x="119" y="-105"/>
      <point x="142" y="-44"/>
      <point x="145" y="3" type="curve"/>
      <point x="136" y="-6"/>
      <point x="124" y="-10"/>
      <point x="110" y="-10" type="curve" smooth="yes"/>
      <point x="81" y="-10"/>
      <point x="55" y="13"/>
      <point x="55" y="49" type="curve" smooth="yes"/>
      <point x="55" y="79"/>
      <point x="78" y="107"/>
      <point x="116" y="107" type="curve" smooth="yes"/>
      <point x="154" y="107"/>
      <point x="180" y="76"/>
      <point x="180" y="21" type="curve" smooth="yes"/>
      <point x="180" y="-44"/>
      <point x="140" y="-118"/>
      <point x="71" y="-162" type="curve"/>
    </contour>
  </outline>
</glyph>
<glyph name="hyphen" format="2">
  <advance width="433.625"/>
  <unicode hex="002D"/>
  <outline>
    <contour>
      <point x="50" y="277" type="line"/>
      <point x="50" y="223" type="line"/>
      <point x="384" y="223" type="line"/>
      <point x="384" y="277" type="line"/>
    </contour>
  </outline>
</glyph>
<glyph name="period" format="2">
  <advance width="241"/>
  <unicode hex="002E"/>
  <outline>
    <contour>
      <point x="121" y="-11" type="curve" smooth="yes"/>
      <point x="88" y="-11"/>
      <point x="60" y="14"/>
      <point x="60" y="49" type="curve" smooth="yes"/>
      <point x="60" y="83"/>
      <point x="88" y="108"/>
      <point x="121" y="108" type="curve" smooth="yes"/>
      <point x="152" y="108"/>
      <point x="181" y="83"/>
      <point x="181" y="49" type="curve" smooth="yes"/>
      <point x="181" y="14"/>
      <point x="152" y="-11"/>
    </contour>
  </outline>
</glyph>
<glyph name="slash" format="2">
  <advance width="407"/>
  <unicode hex="002F"/>
  <outline>
    <contour>
      <point x="25" y="-146" type="line"/>
      <point x="82" y="-146" type="line"/>
      <point x="432" y="759" type="line"/>
      <point x="376" y="760" type="line"/>
    </contour>
  </outline>
</glyph>
<glyph name="zero" format="2">
  <advance width="627.125"/>
  <unicode hex="0030"/>
  <outline>
    <contour>
      <point x="313" y="716" type="curve" smooth="yes"/>
      <point x="464" y="716"/>
      <point x="578" y="573"/>
      <point x="578" y="353" type="curve" smooth="yes"/>
      <point x="578" y="132"/>
      <point x="464" y="-11"/>
      <point x="313" y="-11" type="curve" smooth="yes"/>
      <point x="161" y="-11"/>
      <point x="48" y="132"/>
      <point x="48" y="353" type="curve" smooth="yes"/>
      <point x="48" y="573"/>
      <point x="161" y="716"/>
    </contour>
    <contour>
      <point x="313" y="24" type="curve" smooth="yes"/>
      <point x="427" y="24"/>
      <point x="471" y="186"/>
      <point x="471" y="353" type="curve" smooth="yes"/>
      <point x="471" y="519"/>
      <point x="427" y="681"/>
      <point x="313" y="681" type="curve" smooth="yes"/>
      <point x="198" y="681"/>
      <point x="154" y="519"/>
      <point x="154" y="353" type="curve" smooth="yes"/>
      <point x="154" y="186"/>
      <point x="198" y="24"/>
    </contour>
  </outline>
</glyph>
<glyph name="one" format="2">
  <advance width="465.125"/>
  <unicode hex="0031"/>
  <outline>
    <contour>
      <point x="52" y="617" type="line"/>
      <point x="52" y="640" type="line"/>
      <point x="278" y="715" type="line"/>
      <point x="287" y="715" type="line"/>
      <point x="287" y="69" type="line" smooth="yes"/>
      <point x="287" y="21"/>
      <point x="333" y="21"/>
      <point x="423" y="19" type="curve"/>
      <point x="423" y="0" type="line"/>
      <point x="53" y="0" type="line"/>
      <point x="53" y="19" type="line"/>
      <point x="131" y="21"/>
      <point x="190" y="21"/>
      <point x="190" y="69" type="curve" smooth="yes"/>
      <point x="190" y="660" type="line"/>
      <point x="53" y="616" type="line"/>
    </contour>
  </outline>
</glyph>
<glyph name="two" format="2">
  <advance width="605.625"/>
  <unicode hex="0032"/>
  <outline>
    <contour>
      <point x="76" y="518" type="curve"/>
      <point x="56" y="523" type="line"/>
      <point x="92" y="649"/>
      <point x="181" y="716"/>
      <point x="296" y="716" type="curve" smooth="yes"/>
      <point x="432" y="716"/>
      <point x="515" y="624"/>
      <point x="515" y="511" type="curve" smooth="yes"/>
      <point x="515" y="410"/>
      <point x="443" y="330"/>
      <point x="322" y="231" type="curve" smooth="yes"/>
      <point x="129" y="70" type="line"/>
      <point x="408" y="70" type="line" smooth="yes"/>
      <point x="486" y="70"/>
      <point x="497" y="103"/>
      <point x="522" y="185" type="curve"/>
      <point x="540" y="185" type="line"/>
      <point x="504" y="0" type="line"/>
      <point x="46" y="0" type="line"/>
      <point x="46" y="36" type="line"/>
      <point x="258" y="242" type="line" smooth="yes"/>
      <point x="354" y="337"/>
      <point x="406" y="408"/>
      <point x="406" y="496" type="curve" smooth="yes"/>
      <point x="406" y="595"/>
      <point x="345" y="653"/>
      <point x="260" y="653" type="curve" smooth="yes"/>
      <point x="199" y="653"/>
      <point x="123" y="622"/>
    </contour>
  </outline>
</glyph>
<glyph name="three" format="2">
  <advance width="532.5"/>
  <unicode hex="0033"/>
  <outline>
    <contour>
      <point x="76" y="585" type="curve"/>
      <point x="59" y="595" type="line"/>
      <point x="92" y="653"/>
      <point x="162" y="716"/>
      <point x="265" y="716" type="curve" smooth="yes"/>
      <point x="368" y="716"/>
      <point x="437" y="657"/>
      <point x="437" y="571" type="curve" smooth="yes"/>
      <point x="437" y="446"/>
      <point x="287" y="405"/>
      <point x="194" y="383" type="curve"/>
      <point x="191" y="392" type="line"/>
      <point x="350" y="410"/>
      <point x="488" y="337"/>
      <point x="488" y="207" type="curve" smooth="yes"/>
      <point x="488" y="92"/>
      <point x="380" y="-11"/>
      <point x="239" y="-11" type="curve" smooth="yes"/>
      <point x="155" y="-11"/>
      <point x="85" y="22"/>
      <point x="44" y="52" type="curve"/>
      <point x="68" y="221" type="line"/>
      <point x="85" y="221" type="line"/>
      <point x="88" y="91"/>
      <point x="132" y="21"/>
      <point x="235" y="21" type="curve" smooth="yes"/>
      <point x="326" y="21"/>
      <point x="383" y="96"/>
      <point x="383" y="181" type="curve" smooth="yes"/>
      <point x="383" y="291"/>
      <point x="291" y="386"/>
      <point x="123" y="361" type="curve"/>
      <point x="121" y="382" type="line"/>
      <point x="235" y="418"/>
      <point x="339" y="458"/>
      <point x="339" y="559" type="curve" smooth="yes"/>
      <point x="339" y="610"/>
      <point x="302" y="665"/>
      <point x="226" y="665" type="curve" smooth="yes"/>
      <point x="173" y="665"/>
      <point x="120" y="639"/>
    </contour>
  </outline>
</glyph>
<glyph name="four" format="2">
  <advance width="626.125"/>
  <unicode hex="0034"/>
  <outline>
    <contour>
      <point x="28" y="190" type="line"/>
      <point x="28" y="245" type="line"/>
      <point x="417" y="702" type="line"/>
      <point x="458" y="702" type="line"/>
      <point x="458" y="252" type="line"/>
      <point x="568" y="252" type="line"/>
      <point x="568" y="190" type="line"/>
      <point x="458" y="190" type="line"/>
      <point x="458" y="70" type="line" smooth="yes"/>
      <point x="458" y="22"/>
      <point x="490" y="21"/>
      <point x="565" y="19" type="curve"/>
      <point x="565" y="0" type="line"/>
      <point x="261" y="0" type="line"/>
      <point x="261" y="19" type="line"/>
      <point x="326" y="21"/>
      <point x="368" y="22"/>
      <point x="368" y="70" type="curve" smooth="yes"/>
      <point x="368" y="190" type="line"/>
    </contour>
    <contour>
      <point x="77" y="252" type="line"/>
      <point x="368" y="252" type="line"/>
      <point x="368" y="590" type="line"/>
    </contour>
  </outline>
</glyph>
<glyph name="five" format="2">
  <advance width="599.125"/>
  <unicode hex="0035"/>
  <outline>
    <contour>
      <point x="80" y="221" type="line"/>
      <point x="51" y="62" type="line"/>
      <point x="112" y="24"/>
      <point x="186" y="-11"/>
      <point x="266" y="-11" type="curve" smooth="yes"/>
      <point x="451" y="-11"/>
      <point x="542" y="126"/>
      <point x="542" y="246" type="curve" smooth="yes"/>
      <point x="542" y="372"/>
      <point x="453" y="457"/>
      <point x="324" y="457" type="curve" smooth="yes"/>
      <point x="243" y="457"/>
      <point x="160" y="413"/>
      <point x="100" y="353" type="curve"/>
      <point x="118" y="346" type="line"/>
      <point x="160" y="623" type="line"/>
      <point x="491" y="623" type="line"/>
      <point x="491" y="702" type="line"/>
      <point x="135" y="702" type="line"/>
      <point x="80" y="331" type="line"/>
      <point x="100" y="321" type="line"/>
      <point x="164" y="369"/>
      <point x="220" y="400"/>
      <point x="281" y="400" type="curve" smooth="yes"/>
      <point x="371" y="400"/>
      <point x="440" y="339"/>
      <point x="440" y="223" type="curve" smooth="yes"/>
      <point x="440" y="132"/>
      <point x="388" y="17"/>
      <point x="267" y="17" type="curve" smooth="yes"/>
      <point x="195" y="17"/>
      <point x="103" y="60"/>
      <point x="103" y="218" type="curve"/>
    </contour>
  </outline>
</glyph>
<glyph name="six" format="2">
  <advance width="587.625"/>
  <unicode hex="0036"/>
  <outline>
    <contour>
      <point x="469" y="686" type="curve"/>
      <point x="464" y="715" type="line"/>
      <point x="215" y="683"/>
      <point x="36" y="515"/>
      <point x="36" y="295" type="curve" smooth="yes"/>
      <point x="36" y="115"/>
      <point x="142" y="-11"/>
      <point x="291" y="-11" type="curve" smooth="yes"/>
      <point x="428" y="-11"/>
      <point x="537" y="85"/>
      <point x="537" y="232" type="curve" smooth="yes"/>
      <point x="537" y="379"/>
      <point x="424" y="458"/>
      <point x="317" y="456" type="curve" smooth="yes"/>
      <point x="248" y="455"/>
      <point x="145" y="412"/>
      <point x="112" y="312" type="curve"/>
      <point x="115" y="273" type="line"/>
      <point x="152" y="365"/>
      <point x="225" y="409"/>
      <point x="285" y="409" type="curve" smooth="yes"/>
      <point x="390" y="408"/>
      <point x="439" y="306"/>
      <point x="439" y="211" type="curve" smooth="yes"/>
      <point x="439" y="112"/>
      <point x="398" y="19"/>
      <point x="299" y="21" type="curve" smooth="yes"/>
      <point x="195" y="24"/>
      <point x="139" y="153"/>
      <point x="139" y="302" type="curve" smooth="yes"/>
      <point x="139" y="501"/>
      <point x="270" y="650"/>
    </contour>
  </outline>
</glyph>
<glyph name="seven" format="2">
  <advance width="539.375"/>
  <unicode hex="0037"/>
  <outline>
    <contour>
      <point x="28" y="702" type="line"/>
      <point x="28" y="625" type="line"/>
      <point x="438" y="626" type="line"/>
      <point x="451" y="661" type="line"/>
      <point x="211" y="388"/>
      <point x="170" y="183"/>
      <point x="169" y="0" type="curve"/>
      <point x="260" y="0" type="line"/>
      <point x="262" y="209"/>
      <point x="295" y="421"/>
      <point x="504" y="685" type="curve"/>
      <point x="495" y="702" type="line"/>
    </contour>
  </outline>
</glyph>
<glyph name="eight" format="2">
  <advance width="613.625"/>
  <unicode hex="0038"/>
  <outline>
    <contour>
      <point x="507" y="648"/>
      <point x="421" y="716"/>
      <point x="306" y="716" type="curve" smooth="yes"/>
      <point x="183" y="716"/>
      <point x="94" y="649"/>
      <point x="94" y="553" type="curve" smooth="yes"/>
      <point x="94" y="436"/>
      <point x="232" y="375"/>
      <point x="305" y="333" type="curve" smooth="yes"/>
      <point x="368" y="297"/>
      <point x="450" y="259"/>
      <point x="450" y="167" type="curve" smooth="yes"/>
      <point x="450" y="111"/>
      <point x="418" y="25"/>
      <point x="314" y="25" type="curve" smooth="yes"/>
      <point x="225" y="25"/>
      <point x="165" y="95"/>
      <point x="165" y="191" type="curve" smooth="yes"/>
      <point x="165" y="266"/>
      <point x="200" y="324"/>
      <point x="286" y="372" type="curve"/>
      <point x="264" y="389" type="line"/>
      <point x="195" y="359"/>
      <point x="72" y="310"/>
      <point x="72" y="182" type="curve" smooth="yes"/>
      <point x="72" y="77"/>
      <point x="161" y="-11"/>
      <point x="304" y="-11" type="curve" smooth="yes"/>
      <point x="476" y="-11"/>
      <point x="543" y="99"/>
      <point x="543" y="191" type="curve" smooth="yes"/>
      <point x="543" y="293"/>
      <point x="449" y="351"/>
      <point x="368" y="395" type="curve" smooth="yes"/>
      <point x="283" y="441"/>
      <point x="184" y="490"/>
      <point x="184" y="580" type="curve" smooth="yes"/>
      <point x="184" y="644"/>
      <point x="235" y="688"/>
      <point x="297" y="688" type="curve" smooth="yes"/>
      <point x="374" y="688"/>
      <point x="418" y="628"/>
      <point x="418" y="563" type="curve" smooth="yes"/>
      <point x="418" y="474"/>
      <point x="362" y="424"/>
      <point x="311" y="388" type="curve"/>
      <point x="325" y="374" type="line"/>
      <point x="377" y="401"/>
      <point x="507" y="455"/>
      <point x="507" y="561" type="curve" smooth="yes"/>
    </contour>
  </outline>
</glyph>
<glyph name="nine" format="2">
  <advance width="585.25"/>
  <unicode hex="0039"/>
  <outline>
    <contour>
      <point x="114" y="16" type="curve"/>
      <point x="119" y="-11" type="line"/>
      <point x="367" y="22"/>
      <point x="539" y="190"/>
      <point x="539" y="415" type="curve" smooth="yes"/>
      <point x="539" y="586"/>
      <point x="437" y="715"/>
      <point x="284" y="715" type="curve" smooth="yes"/>
      <point x="147" y="715"/>
      <point x="38" y="623"/>
      <point x="38" y="474" type="curve" smooth="yes"/>
      <point x="38" y="324"/>
      <point x="151" y="245"/>
      <point x="260" y="247" type="curve" smooth="yes"/>
      <point x="332" y="249"/>
      <point x="431" y="292"/>
      <point x="464" y="393" type="curve"/>
      <point x="461" y="432" type="line"/>
      <point x="424" y="336"/>
      <point x="354" y="296"/>
      <point x="295" y="296" type="curve" smooth="yes"/>
      <point x="187" y="296"/>
      <point x="137" y="402"/>
      <point x="137" y="498" type="curve" smooth="yes"/>
      <point x="137" y="599"/>
      <point x="185" y="684"/>
      <point x="276" y="683" type="curve" smooth="yes"/>
      <point x="379" y="681"/>
      <point x="437" y="570"/>
      <point x="437" y="419" type="curve" smooth="yes"/>
      <point x="437" y="206"/>
      <point x="312" y="53"/>
    </contour>
  </outline>
</glyph>
<glyph name="greater" format="2">
  <advance width="585"/>
  <unicode hex="003E"/>
  <outline>
    <contour>
      <point x="538" y="329" type="line"/>
      <point x="69" y="548" type="line"/>
      <point x="69" y="494" type="line"/>
      <point x="440" y="321" type="line"/>
      <point x="69" y="148" type="line"/>
      <point x="69" y="93" type="line"/>
      <point x="538" y="313" type="line"/>
    </contour>
  </outline>
</glyph>
<glyph name="question" format="2">
  <advance width="495"/>
  <unicode hex="003F"/>
  <outline>
    <contour>
      <point x="89" y="494" type="line"/>
      <point x="48" y="655" type="line"/>
      <point x="102" y="695"/>
      <point x="159" y="725"/>
      <point x="241" y="725" type="curve" smooth="yes"/>
      <point x="330" y="725"/>
      <point x="445" y="681"/>
      <point x="445" y="558" type="curve" smooth="yes"/>
      <point x="445" y="435"/>
      <point x="336" y="391"/>
      <point x="275" y="335" type="curve" smooth="yes"/>
      <point x="231" y="297"/>
      <point x="218" y="265"/>
      <point x="218" y="221" type="curve" smooth="yes"/>
      <point x="218" y="201"/>
      <point x="219" y="192"/>
      <point x="222" y="175" type="curve"/>
      <point x="195" y="175" type="line"/>
      <point x="188" y="197"/>
      <point x="184" y="212"/>
      <point x="184" y="243" type="curve" smooth="yes"/>
      <point x="184" y="311"/>
      <point x="214" y="353"/>
      <point x="260" y="399" type="curve" smooth="yes"/>
      <point x="311" y="452"/>
      <point x="347" y="493"/>
      <point x="347" y="570" type="curve" smooth="yes"/>
      <point x="347" y="653"/>
      <point x="304" y="698"/>
      <point x="235" y="698" type="curve" smooth="yes"/>
      <point x="148" y="698"/>
      <point x="104" y="630"/>
      <point x="107" y="494" type="curve"/>
    </contour>
    <component base="period" xOffset="97" identifier="7C45C655"/>
  </outline>
</glyph>
<glyph name="at" format="2">
  <advance width="783.125"/>
  <unicode hex="0040"/>
  <outline>
    <contour>
      <point x="463" y="226" type="line"/>
      <point x="412" y="157"/>
      <point x="379" y="130"/>
      <point x="359" y="130" type="curve" smooth="yes"/>
      <point x="323" y="130"/>
      <point x="296" y="171"/>
      <point x="296" y="236" type="curve" smooth="yes"/>
      <point x="296" y="330"/>
      <point x="343" y="390"/>
      <point x="400" y="390" type="curve" smooth="yes"/>
      <point x="427" y="390"/>
      <point x="453" y="378"/>
      <point x="475" y="354" type="curve"/>
      <point x="443" y="147" type="line" smooth="yes"/>
      <point x="435" y="101"/>
      <point x="452" y="64"/>
      <point x="516" y="64" type="curve" smooth="yes"/>
      <point x="593" y="64"/>
      <point x="733" y="117"/>
      <point x="733" y="295" type="curve" smooth="yes"/>
      <point x="733" y="461"/>
      <point x="591" y="580"/>
      <point x="416" y="579" type="curve" smooth="yes"/>
      <point x="237" y="579"/>
      <point x="51" y="458"/>
      <point x="51" y="240" type="curve" smooth="yes"/>
      <point x="51" y="21"/>
      <point x="227" y="-81"/>
      <point x="414" y="-81" type="curve" smooth="yes"/>
      <point x="500" y="-81"/>
      <point x="559" y="-59"/>
      <point x="609" y="-29" type="curve"/>
      <point x="595" y="-2" type="line"/>
      <point x="548" y="-24"/>
      <point x="501" y="-37"/>
      <point x="431" y="-37" type="curve" smooth="yes"/>
      <point x="256" y="-37"/>
      <point x="126" y="68"/>
      <point x="126" y="252" type="curve" smooth="yes"/>
      <point x="126" y="394"/>
      <point x="217" y="538"/>
      <point x="400" y="538" type="curve" smooth="yes"/>
      <point x="556" y="538"/>
      <point x="665" y="428"/>
      <point x="665" y="283" type="curve" smooth="yes"/>
      <point x="665" y="153"/>
      <point x="583" y="102"/>
      <point x="532" y="102" type="curve" smooth="yes"/>
      <point x="503" y="102"/>
      <point x="499" y="122"/>
      <point x="503" y="151" type="curve" smooth="yes"/>
      <point x="545" y="428" type="line"/>
      <point x="525" y="428" type="line"/>
      <point x="502" y="404" type="line"/>
      <point x="486" y="414"/>
      <point x="454" y="426"/>
      <point x="419" y="426" type="curve" smooth="yes"/>
      <point x="325" y="426"/>
      <point x="226" y="330"/>
      <point x="226" y="213" type="curve" smooth="yes"/>
      <point x="226" y="133"/>
      <point x="279" y="74"/>
      <point x="337" y="74" type="curve" smooth="yes"/>
      <point x="375" y="74"/>
      <point x="431" y="141"/>
      <point x="461" y="183" type="curve"/>
    </contour>
  </outline>
</glyph>
<glyph name="A" format="2">
  <advance width="739.375"/>
  <unicode hex="0041"/>
  <anchor x="365" y="0" name="bottom"/>
  <anchor x="656" y="2" name="ogonek"/>
  <anchor x="346" y="716" name="top"/>
  <outline>
    <contour>
      <point x="180" y="309" type="line"/>
      <point x="180" y="275" type="line"/>
      <point x="494" y="275" type="line"/>
      <point x="494" y="309" type="line"/>
    </contour>
    <contour>
      <point x="320" y="633" type="curve" smooth="yes"/>
      <point x="554" y="70" type="line" smooth="yes"/>
      <point x="573" y="24"/>
      <point x="557" y="19"/>
      <point x="452" y="19" type="curve"/>
      <point x="452" y="0" type="line"/>
      <point x="779" y="0" type="line"/>
      <point x="779" y="19" type="line"/>
      <point x="731" y="21"/>
      <point x="685" y="20"/>
      <point x="668" y="59" type="curve" smooth="yes"/>
      <point x="399" y="702" type="line"/>
      <point x="183" y="702" type="line"/>
      <point x="183" y="683" type="line"/>
      <point x="290" y="683"/>
      <point x="300" y="681"/>
    </contour>
    <contour>
      <point x="321" y="652" type="line"/>
      <point x="77" y="84" type="line" smooth="yes"/>
      <point x="55" y="33"/>
      <point x="17" y="21"/>
      <point x="-48" y="19" type="curve"/>
      <point x="-48" y="0" type="line"/>
      <point x="207" y="0" type="line"/>
      <point x="207" y="19" type="line"/>
      <point x="141" y="21"/>
      <point x="94" y="17"/>
      <point x="113" y="63" type="curve" smooth="yes"/>
      <point x="356" y="630" type="line"/>
    </contour>
  </outline>
</glyph>
<glyph name="B" format="2">
  <advance width="658.625"/>
  <unicode hex="0042"/>
  <outline>
    <contour>
      <point x="23" y="0" type="line"/>
      <point x="377" y="0" type="line" smooth="yes"/>
      <point x="535" y="0"/>
      <point x="611" y="90"/>
      <point x="611" y="186" type="curve" smooth="yes"/>
      <point x="611" y="312"/>
      <point x="503" y="367"/>
      <point x="409" y="381" type="curve"/>
      <point x="481" y="394"/>
      <point x="574" y="439"/>
      <point x="574" y="543" type="curve" smooth="yes"/>
      <point x="574" y="658"/>
      <point x="467" y="702"/>
      <point x="360" y="702" type="curve" smooth="yes"/>
      <point x="23" y="702" type="line"/>
      <point x="23" y="683" type="line"/>
      <point x="98" y="680"/>
      <point x="127" y="686"/>
      <point x="127" y="643" type="curve" smooth="yes"/>
      <point x="127" y="60" type="line" smooth="yes"/>
      <point x="127" y="17"/>
      <point x="98" y="22"/>
      <point x="23" y="19" type="curve"/>
    </contour>
    <contour>
      <point x="230" y="27" type="line"/>
      <point x="230" y="364" type="line"/>
      <point x="319" y="364" type="line" smooth="yes"/>
      <point x="456" y="364"/>
      <point x="505" y="266"/>
      <point x="505" y="190" type="curve" smooth="yes"/>
      <point x="505" y="113"/>
      <point x="458" y="27"/>
      <point x="349" y="27" type="curve" smooth="yes"/>
    </contour>
    <contour>
      <point x="230" y="392" type="line"/>
      <point x="230" y="676" type="line"/>
      <point x="302" y="676" type="line" smooth="yes"/>
      <point x="426" y="676"/>
      <point x="476" y="613"/>
      <point x="476" y="529" type="curve" smooth="yes"/>
      <point x="476" y="430"/>
      <point x="399" y="392"/>
      <point x="321" y="392" type="curve" smooth="yes"/>
    </contour>
  </outline>
</glyph>
<glyph name="C" format="2">
  <advance width="714.75"/>
  <unicode hex="0043"/>
  <anchor x="377" y="0" name="bottom"/>
  <anchor x="373" y="716" name="top"/>
  <outline>
    <contour>
      <point x="646" y="650" type="line"/>
      <point x="572" y="690"/>
      <point x="502" y="716"/>
      <point x="406" y="716" type="curve" smooth="yes"/>
      <point x="167" y="716"/>
      <point x="47" y="544"/>
      <point x="47" y="344" type="curve" smooth="yes"/>
      <point x="47" y="156"/>
      <point x="174" y="-11"/>
      <point x="382" y="-11" type="curve" smooth="yes"/>
      <point x="564" y="-11"/>
      <point x="648" y="129"/>
      <point x="672" y="244" type="curve"/>
      <point x="647" y="244" type="line"/>
      <point x="613" y="142"/>
      <point x="550" y="55"/>
      <point x="427" y="55" type="curve" smooth="yes"/>
      <point x="269" y="55"/>
      <point x="157" y="192"/>
      <point x="157" y="392" type="curve" smooth="yes"/>
      <point x="157" y="535"/>
      <point x="223" y="687"/>
      <point x="398" y="687" type="curve" smooth="yes"/>
      <point x="532" y="687"/>
      <point x="597" y="586"/>
      <point x="623" y="470" type="curve"/>
      <point x="644" y="470" type="line"/>
    </contour>
  </outline>
</glyph>
<glyph name="D" format="2">
  <advance width="742.625"/>
  <unicode hex="0044"/>
  <anchor x="372" y="0" name="bottom"/>
  <anchor x="372" y="351" name="center"/>
  <anchor x="328" y="716" name="top"/>
  <outline>
    <contour>
      <point x="23" y="0" type="line"/>
      <point x="279" y="0" type="line" smooth="yes"/>
      <point x="557" y="0"/>
      <point x="696" y="160"/>
      <point x="696" y="373" type="curve" smooth="yes"/>
      <point x="696" y="584"/>
      <point x="526" y="703"/>
      <point x="328" y="703" type="curve" smooth="yes"/>
      <point x="23" y="702" type="line"/>
      <point x="23" y="683" type="line"/>
      <point x="98" y="680"/>
      <point x="125" y="685"/>
      <point x="125" y="642" type="curve" smooth="yes"/>
      <point x="125" y="60" type="line" smooth="yes"/>
      <point x="125" y="17"/>
      <point x="98" y="22"/>
      <point x="23" y="19" type="curve"/>
    </contour>
    <contour>
      <point x="228" y="36" type="line"/>
      <point x="228" y="671" type="line"/>
      <point x="308" y="671" type="line" smooth="yes"/>
      <point x="464" y="671"/>
      <point x="584" y="556"/>
      <point x="584" y="360" type="curve" smooth="yes"/>
      <point x="584" y="192"/>
      <point x="496" y="36"/>
      <point x="314" y="36" type="curve" smooth="yes"/>
    </contour>
  </outline>
</glyph>
<glyph name="E" format="2">
  <advance width="689.5"/>
  <unicode hex="0045"/>
  <anchor x="339" y="0" name="bottom"/>
  <anchor x="528" y="0" name="ogonek"/>
  <anchor x="339" y="710" name="top"/>
  <anchor x="18" y="702" name="topleft"/>
  <outline>
    <contour>
      <point x="23" y="0" type="line"/>
      <point x="605" y="0" type="line"/>
      <point x="649" y="225" type="line"/>
      <point x="628" y="225" type="line"/>
      <point x="604" y="125"/>
      <point x="577" y="32"/>
      <point x="458" y="32" type="curve" smooth="yes"/>
      <point x="228" y="32" type="line"/>
      <point x="228" y="341" type="line"/>
      <point x="429" y="341" type="line" smooth="yes"/>
      <point x="472" y="341"/>
      <point x="509" y="309"/>
      <point x="511" y="227" type="curve"/>
      <point x="531" y="227" type="line"/>
      <point x="531" y="485" type="line"/>
      <point x="511" y="485" type="line"/>
      <point x="509" y="401"/>
      <point x="472" y="373"/>
      <point x="429" y="373" type="curve" smooth="yes"/>
      <point x="228" y="373" type="line"/>
      <point x="228" y="671" type="line"/>
      <point x="437" y="671" type="line" smooth="yes"/>
      <point x="517" y="671"/>
      <point x="577" y="635"/>
      <point x="601" y="476" type="curve"/>
      <point x="623" y="476" type="line"/>
      <point x="592" y="702" type="line"/>
      <point x="23" y="702" type="line"/>
      <point x="23" y="683" type="line"/>
      <point x="98" y="680"/>
      <point x="125" y="685"/>
      <point x="125" y="642" type="curve" smooth="yes"/>
      <point x="125" y="60" type="line" smooth="yes"/>
      <point x="125" y="17"/>
      <point x="98" y="22"/>
      <point x="23" y="19" type="curve"/>
    </contour>
  </outline>
</glyph>
<glyph name="F" format="2">
  <advance width="654.875"/>
  <unicode hex="0046"/>
  <outline>
    <contour>
      <point x="125" y="67" type="curve" smooth="yes"/>
      <point x="125" y="642" type="line" smooth="yes"/>
      <point x="125" y="685"/>
      <point x="98" y="680"/>
      <point x="23" y="683" type="curve"/>
      <point x="23" y="702" type="line"/>
      <point x="593" y="702" type="line"/>
      <point x="624" y="470" type="line"/>
      <point x="602" y="470" type="line"/>
      <point x="579" y="638"/>
      <point x="517" y="671"/>
      <point x="437" y="671" type="curve" smooth="yes"/>
      <point x="229" y="671" type="line"/>
      <point x="229" y="363" type="line"/>
      <point x="429" y="363" type="line" smooth="yes"/>
      <point x="471" y="363"/>
      <point x="507" y="391"/>
      <point x="509" y="472" type="curve"/>
      <point x="529" y="472" type="line"/>
      <point x="529" y="220" type="line"/>
      <point x="509" y="220" type="line"/>
      <point x="507" y="299"/>
      <point x="471" y="331"/>
      <point x="429" y="331" type="curve" smooth="yes"/>
      <point x="229" y="331" type="line"/>
      <point x="229" y="67" type="line" smooth="yes"/>
      <point x="229" y="17"/>
      <point x="262" y="22"/>
      <point x="363" y="19" type="curve"/>
      <point x="363" y="0" type="line"/>
      <point x="23" y="0" type="line"/>
      <point x="23" y="19" type="line"/>
      <point x="98" y="22"/>
      <point x="125" y="17"/>
    </contour>
  </outline>
</glyph>
<glyph name="G" format="2">
  <advance width="753.25"/>
  <unicode hex="0047"/>
  <anchor x="386" y="0" name="bottom"/>
  <anchor x="402" y="710" name="top"/>
  <outline>
    <contour>
      <point x="374" y="-11" type="curve" smooth="yes"/>
      <point x="477" y="-11"/>
      <point x="549" y="41"/>
      <point x="592" y="114" type="curve"/>
      <point x="646" y="0" type="line"/>
      <point x="664" y="0" type="line"/>
      <point x="664" y="242" type="line" smooth="yes"/>
      <point x="664" y="284"/>
      <point x="665" y="287"/>
      <point x="726" y="287" type="curve"/>
      <point x="726" y="306" type="line"/>
      <point x="427" y="306" type="line"/>
      <point x="427" y="287" type="line"/>
      <point x="574" y="276" type="line"/>
      <point x="574" y="156" type="line"/>
      <point x="555" y="106"/>
      <point x="503" y="39"/>
      <point x="409" y="39" type="curve" smooth="yes"/>
      <point x="286" y="39"/>
      <point x="158" y="166"/>
      <point x="158" y="379" type="curve" smooth="yes"/>
      <point x="158" y="552"/>
      <point x="241" y="686"/>
      <point x="399" y="686" type="curve" smooth="yes"/>
      <point x="539" y="686"/>
      <point x="599" y="598"/>
      <point x="632" y="467" type="curve"/>
      <point x="652" y="467" type="line"/>
      <point x="655" y="647" type="line"/>
      <point x="598" y="678"/>
      <point x="515" y="715"/>
      <point x="416" y="715" type="curve" smooth="yes"/>
      <point x="169" y="715"/>
      <point x="47" y="537"/>
      <point x="47" y="347" type="curve" smooth="yes"/>
      <point x="47" y="130"/>
      <point x="203" y="-11"/>
    </contour>
  </outline>
</glyph>
<glyph name="H" format="2">
  <advance width="833"/>
  <unicode hex="0048"/>
  <outline>
    <contour>
      <point x="23" y="0" type="line"/>
      <point x="329" y="0" type="line"/>
      <point x="329" y="19" type="line"/>
      <point x="274" y="21"/>
      <point x="227" y="12"/>
      <point x="227" y="70" type="curve" smooth="yes"/>
      <point x="227" y="352" type="line"/>
      <point x="605" y="352" type="line"/>
      <point x="605" y="70" type="line" smooth="yes"/>
      <point x="605" y="12"/>
      <point x="558" y="21"/>
      <point x="503" y="19" type="curve"/>
      <point x="503" y="0" type="line"/>
      <point x="810" y="0" type="line"/>
      <point x="810" y="19" type="line"/>
      <point x="755" y="21"/>
      <point x="708" y="12"/>
      <point x="708" y="70" type="curve" smooth="yes"/>
      <point x="708" y="637" type="line" smooth="yes"/>
      <point x="708" y="694"/>
      <point x="755" y="681"/>
      <point x="810" y="683" type="curve"/>
      <point x="810" y="702" type="line"/>
      <point x="503" y="702" type="line"/>
      <point x="503" y="683" type="line"/>
      <point x="558" y="681"/>
      <point x="605" y="694"/>
      <point x="605" y="637" type="curve" smooth="yes"/>
      <point x="605" y="386" type="line"/>
      <point x="227" y="386" type="line"/>
      <point x="227" y="637" type="line" smooth="yes"/>
      <point x="227" y="694"/>
      <point x="274" y="681"/>
      <point x="329" y="683" type="curve"/>
      <point x="329" y="702" type="line"/>
      <point x="23" y="702" type="line"/>
      <point x="23" y="683" type="line"/>
      <point x="78" y="681"/>
      <point x="124" y="694"/>
      <point x="124" y="637" type="curve" smooth="yes"/>
      <point x="124" y="70" type="line" smooth="yes"/>
      <point x="124" y="12"/>
      <point x="78" y="21"/>
      <point x="23" y="19" type="curve"/>
    </contour>
  </outline>
</glyph>
<glyph name="I" format="2">
  <advance width="372.875"/>
  <unicode hex="0049"/>
  <anchor x="190" y="0" name="bottom"/>
  <anchor x="217" y="0" name="ogonek"/>
  <anchor x="190" y="702" name="top"/>
  <anchor x="29" y="702" name="topleft"/>
  <outline>
    <contour>
      <point x="238" y="640" type="line" smooth="yes"/>
      <point x="238" y="692"/>
      <point x="285" y="681"/>
      <point x="340" y="683" type="curve"/>
      <point x="340" y="702" type="line"/>
      <point x="33" y="702" type="line"/>
      <point x="33" y="683" type="line"/>
      <point x="88" y="681"/>
      <point x="135" y="692"/>
      <point x="135" y="640" type="curve" smooth="yes"/>
      <point x="135" y="66" type="line" smooth="yes"/>
      <point x="135" y="14"/>
      <point x="88" y="21"/>
      <point x="33" y="19" type="curve"/>
      <point x="33" y="0" type="line"/>
      <point x="340" y="0" type="line"/>
      <point x="340" y="19" type="line"/>
      <point x="285" y="21"/>
      <point x="238" y="14"/>
      <point x="238" y="66" type="curve" smooth="yes"/>
    </contour>
  </outline>
</glyph>
<glyph name="J" format="2">
  <advance width="393.375"/>
  <unicode hex="004A"/>
  <outline>
    <contour>
      <point x="15" y="-133" type="curve"/>
      <point x="20" y="-153" type="line"/>
      <point x="117" y="-141"/>
      <point x="255" y="-38"/>
      <point x="255" y="169" type="curve" smooth="yes"/>
      <point x="255" y="642" type="line" smooth="yes"/>
      <point x="255" y="690"/>
      <point x="302" y="681"/>
      <point x="357" y="683" type="curve"/>
      <point x="357" y="702" type="line"/>
      <point x="51" y="702" type="line"/>
      <point x="51" y="683" type="line"/>
      <point x="106" y="681"/>
      <point x="153" y="690"/>
      <point x="153" y="642" type="curve" smooth="yes"/>
      <point x="153" y="92" type="line" smooth="yes"/>
      <point x="153" y="14"/>
      <point x="134" y="-110"/>
    </contour>
  </outline>
</glyph>
<glyph name="K" format="2">
  <advance width="718.625"/>
  <unicode hex="004B"/>
  <anchor x="415" y="0" name="bottom"/>
  <anchor x="360" y="702" name="top"/>
  <outline>
    <contour>
      <point x="358" y="440" type="curve"/>
      <point x="290" y="377" type="line"/>
      <point x="386" y="250"/>
      <point x="474" y="128"/>
      <point x="568" y="0" type="curve"/>
      <point x="752" y="0" type="line"/>
      <point x="752" y="19" type="line"/>
      <point x="720" y="20" type="line" smooth="yes"/>
      <point x="691" y="21"/>
      <point x="664" y="29"/>
      <point x="639" y="60" type="curve" smooth="yes"/>
      <point x="579" y="135"/>
      <point x="434" y="339"/>
    </contour>
    <contour>
      <point x="228" y="65" type="curve" smooth="yes"/>
      <point x="228" y="642" type="line" smooth="yes"/>
      <point x="228" y="690"/>
      <point x="275" y="681"/>
      <point x="330" y="683" type="curve"/>
      <point x="330" y="702" type="line"/>
      <point x="23" y="702" type="line"/>
      <point x="23" y="683" type="line"/>
      <point x="78" y="681"/>
      <point x="125" y="690"/>
      <point x="125" y="642" type="curve" smooth="yes"/>
      <point x="125" y="65" type="line" smooth="yes"/>
      <point x="125" y="17"/>
      <point x="78" y="21"/>
      <point x="23" y="19" type="curve"/>
      <point x="23" y="0" type="line"/>
      <point x="330" y="0" type="line"/>
      <point x="330" y="19" type="line"/>
      <point x="275" y="21"/>
      <point x="228" y="17"/>
    </contour>
    <contour>
      <point x="222" y="288" type="line"/>
      <point x="583" y="634" type="line" smooth="yes"/>
      <point x="613" y="663"/>
      <point x="631" y="682"/>
      <point x="709" y="683" type="curve"/>
      <point x="709" y="702" type="line"/>
      <point x="454" y="702" type="line"/>
      <point x="454" y="683" type="line"/>
      <point x="507" y="682"/>
      <point x="539" y="687"/>
      <point x="539" y="657" type="curve" smooth="yes"/>
      <point x="539" y="639"/>
      <point x="524" y="623"/>
      <point x="474" y="575" type="curve" smooth="yes"/>
      <point x="213" y="328" type="line"/>
    </contour>
  </outline>
</glyph>
<glyph name="L" format="2">
  <advance width="657.625"/>
  <unicode hex="004C"/>
  <anchor x="333" y="0" name="bottom"/>
  <anchor x="330" y="351" name="center"/>
  <anchor x="179" y="710" name="top"/>
  <anchor x="641" y="702" name="topright"/>
  <outline>
    <contour>
      <point x="23" y="0" type="line"/>
      <point x="614" y="0" type="line"/>
      <point x="643" y="231" type="line"/>
      <point x="620" y="231" type="line"/>
      <point x="595" y="93"/>
      <point x="546" y="29"/>
      <point x="460" y="29" type="curve" smooth="yes"/>
      <point x="229" y="29" type="line"/>
      <point x="229" y="635" type="line" smooth="yes"/>
      <point x="228" y="688"/>
      <point x="268" y="681"/>
      <point x="341" y="683" type="curve"/>
      <point x="341" y="702" type="line"/>
      <point x="23" y="702" type="line"/>
      <point x="23" y="683" type="line"/>
      <point x="86" y="681"/>
      <point x="126" y="688"/>
      <point x="126" y="635" type="curve" smooth="yes"/>
      <point x="126" y="66" type="line" smooth="yes"/>
      <point x="126" y="20"/>
      <point x="104" y="21"/>
      <point x="23" y="19" type="curve"/>
    </contour>
  </outline>
</glyph>
<glyph name="M" format="2">
  <advance width="932.875"/>
  <unicode hex="004D"/>
  <outline>
    <contour>
      <point x="23" y="683" type="line"/>
      <point x="90" y="680"/>
      <point x="124" y="689"/>
      <point x="124" y="640" type="curve" smooth="yes"/>
      <point x="125" y="63" type="line" smooth="yes"/>
      <point x="125" y="17"/>
      <point x="78" y="21"/>
      <point x="23" y="19" type="curve"/>
      <point x="23" y="0" type="line"/>
      <point x="265" y="0" type="line"/>
      <point x="265" y="19" type="line"/>
      <point x="210" y="21"/>
      <point x="167" y="17"/>
      <point x="167" y="63" type="curve" smooth="yes"/>
      <point x="167" y="566" type="line"/>
      <point x="162" y="625" type="line"/>
      <point x="438" y="-1" type="line"/>
      <point x="467" y="-1" type="line"/>
      <point x="714" y="625" type="line"/>
      <point x="710" y="566" type="line"/>
      <point x="710" y="63" type="line" smooth="yes"/>
      <point x="710" y="14"/>
      <point x="660" y="21"/>
      <point x="605" y="19" type="curve"/>
      <point x="605" y="0" type="line"/>
      <point x="910" y="0" type="line"/>
      <point x="910" y="19" type="line"/>
      <point x="854" y="21"/>
      <point x="808" y="14"/>
      <point x="808" y="63" type="curve" smooth="yes"/>
      <point x="808" y="640" type="line" smooth="yes"/>
      <point x="808" y="689"/>
      <point x="843" y="680"/>
      <point x="910" y="683" type="curve"/>
      <point x="910" y="702" type="line"/>
      <point x="706" y="702" type="line"/>
      <point x="478" y="138" type="line"/>
      <point x="230" y="702" type="line"/>
      <point x="23" y="702" type="line"/>
    </contour>
  </outline>
</glyph>
<glyph name="N" format="2">
  <advance width="787.875"/>
  <unicode hex="004E"/>
  <anchor x="396" y="0" name="bottom"/>
  <anchor x="396" y="702" name="top"/>
  <outline>
    <contour>
      <point x="177" y="63" type="curve" smooth="yes"/>
      <point x="177" y="579" type="line"/>
      <point x="622" y="0" type="line"/>
      <point x="670" y="0" type="line"/>
      <point x="670" y="631" type="line" smooth="yes"/>
      <point x="670" y="680"/>
      <point x="696" y="682"/>
      <point x="773" y="683" type="curve"/>
      <point x="773" y="702" type="line"/>
      <point x="526" y="702" type="line"/>
      <point x="526" y="683" type="line"/>
      <point x="611" y="681"/>
      <point x="628" y="680"/>
      <point x="628" y="631" type="curve" smooth="yes"/>
      <point x="628" y="152" type="line"/>
      <point x="203" y="702" type="line"/>
      <point x="23" y="702" type="line"/>
      <point x="23" y="683" type="line"/>
      <point x="92" y="681"/>
      <point x="98" y="681"/>
      <point x="134" y="636" type="curve"/>
      <point x="134" y="63" type="line" smooth="yes"/>
      <point x="134" y="19"/>
      <point x="86" y="21"/>
      <point x="29" y="19" type="curve"/>
      <point x="29" y="0" type="line"/>
      <point x="274" y="0" type="line"/>
      <point x="274" y="19" type="line"/>
      <point x="212" y="21"/>
      <point x="177" y="19"/>
    </contour>
  </outline>
</glyph>
<glyph name="O" format="2">
  <advance width="799"/>
  <unicode hex="004F"/>
  <anchor x="400" y="0" name="bottom"/>
  <anchor x="400" y="351" name="center"/>
  <anchor x="719" y="10" name="ogonek"/>
  <anchor x="400" y="702" name="top"/>
  <anchor x="20" y="702" name="topleft"/>
  <anchor x="779" y="702" name="topright"/>
  <outline>
    <contour>
      <point x="400" y="-11" type="curve" smooth="yes"/>
      <point x="603" y="-11"/>
      <point x="752" y="158"/>
      <point x="752" y="352" type="curve" smooth="yes"/>
      <point x="752" y="557"/>
      <point x="603" y="716"/>
      <point x="400" y="716" type="curve" smooth="yes"/>
      <point x="191" y="716"/>
      <point x="47" y="556"/>
      <point x="47" y="352" type="curve" smooth="yes"/>
      <point x="47" y="159"/>
      <point x="189" y="-11"/>
    </contour>
    <contour>
      <point x="400" y="682" type="curve" smooth="yes"/>
      <point x="549" y="682"/>
      <point x="635" y="545"/>
      <point x="635" y="352" type="curve" smooth="yes"/>
      <point x="635" y="181"/>
      <point x="549" y="25"/>
      <point x="400" y="25" type="curve" smooth="yes"/>
      <point x="251" y="25"/>
      <point x="164" y="181"/>
      <point x="164" y="352" type="curve" smooth="yes"/>
      <point x="164" y="545"/>
      <point x="251" y="682"/>
    </contour>
  </outline>
</glyph>
<glyph name="P" format="2">
  <advance width="620"/>
  <unicode hex="0050"/>
  <outline>
    <contour>
      <point x="18" y="683" type="line"/>
      <point x="98" y="681"/>
      <point x="120" y="686"/>
      <point x="120" y="638" type="curve" smooth="yes"/>
      <point x="120" y="61" type="line" smooth="yes"/>
      <point x="120" y="11"/>
      <point x="73" y="21"/>
      <point x="18" y="19" type="curve"/>
      <point x="18" y="0" type="line"/>
      <point x="352" y="0" type="line"/>
      <point x="352" y="19" type="line"/>
      <point x="262" y="20"/>
      <point x="223" y="12"/>
      <point x="223" y="62" type="curve" smooth="yes"/>
      <point x="223" y="293" type="line"/>
      <point x="293" y="293" type="line" smooth="yes"/>
      <point x="477" y="293"/>
      <point x="580" y="386"/>
      <point x="580" y="511" type="curve" smooth="yes"/>
      <point x="580" y="630"/>
      <point x="492" y="702"/>
      <point x="321" y="702" type="curve" smooth="yes"/>
      <point x="18" y="702" type="line"/>
    </contour>
    <contour>
      <point x="223" y="325" type="line"/>
      <point x="223" y="674" type="line"/>
      <point x="281" y="674" type="line" smooth="yes"/>
      <point x="415" y="674"/>
      <point x="480" y="608"/>
      <point x="480" y="507" type="curve" smooth="yes"/>
      <point x="480" y="400"/>
      <point x="409" y="325"/>
      <point x="288" y="325" type="curve" smooth="yes"/>
    </contour>
  </outline>
</glyph>
<glyph name="Q" format="2">
  <advance width="805.625"/>
  <unicode hex="0051"/>
  <outline>
    <contour>
      <point x="771" y="-126" type="curve"/>
      <point x="771" y="-107" type="line"/>
      <point x="639" y="-109"/>
      <point x="546" y="-80"/>
      <point x="464" y="13" type="curve"/>
      <point x="359" y="-2" type="line"/>
      <point x="443" y="-92"/>
      <point x="532" y="-136"/>
    </contour>
    <component base="O" identifier="590FF826"/>
  </outline>
</glyph>
<glyph name="R" format="2">
  <advance width="677.125"/>
  <unicode hex="0052"/>
  <anchor x="336" y="0" name="bottom"/>
  <anchor x="324" y="702" name="top"/>
  <outline>
    <contour>
      <point x="651" y="24" type="line" smooth="yes"/>
      <point x="569" y="37"/>
      <point x="463" y="261"/>
      <point x="421" y="346" type="curve"/>
      <point x="316" y="338" type="line"/>
      <point x="413" y="161"/>
      <point x="456" y="0"/>
      <point x="618" y="0" type="curve" smooth="yes"/>
      <point x="687" y="0" type="line"/>
      <point x="687" y="19" type="line"/>
    </contour>
    <contour>
      <point x="23" y="683" type="line"/>
      <point x="121" y="683"/>
      <point x="125" y="685"/>
      <point x="125" y="632" type="curve" smooth="yes"/>
      <point x="125" y="60" type="line" smooth="yes"/>
      <point x="125" y="12"/>
      <point x="83" y="21"/>
      <point x="23" y="19" type="curve"/>
      <point x="23" y="0" type="line"/>
      <point x="326" y="0" type="line"/>
      <point x="326" y="19" type="line"/>
      <point x="270" y="21"/>
      <point x="228" y="12"/>
      <point x="228" y="60" type="curve" smooth="yes"/>
      <point x="228" y="328" type="line"/>
      <point x="298" y="328" type="line" smooth="yes"/>
      <point x="488" y="328"/>
      <point x="581" y="421"/>
      <point x="581" y="534" type="curve" smooth="yes"/>
      <point x="581" y="646"/>
      <point x="482" y="702"/>
      <point x="338" y="702" type="curve" smooth="yes"/>
      <point x="23" y="702" type="line"/>
    </contour>
    <contour>
      <point x="228" y="355" type="line"/>
      <point x="228" y="674" type="line"/>
      <point x="286" y="674" type="line" smooth="yes"/>
      <point x="421" y="674"/>
      <point x="478" y="610"/>
      <point x="478" y="519" type="curve" smooth="yes"/>
      <point x="478" y="424"/>
      <point x="398" y="355"/>
      <point x="309" y="355" type="curve" smooth="yes"/>
    </contour>
  </outline>
</glyph>
<glyph name="S" format="2">
  <advance width="574.25"/>
  <unicode hex="0053"/>
  <anchor x="288" y="0" name="bottom"/>
  <anchor x="283" y="702" name="top"/>
  <outline>
    <contour>
      <point x="506" y="652" type="line"/>
      <point x="492" y="663"/>
      <point x="387" y="716"/>
      <point x="282" y="716" type="curve" smooth="yes"/>
      <point x="151" y="716"/>
      <point x="38" y="656"/>
      <point x="38" y="536" type="curve" smooth="yes"/>
      <point x="38" y="454"/>
      <point x="92" y="389"/>
      <point x="183" y="351" type="curve" smooth="yes"/>
      <point x="339" y="285" type="line" smooth="yes"/>
      <point x="411" y="254"/>
      <point x="442" y="214"/>
      <point x="442" y="165" type="curve" smooth="yes"/>
      <point x="442" y="95"/>
      <point x="395" y="23"/>
      <point x="291" y="21" type="curve" smooth="yes"/>
      <point x="154" y="18"/>
      <point x="81" y="111"/>
      <point x="82" y="260" type="curve"/>
      <point x="62" y="260" type="line"/>
      <point x="38" y="77" type="line"/>
      <point x="70" y="53"/>
      <point x="156" y="-11"/>
      <point x="275" y="-11" type="curve" smooth="yes"/>
      <point x="445" y="-11"/>
      <point x="532" y="93"/>
      <point x="532" y="203" type="curve" smooth="yes"/>
      <point x="532" y="277"/>
      <point x="495" y="328"/>
      <point x="404" y="367" type="curve" smooth="yes"/>
      <point x="249" y="433" type="line" smooth="yes"/>
      <point x="178" y="464"/>
      <point x="133" y="501"/>
      <point x="133" y="571" type="curve" smooth="yes"/>
      <point x="133" y="638"/>
      <point x="190" y="685"/>
      <point x="270" y="685" type="curve" smooth="yes"/>
      <point x="395" y="685"/>
      <point x="460" y="594"/>
      <point x="458" y="471" type="curve"/>
      <point x="477" y="471" type="line"/>
    </contour>
  </outline>
</glyph>
<glyph name="T" format="2">
  <advance width="681.5"/>
  <unicode hex="0054"/>
  <anchor x="341" y="0" name="bottom"/>
  <anchor x="341" y="351" name="center"/>
  <anchor x="341" y="702" name="top"/>
  <outline>
    <contour>
      <point x="11" y="466" type="line"/>
      <point x="34" y="466" type="line"/>
      <point x="60" y="619"/>
      <point x="95" y="672"/>
      <point x="174" y="672" type="curve" smooth="yes"/>
      <point x="290" y="672" type="line"/>
      <point x="290" y="64" type="line" smooth="yes"/>
      <point x="290" y="18"/>
      <point x="265" y="21"/>
      <point x="173" y="19" type="curve"/>
      <point x="173" y="0" type="line"/>
      <point x="509" y="0" type="line"/>
      <point x="509" y="19" type="line"/>
      <point x="410" y="21"/>
      <point x="393" y="18"/>
      <point x="393" y="64" type="curve" smooth="yes"/>
      <point x="393" y="672" type="line"/>
      <point x="506" y="672" type="line" smooth="yes"/>
      <point x="588" y="672"/>
      <point x="623" y="619"/>
      <point x="648" y="466" type="curve"/>
      <point x="671" y="466" type="line"/>
      <point x="641" y="702" type="line"/>
      <point x="41" y="702" type="line"/>
    </contour>
  </outline>
</glyph>
<glyph name="U" format="2">
  <advance width="768.375"/>
  <unicode hex="0055"/>
  <anchor x="371" y="0" name="bottom"/>
  <anchor x="519" y="20" name="ogonek"/>
  <anchor x="408" y="702" name="top"/>
  <anchor x="734" y="702" name="topright"/>
  <outline>
    <contour>
      <point x="-1" y="683" type="line"/>
      <point x="74" y="681"/>
      <point x="101" y="690"/>
      <point x="101" y="635" type="curve" smooth="yes"/>
      <point x="101" y="258" type="line" smooth="yes"/>
      <point x="101" y="68"/>
      <point x="217" y="-12"/>
      <point x="391" y="-11" type="curve" smooth="yes"/>
      <point x="548" y="-10"/>
      <point x="651" y="90"/>
      <point x="651" y="264" type="curve" smooth="yes"/>
      <point x="651" y="635" type="line" smooth="yes"/>
      <point x="651" y="690"/>
      <point x="688" y="681"/>
      <point x="757" y="683" type="curve"/>
      <point x="757" y="702" type="line"/>
      <point x="502" y="702" type="line"/>
      <point x="502" y="683" type="line"/>
      <point x="590" y="683"/>
      <point x="607" y="690"/>
      <point x="607" y="635" type="curve" smooth="yes"/>
      <point x="607" y="259" type="line" smooth="yes"/>
      <point x="607" y="120"/>
      <point x="538" y="29"/>
      <point x="402" y="29" type="curve" smooth="yes"/>
      <point x="291" y="29"/>
      <point x="204" y="106"/>
      <point x="204" y="258" type="curve" smooth="yes"/>
      <point x="204" y="635" type="line" smooth="yes"/>
      <point x="204" y="690"/>
      <point x="245" y="681"/>
      <point x="310" y="683" type="curve"/>
      <point x="310" y="702" type="line"/>
      <point x="-1" y="702" type="line"/>
    </contour>
  </outline>
</glyph>
<glyph name="V" format="2">
  <advance width="669.875"/>
  <unicode hex="0056"/>
  <outline>
    <contour>
      <point x="-65" y="683" type="curve"/>
      <point x="-65" y="702" type="line"/>
      <point x="265" y="702" type="line"/>
      <point x="265" y="683" type="line"/>
      <point x="160" y="681"/>
      <point x="141" y="682"/>
      <point x="168" y="619" type="curve" smooth="yes"/>
      <point x="379" y="133" type="line"/>
      <point x="560" y="613" type="line" smooth="yes"/>
      <point x="589" y="689"/>
      <point x="539" y="681"/>
      <point x="461" y="683" type="curve"/>
      <point x="461" y="702" type="line"/>
      <point x="723" y="702" type="line"/>
      <point x="723" y="683" type="line"/>
      <point x="639" y="681"/>
      <point x="621" y="669"/>
      <point x="605" y="627" type="curve" smooth="yes"/>
      <point x="371" y="0" type="line"/>
      <point x="331" y="0" type="line"/>
      <point x="57" y="620" type="line" smooth="yes"/>
      <point x="30" y="682"/>
      <point x="27" y="681"/>
    </contour>
  </outline>
</glyph>
<glyph name="W" format="2">
  <advance width="993.875"/>
  <unicode hex="0057"/>
  <anchor x="480" y="0" name="bottom"/>
  <anchor x="515" y="702" name="top"/>
  <outline>
    <contour>
      <point x="515" y="545" type="line"/>
      <point x="497" y="606" type="line"/>
      <point x="332" y="147" type="line"/>
      <point x="165" y="630" type="line" smooth="yes"/>
      <point x="144" y="692"/>
      <point x="176" y="681"/>
      <point x="271" y="683" type="curve"/>
      <point x="271" y="702" type="line"/>
      <point x="-48" y="702" type="line"/>
      <point x="-48" y="683" type="line"/>
      <point x="34" y="681"/>
      <point x="40" y="682"/>
      <point x="56" y="635" type="curve" smooth="yes"/>
      <point x="276" y="0" type="line"/>
      <point x="325" y="0" type="line"/>
    </contour>
    <contour>
      <point x="462" y="651" type="curve" smooth="yes"/>
      <point x="685" y="0" type="line"/>
      <point x="734" y="0" type="line"/>
      <point x="938" y="645" type="line" smooth="yes"/>
      <point x="949" y="679"/>
      <point x="971" y="683"/>
      <point x="1036" y="683" type="curve"/>
      <point x="1036" y="702" type="line"/>
      <point x="793" y="702" type="line"/>
      <point x="793" y="683" type="line"/>
      <point x="889" y="681"/>
      <point x="912" y="690"/>
      <point x="887" y="615" type="curve" smooth="yes"/>
      <point x="735" y="147" type="line"/>
      <point x="558" y="651" type="line" smooth="yes"/>
      <point x="545" y="690"/>
      <point x="600" y="681"/>
      <point x="653" y="683" type="curve"/>
      <point x="653" y="702" type="line"/>
      <point x="338" y="702" type="line"/>
      <point x="338" y="683" type="line"/>
      <point x="396" y="681"/>
      <point x="450" y="686"/>
    </contour>
  </outline>
</glyph>
<glyph name="X" format="2">
  <advance width="729.125"/>
  <unicode hex="0058"/>
  <outline>
    <contour>
      <point x="-43" y="683" type="line"/>
      <point x="24" y="681"/>
      <point x="47" y="684"/>
      <point x="73" y="649" type="curve" smooth="yes"/>
      <point x="497" y="75" type="line" smooth="yes"/>
      <point x="538" y="20"/>
      <point x="494" y="21"/>
      <point x="384" y="19" type="curve"/>
      <point x="384" y="0" type="line"/>
      <point x="767" y="0" type="line"/>
      <point x="767" y="19" type="line"/>
      <point x="698" y="22"/>
      <point x="665" y="18"/>
      <point x="622" y="76" type="curve" smooth="yes"/>
      <point x="230" y="605" type="line" smooth="yes"/>
      <point x="181" y="672"/>
      <point x="200" y="681"/>
      <point x="330" y="683" type="curve"/>
      <point x="330" y="702" type="line"/>
      <point x="-43" y="702" type="line"/>
    </contour>
    <contour>
      <point x="-39" y="0" type="line"/>
      <point x="246" y="0" type="line"/>
      <point x="246" y="19" type="line"/>
      <point x="156" y="21"/>
      <point x="115" y="24"/>
      <point x="165" y="90" type="curve" smooth="yes"/>
      <point x="358" y="344" type="line"/>
      <point x="326" y="368" type="line"/>
      <point x="97" y="65" type="line" smooth="yes"/>
      <point x="75" y="35"/>
      <point x="51" y="22"/>
      <point x="-39" y="19" type="curve"/>
    </contour>
    <contour>
      <point x="347" y="383" type="line"/>
      <point x="380" y="360" type="line"/>
      <point x="590" y="635" type="line" smooth="yes"/>
      <point x="617" y="670"/>
      <point x="647" y="682"/>
      <point x="725" y="683" type="curve"/>
      <point x="725" y="702" type="line"/>
      <point x="456" y="702" type="line"/>
      <point x="456" y="683" type="line"/>
      <point x="547" y="681"/>
      <point x="578" y="679"/>
      <point x="524" y="610" type="curve" smooth="yes"/>
    </contour>
  </outline>
</glyph>
<glyph name="Y" format="2">
  <advance width="632.875"/>
  <unicode hex="0059"/>
  <anchor x="313" y="0" name="bottom"/>
  <anchor x="335" y="702" name="top"/>
  <anchor x="8" y="702" name="topleft"/>
  <outline>
    <contour>
      <point x="-49" y="683" type="line"/>
      <point x="0" y="683" type="line" smooth="yes"/>
      <point x="41" y="683"/>
      <point x="50" y="660"/>
      <point x="85" y="605" type="curve" smooth="yes"/>
      <point x="279" y="302" type="line"/>
      <point x="279" y="63" type="line" smooth="yes"/>
      <point x="279" y="15"/>
      <point x="242" y="21"/>
      <point x="177" y="19" type="curve"/>
      <point x="177" y="0" type="line"/>
      <point x="481" y="0" type="line"/>
      <point x="481" y="19" type="line"/>
      <point x="415" y="21"/>
      <point x="380" y="15"/>
      <point x="380" y="63" type="curve" smooth="yes"/>
      <point x="380" y="308" type="line"/>
      <point x="558" y="621" type="line" smooth="yes"/>
      <point x="580" y="658"/>
      <point x="586" y="683"/>
      <point x="635" y="683" type="curve" smooth="yes"/>
      <point x="678" y="683" type="line"/>
      <point x="678" y="702" type="line"/>
      <point x="426" y="702" type="line"/>
      <point x="426" y="683" type="line"/>
      <point x="496" y="683" type="line" smooth="yes"/>
      <point x="543" y="683"/>
      <point x="543" y="663"/>
      <point x="506" y="601" type="curve" smooth="yes"/>
      <point x="357" y="350" type="line"/>
      <point x="175" y="630" type="line" smooth="yes"/>
      <point x="151" y="668"/>
      <point x="160" y="683"/>
      <point x="203" y="683" type="curve" smooth="yes"/>
      <point x="273" y="683" type="line"/>
      <point x="273" y="702" type="line"/>
      <point x="-49" y="702" type="line"/>
    </contour>
  </outline>
</glyph>
<glyph name="Z" format="2">
  <advance width="660.125"/>
  <unicode hex="005A"/>
  <anchor x="327" y="0" name="bottom"/>
  <anchor x="327" y="351" name="center"/>
  <anchor x="346" y="702" name="top"/>
  <outline>
    <contour>
      <point x="39" y="19" type="line"/>
      <point x="492" y="668" type="line"/>
      <point x="207" y="668" type="line" smooth="yes"/>
      <point x="119" y="668"/>
      <point x="95" y="589"/>
      <point x="76" y="472" type="curve"/>
      <point x="51" y="472" type="line"/>
      <point x="73" y="702" type="line"/>
      <point x="73" y="703" type="line"/>
      <point x="615" y="702" type="line"/>
      <point x="626" y="687" type="line"/>
      <point x="172" y="35" type="line"/>
      <point x="474" y="35" type="line" smooth="yes"/>
      <point x="559" y="35"/>
      <point x="589" y="113"/>
      <point x="609" y="230" type="curve"/>
      <point x="634" y="230" type="line"/>
      <point x="604" y="0" type="line"/>
      <point x="50" y="0" type="line"/>
    </contour>
  </outline>
</glyph>
<glyph name="bracketleft" format="2">
  <advance width="319"/>
  <unicode hex="005B"/>
  <outline>
    <contour>
      <point x="299" y="736" type="line"/>
      <point x="72" y="736" type="line"/>
      <point x="72" y="-216" type="line"/>
      <point x="73" y="-216" type="line"/>
      <point x="73" y="-220" type="line"/>
      <point x="300" y="-220" type="line"/>
      <point x="300" y="-200" type="line"/>
      <point x="166" y="-200" type="line"/>
      <point x="166" y="716" type="line"/>
      <point x="299" y="716" type="line"/>
    </contour>
  </outline>
</glyph>
<glyph name="asciicircum" format="2">
  <advance width="416.75"/>
  <unicode hex="005E"/>
  <outline>
    <contour>
      <point x="217" y="702" type="line"/>
      <point x="199" y="702" type="line"/>
      <point x="52" y="441" type="line"/>
      <point x="101" y="441" type="line"/>
      <point x="208" y="634" type="line"/>
      <point x="315" y="441" type="line"/>
      <point x="364" y="441" type="line"/>
    </contour>
  </outline>
</glyph>
<glyph name="underscore" format="2">
  <advance width="477.5"/>
  <unicode hex="005F"/>
  <outline>
    <contour>
      <point x="14" y="-78" type="line"/>
      <point x="14" y="-116" type="line"/>
      <point x="464" y="-116" type="line"/>
      <point x="464" y="-78" type="line"/>
    </contour>
  </outline>
</glyph>
<glyph name="a" format="2">
  <advance width="548"/>
  <unicode hex="0061"/>
  <anchor x="280" y="0" name="bottom"/>
  <anchor x="466" y="0" name="ogonek"/>
  <anchor x="258" y="502" name="top"/>
  <outline>
    <contour>
      <point x="356" y="0" type="line"/>
      <point x="541" y="0" type="line"/>
      <point x="541" y="20" type="line"/>
      <point x="494" y="20"/>
      <point x="450" y="15"/>
      <point x="450" y="78" type="curve"/>
      <point x="450" y="346" type="line" smooth="yes"/>
      <point x="450" y="445"/>
      <point x="373" y="514"/>
      <point x="257" y="514" type="curve" smooth="yes"/>
      <point x="104" y="514"/>
      <point x="56" y="404"/>
      <point x="53" y="338" type="curve"/>
      <point x="79" y="338" type="line"/>
      <point x="89" y="411"/>
      <point x="142" y="461"/>
      <point x="222" y="461" type="curve" smooth="yes"/>
      <point x="309" y="461"/>
      <point x="355" y="405"/>
      <point x="356" y="325" type="curve" smooth="yes"/>
    </contour>
    <contour>
      <point x="377" y="120" type="line"/>
      <point x="308" y="69"/>
      <point x="263" y="46"/>
      <point x="220" y="46" type="curve" smooth="yes"/>
      <point x="180" y="46"/>
      <point x="141" y="70"/>
      <point x="141" y="125" type="curve" smooth="yes"/>
      <point x="141" y="170"/>
      <point x="168" y="199"/>
      <point x="226" y="217" type="curve" smooth="yes"/>
      <point x="264" y="229"/>
      <point x="312" y="242"/>
      <point x="377" y="259" type="curve"/>
      <point x="377" y="289" type="line"/>
      <point x="324" y="278"/>
      <point x="280" y="266"/>
      <point x="225" y="253" type="curve" smooth="yes"/>
      <point x="128" y="229"/>
      <point x="51" y="195"/>
      <point x="51" y="107" type="curve" smooth="yes"/>
      <point x="51" y="27"/>
      <point x="121" y="-9"/>
      <point x="179" y="-9" type="curve" smooth="yes"/>
      <point x="247" y="-9"/>
      <point x="298" y="29"/>
      <point x="378" y="93" type="curve"/>
    </contour>
  </outline>
</glyph>
<glyph name="b" format="2">
  <advance width="624"/>
  <unicode hex="0062"/>
  <outline>
    <contour>
      <point x="186" y="395" type="curve"/>
      <point x="186" y="85" type="line"/>
      <point x="210" y="59"/>
      <point x="253" y="27"/>
      <point x="320" y="27" type="curve" smooth="yes"/>
      <point x="428" y="27"/>
      <point x="490" y="116"/>
      <point x="490" y="252" type="curve" smooth="yes"/>
      <point x="490" y="389"/>
      <point x="412" y="461"/>
      <point x="325" y="461" type="curve" smooth="yes"/>
      <point x="293" y="461"/>
      <point x="237" y="433"/>
    </contour>
    <contour>
      <point x="-6" y="699" type="curve"/>
      <point x="-6" y="720" type="line"/>
      <point x="186" y="771" type="line"/>
      <point x="186" y="431" type="line"/>
      <point x="213" y="450"/>
      <point x="300" y="513"/>
      <point x="359" y="513" type="curve" smooth="yes"/>
      <point x="481" y="513"/>
      <point x="581" y="438"/>
      <point x="581" y="279" type="curve" smooth="yes"/>
      <point x="581" y="105"/>
      <point x="471" y="-11"/>
      <point x="301" y="-11" type="curve" smooth="yes"/>
      <point x="210" y="-11"/>
      <point x="133" y="25"/>
      <point x="91" y="44" type="curve"/>
      <point x="91" y="664" type="line" smooth="yes"/>
      <point x="91" y="726"/>
      <point x="65" y="718"/>
    </contour>
  </outline>
</glyph>
<glyph name="c" format="2">
  <advance width="547"/>
  <unicode hex="0063"/>
  <anchor x="278" y="0" name="bottom"/>
  <anchor x="290" y="502" name="top"/>
  <outline>
    <contour>
      <point x="497" y="437" type="line"/>
      <point x="434" y="487"/>
      <point x="376" y="514"/>
      <point x="299" y="514" type="curve" smooth="yes"/>
      <point x="135" y="514"/>
      <point x="43" y="390"/>
      <point x="43" y="246" type="curve" smooth="yes"/>
      <point x="43" y="94"/>
      <point x="151" y="-11"/>
      <point x="291" y="-11" type="curve" smooth="yes"/>
      <point x="404" y="-11"/>
      <point x="475" y="62"/>
      <point x="512" y="149" type="curve"/>
      <point x="494" y="159" type="line"/>
      <point x="450" y="88"/>
      <point x="401" y="51"/>
      <point x="324" y="51" type="curve" smooth="yes"/>
      <point x="220" y="51"/>
      <point x="137" y="143"/>
      <point x="137" y="291" type="curve" smooth="yes"/>
      <point x="137" y="407"/>
      <point x="197" y="485"/>
      <point x="295" y="485" type="curve" smooth="yes"/>
      <point x="371" y="485"/>
      <point x="435" y="427"/>
      <point x="444" y="297" type="curve"/>
      <point x="461" y="297" type="line"/>
    </contour>
  </outline>
</glyph>
<glyph name="d" format="2">
  <advance width="638.75"/>
  <unicode hex="0064"/>
  <anchor x="320" y="0" name="bottom"/>
  <anchor x="320" y="251" name="center"/>
  <anchor x="320" y="760" name="top"/>
  <anchor x="621" y="760" name="topright"/>
  <outline>
    <contour>
      <point x="444" y="115" type="line"/>
      <point x="410" y="86"/>
      <point x="354" y="56"/>
      <point x="312" y="56" type="curve" smooth="yes"/>
      <point x="228" y="56"/>
      <point x="138" y="136"/>
      <point x="138" y="284" type="curve" smooth="yes"/>
      <point x="138" y="393"/>
      <point x="197" y="477"/>
      <point x="299" y="477" type="curve" smooth="yes"/>
      <point x="366" y="477"/>
      <point x="419" y="434"/>
      <point x="451" y="393" type="curve"/>
      <point x="489" y="457" type="line"/>
      <point x="447" y="479"/>
      <point x="385" y="513"/>
      <point x="306" y="513" type="curve" smooth="yes"/>
      <point x="159" y="513"/>
      <point x="43" y="400"/>
      <point x="43" y="245" type="curve" smooth="yes"/>
      <point x="43" y="80"/>
      <point x="158" y="-5"/>
      <point x="275" y="-5" type="curve" smooth="yes"/>
      <point x="327" y="-5"/>
      <point x="393" y="38"/>
      <point x="444" y="79" type="curve"/>
    </contour>
    <contour>
      <point x="333" y="699" type="line"/>
      <point x="405" y="716"/>
      <point x="444" y="731"/>
      <point x="444" y="673" type="curve" smooth="yes"/>
      <point x="444" y="0" type="line"/>
      <point x="635" y="0" type="line"/>
      <point x="635" y="19" type="line"/>
      <point x="555" y="19"/>
      <point x="539" y="24"/>
      <point x="539" y="78" type="curve" smooth="yes"/>
      <point x="539" y="770" type="line"/>
      <point x="333" y="719" type="line"/>
    </contour>
  </outline>
</glyph>
<glyph name="e" format="2">
  <advance width="565.5"/>
  <unicode hex="0065"/>
  <anchor x="285" y="0" name="bottom"/>
  <anchor x="375" y="2" name="ogonek"/>
  <anchor x="278" y="502" name="top"/>
  <outline>
    <contour>
      <point x="107" y="309" type="line"/>
      <point x="513" y="309" type="line"/>
      <point x="510" y="426"/>
      <point x="420" y="514"/>
      <point x="292" y="514" type="curve" smooth="yes"/>
      <point x="129" y="514"/>
      <point x="43" y="391"/>
      <point x="43" y="250" type="curve" smooth="yes"/>
      <point x="43" y="89"/>
      <point x="154" y="-11"/>
      <point x="296" y="-11" type="curve" smooth="yes"/>
      <point x="404" y="-11"/>
      <point x="477" y="47"/>
      <point x="528" y="153" type="curve"/>
      <point x="507" y="162" type="line"/>
      <point x="463" y="79"/>
      <point x="388" y="54"/>
      <point x="337" y="54" type="curve" smooth="yes"/>
      <point x="215" y="54"/>
      <point x="136" y="153"/>
      <point x="136" y="293" type="curve" smooth="yes"/>
      <point x="136" y="389"/>
      <point x="178" y="484"/>
      <point x="275" y="484" type="curve" smooth="yes"/>
      <point x="347" y="484"/>
      <point x="399" y="432"/>
      <point x="410" y="334" type="curve"/>
      <point x="107" y="334" type="line"/>
    </contour>
  </outline>
</glyph>
<glyph name="f" format="2">
  <advance width="409.125"/>
  <unicode hex="0066"/>
  <outline>
    <contour>
      <point x="127" y="70" type="line" smooth="yes"/>
      <point x="127" y="22"/>
      <point x="85" y="21"/>
      <point x="40" y="19" type="curve"/>
      <point x="40" y="0" type="line"/>
      <point x="363" y="0" type="line"/>
      <point x="363" y="19" type="line"/>
      <point x="268" y="21"/>
      <point x="222" y="22"/>
      <point x="222" y="70" type="curve" smooth="yes"/>
      <point x="222" y="576" type="line" smooth="yes"/>
      <point x="222" y="676"/>
      <point x="242" y="743"/>
      <point x="323" y="743" type="curve" smooth="yes"/>
      <point x="387" y="743"/>
      <point x="423" y="693"/>
      <point x="424" y="547" type="curve"/>
      <point x="441" y="547" type="line"/>
      <point x="482" y="686" type="line"/>
      <point x="439" y="741"/>
      <point x="379" y="771"/>
      <point x="314" y="771" type="curve" smooth="yes"/>
      <point x="198" y="771"/>
      <point x="127" y="689"/>
      <point x="127" y="584" type="curve" smooth="yes"/>
    </contour>
    <contour>
      <point x="66" y="502" type="line"/>
      <point x="66" y="476" type="line"/>
      <point x="351" y="476" type="line"/>
      <point x="351" y="502" type="line"/>
    </contour>
  </outline>
</glyph>
<glyph name="g" format="2">
  <advance width="593.75"/>
  <unicode hex="0067"/>
  <anchor x="297" y="-240" name="bottom"/>
  <anchor x="284" y="509" name="top"/>
  <outline>
    <contour>
      <point x="281" y="169" type="curve" smooth="yes"/>
      <point x="398" y="169"/>
      <point x="498" y="235"/>
      <point x="498" y="341" type="curve" smooth="yes"/>
      <point x="498" y="443"/>
      <point x="398" y="513"/>
      <point x="281" y="513" type="curve" smooth="yes"/>
      <point x="163" y="513"/>
      <point x="68" y="443"/>
      <point x="68" y="341" type="curve" smooth="yes"/>
      <point x="68" y="235"/>
      <point x="163" y="169"/>
    </contour>
    <contour>
      <point x="241" y="192" type="curve"/>
      <point x="201" y="197" type="line"/>
      <point x="162" y="172"/>
      <point x="73" y="130"/>
      <point x="73" y="110" type="curve" smooth="yes"/>
      <point x="73" y="65"/>
      <point x="105" y="23"/>
      <point x="208" y="5" type="curve" smooth="yes"/>
      <point x="384" y="-26" type="line" smooth="yes"/>
      <point x="443" y="-37"/>
      <point x="470" y="-55"/>
      <point x="470" y="-94" type="curve" smooth="yes"/>
      <point x="470" y="-160"/>
      <point x="386" y="-210"/>
      <point x="293" y="-210" type="curve" smooth="yes"/>
      <point x="192" y="-210"/>
      <point x="124" y="-160"/>
      <point x="124" y="-70" type="curve" smooth="yes"/>
      <point x="124" y="-55"/>
      <point x="199" y="8"/>
      <point x="255" y="39" type="curve"/>
      <point x="213" y="47" type="line"/>
      <point x="170" y="13"/>
      <point x="34" y="-55"/>
      <point x="34" y="-89" type="curve" smooth="yes"/>
      <point x="34" y="-178"/>
      <point x="141" y="-243"/>
      <point x="270" y="-243" type="curve" smooth="yes"/>
      <point x="418" y="-243"/>
      <point x="548" y="-158"/>
      <point x="548" y="-51" type="curve" smooth="yes"/>
      <point x="548" y="10"/>
      <point x="512" y="38"/>
      <point x="426" y="53" type="curve" smooth="yes"/>
      <point x="209" y="94" type="line" smooth="yes"/>
      <point x="172" y="101"/>
      <point x="153" y="115"/>
      <point x="153" y="134" type="curve" smooth="yes"/>
      <point x="153" y="141"/>
      <point x="194" y="165"/>
    </contour>
    <contour>
      <point x="277" y="488" type="curve" smooth="yes"/>
      <point x="352" y="488"/>
      <point x="399" y="418"/>
      <point x="399" y="332" type="curve" smooth="yes"/>
      <point x="399" y="253"/>
      <point x="357" y="196"/>
      <point x="293" y="196" type="curve" smooth="yes"/>
      <point x="214" y="196"/>
      <point x="168" y="262"/>
      <point x="168" y="352" type="curve" smooth="yes"/>
      <point x="168" y="429"/>
      <point x="206" y="488"/>
    </contour>
    <contour>
      <point x="385" y="487" type="curve"/>
      <point x="383" y="467" type="line"/>
      <point x="526" y="467" type="line"/>
      <point x="561" y="557" type="line"/>
      <point x="546" y="562" type="line"/>
      <point x="510" y="514"/>
      <point x="474" y="493"/>
    </contour>
  </outline>
</glyph>
<glyph name="h" format="2">
  <advance width="655"/>
  <unicode hex="0068"/>
  <outline>
    <contour>
      <point x="463" y="62" type="line" smooth="yes"/>
      <point x="463" y="14"/>
      <point x="421" y="21"/>
      <point x="376" y="19" type="curve"/>
      <point x="376" y="0" type="line"/>
      <point x="643" y="0" type="line"/>
      <point x="643" y="19" type="line"/>
      <point x="588" y="21"/>
      <point x="557" y="14"/>
      <point x="557" y="62" type="curve" smooth="yes"/>
      <point x="557" y="353" type="line" smooth="yes"/>
      <point x="557" y="448"/>
      <point x="499" y="514"/>
      <point x="397" y="514" type="curve" smooth="yes"/>
      <point x="340" y="514"/>
      <point x="260" y="454"/>
      <point x="206" y="419" type="curve"/>
      <point x="206" y="771" type="line"/>
      <point x="14" y="714" type="line"/>
      <point x="14" y="694" type="line"/>
      <point x="85" y="713"/>
      <point x="112" y="726"/>
      <point x="112" y="650" type="curve" smooth="yes"/>
      <point x="112" y="60" type="line" smooth="yes"/>
      <point x="112" y="14"/>
      <point x="70" y="21"/>
      <point x="25" y="19" type="curve"/>
      <point x="25" y="0" type="line"/>
      <point x="292" y="0" type="line"/>
      <point x="292" y="19" type="line"/>
      <point x="239" y="21"/>
      <point x="206" y="14"/>
      <point x="206" y="62" type="curve" smooth="yes"/>
      <point x="206" y="387" type="line"/>
      <point x="237" y="409"/>
      <point x="297" y="459"/>
      <point x="355" y="459" type="curve" smooth="yes"/>
      <point x="432" y="459"/>
      <point x="463" y="409"/>
      <point x="463" y="315" type="curve" smooth="yes"/>
    </contour>
  </outline>
</glyph>
<glyph name="i" format="2">
  <advance width="307"/>
  <unicode hex="0069"/>
  <anchor x="154" y="502" name="_top"/>
  <anchor x="154" y="748" name="top"/>
  <outline>
    <component base="idotless" identifier="BE0ECD22"/>
    <contour>
      <point x="156" y="642" type="curve" smooth="yes"/>
      <point x="121" y="642"/>
      <point x="90" y="670"/>
      <point x="90" y="707" type="curve" smooth="yes"/>
      <point x="90" y="741"/>
      <point x="119" y="770"/>
      <point x="156" y="770" type="curve" smooth="yes"/>
      <point x="190" y="770"/>
      <point x="221" y="743"/>
      <point x="221" y="707" type="curve" smooth="yes"/>
      <point x="221" y="669"/>
      <point x="191" y="642"/>
    </contour>
  </outline>
</glyph>
<glyph name="j" format="2">
  <advance width="331.25"/>
  <unicode hex="006A"/>
  <outline>
    <contour>
      <point x="172" y="642" type="curve" smooth="yes"/>
      <point x="138" y="642"/>
      <point x="107" y="670"/>
      <point x="107" y="707" type="curve" smooth="yes"/>
      <point x="107" y="741"/>
      <point x="136" y="770"/>
      <point x="172" y="770" type="curve" smooth="yes"/>
      <point x="207" y="770"/>
      <point x="237" y="743"/>
      <point x="237" y="707" type="curve" smooth="yes"/>
      <point x="237" y="669"/>
      <point x="207" y="642"/>
    </contour>
    <component base="jdotless" xOffset="-6" identifier="8BBCBBAF"/>
  </outline>
</glyph>
<glyph name="k" format="2">
  <advance width="596.625"/>
  <unicode hex="006B"/>
  <anchor x="309" y="0" name="bottom"/>
  <anchor x="298" y="760" name="top"/>
  <outline>
    <contour>
      <point x="336" y="346" type="line"/>
      <point x="261" y="289" type="line"/>
      <point x="437" y="0" type="line"/>
      <point x="613" y="0" type="line"/>
      <point x="613" y="19" type="line"/>
      <point x="557" y="24"/>
      <point x="537" y="29"/>
      <point x="515" y="63" type="curve" smooth="yes"/>
    </contour>
    <contour>
      <point x="184" y="263" type="line"/>
      <point x="198" y="235" type="line"/>
      <point x="431" y="416" type="line" smooth="yes"/>
      <point x="504" y="473"/>
      <point x="522" y="483"/>
      <point x="583" y="483" type="curve"/>
      <point x="583" y="502" type="line"/>
      <point x="366" y="502" type="line"/>
      <point x="366" y="483" type="line"/>
      <point x="401" y="483" type="line" smooth="yes"/>
      <point x="455" y="483"/>
      <point x="450" y="464"/>
      <point x="414" y="437" type="curve" smooth="yes"/>
    </contour>
    <contour>
      <point x="14" y="705" type="line"/>
      <point x="81" y="722"/>
      <point x="105" y="738"/>
      <point x="105" y="674" type="curve" smooth="yes"/>
      <point x="105" y="71" type="line" smooth="yes"/>
      <point x="105" y="27"/>
      <point x="94" y="21"/>
      <point x="18" y="20" type="curve"/>
      <point x="18" y="0" type="line"/>
      <point x="284" y="0" type="line"/>
      <point x="284" y="20" type="line"/>
      <point x="209" y="21"/>
      <point x="199" y="27"/>
      <point x="199" y="71" type="curve" smooth="yes"/>
      <point x="199" y="777" type="line"/>
      <point x="14" y="726" type="line"/>
    </contour>
  </outline>
</glyph>
<glyph name="l" format="2">
  <advance width="309.125"/>
  <unicode hex="006C"/>
  <anchor x="157" y="0" name="bottom"/>
  <anchor x="157" y="380" name="center"/>
  <anchor x="157" y="760" name="top"/>
  <anchor x="289" y="760" name="topright"/>
  <outline>
    <contour>
      <point x="203" y="66" type="curve" smooth="yes"/>
      <point x="203" y="771" type="line"/>
      <point x="14" y="714" type="line"/>
      <point x="14" y="695" type="line"/>
      <point x="66" y="707"/>
      <point x="109" y="730"/>
      <point x="109" y="670" type="curve" smooth="yes"/>
      <point x="109" y="68" type="line" smooth="yes"/>
      <point x="109" y="20"/>
      <point x="67" y="21"/>
      <point x="22" y="19" type="curve"/>
      <point x="22" y="0" type="line"/>
      <point x="288" y="0" type="line"/>
      <point x="288" y="19" type="line"/>
      <point x="235" y="21"/>
      <point x="203" y="20"/>
    </contour>
  </outline>
</glyph>
<glyph name="m" format="2">
  <advance width="947.125"/>
  <unicode hex="006D"/>
  <outline>
    <contour>
      <point x="211" y="65" type="curve" smooth="yes"/>
      <point x="211" y="513" type="line"/>
      <point x="21" y="462" type="line"/>
      <point x="21" y="442" type="line"/>
      <point x="94" y="460"/>
      <point x="117" y="471"/>
      <point x="117" y="413" type="curve" smooth="yes"/>
      <point x="117" y="65" type="line" smooth="yes"/>
      <point x="117" y="16"/>
      <point x="75" y="21"/>
      <point x="30" y="19" type="curve"/>
      <point x="30" y="0" type="line"/>
      <point x="298" y="0" type="line"/>
      <point x="298" y="19" type="line"/>
      <point x="243" y="21"/>
      <point x="211" y="16"/>
    </contour>
    <contour>
      <point x="519" y="411" type="curve"/>
      <point x="523" y="379" type="line"/>
      <point x="550" y="402"/>
      <point x="607" y="456"/>
      <point x="657" y="456" type="curve" smooth="yes"/>
      <point x="710" y="456"/>
      <point x="755" y="429"/>
      <point x="755" y="331" type="curve" smooth="yes"/>
      <point x="755" y="65" type="line" smooth="yes"/>
      <point x="755" y="16"/>
      <point x="713" y="21"/>
      <point x="668" y="19" type="curve"/>
      <point x="668" y="0" type="line"/>
      <point x="935" y="0" type="line"/>
      <point x="935" y="19" type="line"/>
      <point x="880" y="21"/>
      <point x="849" y="16"/>
      <point x="849" y="65" type="curve" smooth="yes"/>
      <point x="849" y="355" type="line" smooth="yes"/>
      <point x="849" y="448"/>
      <point x="806" y="514"/>
      <point x="695" y="514" type="curve" smooth="yes"/>
      <point x="644" y="514"/>
      <point x="566" y="448"/>
    </contour>
    <contour>
      <point x="204" y="413" type="curve"/>
      <point x="205" y="377" type="line"/>
      <point x="231" y="401"/>
      <point x="291" y="456"/>
      <point x="340" y="456" type="curve" smooth="yes"/>
      <point x="395" y="456"/>
      <point x="439" y="428"/>
      <point x="439" y="331" type="curve" smooth="yes"/>
      <point x="439" y="65" type="line" smooth="yes"/>
      <point x="439" y="16"/>
      <point x="397" y="21"/>
      <point x="352" y="19" type="curve"/>
      <point x="352" y="0" type="line"/>
      <point x="618" y="0" type="line"/>
      <point x="618" y="19" type="line"/>
      <point x="563" y="21"/>
      <point x="533" y="16"/>
      <point x="533" y="65" type="curve" smooth="yes"/>
      <point x="533" y="355" type="line" smooth="yes"/>
      <point x="533" y="446"/>
      <point x="489" y="514"/>
      <point x="377" y="514" type="curve" smooth="yes"/>
      <point x="327" y="514"/>
      <point x="252" y="449"/>
    </contour>
  </outline>
</glyph>
<glyph name="n" format="2">
  <advance width="663.375"/>
  <unicode hex="006E"/>
  <anchor x="338" y="0" name="bottom"/>
  <anchor x="349" y="502" name="top"/>
  <outline>
    <contour>
      <point x="469" y="65" type="line" smooth="yes"/>
      <point x="469" y="16"/>
      <point x="427" y="21"/>
      <point x="382" y="19" type="curve"/>
      <point x="382" y="0" type="line"/>
      <point x="651" y="0" type="line"/>
      <point x="651" y="19" type="line"/>
      <point x="596" y="21"/>
      <point x="564" y="16"/>
      <point x="564" y="65" type="curve" smooth="yes"/>
      <point x="564" y="353" type="line" smooth="yes"/>
      <point x="564" y="446"/>
      <point x="505" y="514"/>
      <point x="404" y="514" type="curve" smooth="yes"/>
      <point x="349" y="514"/>
      <point x="265" y="450"/>
      <point x="211" y="415" type="curve"/>
      <point x="211" y="513" type="line"/>
      <point x="21" y="462" type="line"/>
      <point x="21" y="442" type="line"/>
      <point x="94" y="459"/>
      <point x="117" y="470"/>
      <point x="117" y="413" type="curve" smooth="yes"/>
      <point x="117" y="65" type="line" smooth="yes"/>
      <point x="117" y="16"/>
      <point x="75" y="21"/>
      <point x="30" y="19" type="curve"/>
      <point x="30" y="0" type="line"/>
      <point x="298" y="0" type="line"/>
      <point x="298" y="19" type="line"/>
      <point x="245" y="21"/>
      <point x="211" y="16"/>
      <point x="211" y="65" type="curve" smooth="yes"/>
      <point x="211" y="378" type="line"/>
      <point x="242" y="400"/>
      <point x="307" y="457"/>
      <point x="365" y="457" type="curve" smooth="yes"/>
      <point x="432" y="457"/>
      <point x="469" y="418"/>
      <point x="469" y="328" type="curve" smooth="yes"/>
    </contour>
  </outline>
</glyph>
<glyph name="o" format="2">
  <advance width="605"/>
  <unicode hex="006F"/>
  <anchor x="303" y="0" name="bottom"/>
  <anchor x="303" y="251" name="center"/>
  <anchor x="543" y="10" name="ogonek"/>
  <anchor x="304" y="502" name="top"/>
  <anchor x="583" y="502" name="topright"/>
  <outline>
    <contour>
      <point x="304" y="-11" type="curve" smooth="yes"/>
      <point x="454" y="-11"/>
      <point x="562" y="106"/>
      <point x="562" y="252" type="curve" smooth="yes"/>
      <point x="562" y="400"/>
      <point x="451" y="514"/>
      <point x="304" y="514" type="curve" smooth="yes"/>
      <point x="158" y="514"/>
      <point x="43" y="400"/>
      <point x="43" y="252" type="curve" smooth="yes"/>
      <point x="43" y="106"/>
      <point x="154" y="-11"/>
    </contour>
    <contour>
      <point x="304" y="482" type="curve" smooth="yes"/>
      <point x="401" y="482"/>
      <point x="459" y="387"/>
      <point x="459" y="253" type="curve" smooth="yes"/>
      <point x="459" y="123"/>
      <point x="401" y="20"/>
      <point x="304" y="20" type="curve" smooth="yes"/>
      <point x="207" y="20"/>
      <point x="146" y="123"/>
      <point x="146" y="253" type="curve" smooth="yes"/>
      <point x="146" y="387"/>
      <point x="208" y="482"/>
    </contour>
  </outline>
</glyph>
<glyph name="p" format="2">
  <advance width="642.125"/>
  <unicode hex="0070"/>
  <outline>
    <contour>
      <point x="204" y="385" type="line"/>
      <point x="251" y="431"/>
      <point x="299" y="459"/>
      <point x="344" y="459" type="curve" smooth="yes"/>
      <point x="434" y="459"/>
      <point x="509" y="383"/>
      <point x="509" y="249" type="curve" smooth="yes"/>
      <point x="509" y="120"/>
      <point x="442" y="32"/>
      <point x="341" y="32" type="curve" smooth="yes"/>
      <point x="278" y="32"/>
      <point x="238" y="65"/>
      <point x="205" y="92" type="curve"/>
      <point x="137" y="48" type="line"/>
      <point x="170" y="29"/>
      <point x="225" y="-6"/>
      <point x="322" y="-6" type="curve" smooth="yes"/>
      <point x="478" y="-6"/>
      <point x="599" y="109"/>
      <point x="599" y="282" type="curve" smooth="yes"/>
      <point x="599" y="434"/>
      <point x="496" y="513"/>
      <point x="382" y="513" type="curve" smooth="yes"/>
      <point x="307" y="513"/>
      <point x="248" y="463"/>
      <point x="204" y="426" type="curve"/>
    </contour>
    <contour>
      <point x="18" y="442" type="line"/>
      <point x="93" y="461"/>
      <point x="114" y="469"/>
      <point x="114" y="406" type="curve" smooth="yes"/>
      <point x="114" y="-170" type="line" smooth="yes"/>
      <point x="114" y="-218"/>
      <point x="91" y="-219"/>
      <point x="27" y="-221" type="curve"/>
      <point x="27" y="-240" type="line"/>
      <point x="337" y="-240" type="line"/>
      <point x="337" y="-221" type="line"/>
      <point x="244" y="-219"/>
      <point x="208" y="-218"/>
      <point x="208" y="-170" type="curve" smooth="yes"/>
      <point x="208" y="514" type="line"/>
      <point x="18" y="463" type="line"/>
    </contour>
  </outline>
</glyph>
<glyph name="q" format="2">
  <advance width="606.875"/>
  <unicode hex="0071"/>
  <outline>
    <contour>
      <point x="43" y="241" type="curve" smooth="yes"/>
      <point x="43" y="88"/>
      <point x="144" y="-9"/>
      <point x="261" y="-9" type="curve" smooth="yes"/>
      <point x="340" y="-9"/>
      <point x="400" y="46"/>
      <point x="429" y="74" type="curve"/>
      <point x="429" y="-174" type="line" smooth="yes"/>
      <point x="429" y="-223"/>
      <point x="392" y="-219"/>
      <point x="303" y="-221" type="curve"/>
      <point x="303" y="-240" type="line"/>
      <point x="609" y="-240" type="line"/>
      <point x="609" y="-221" type="line"/>
      <point x="558" y="-219"/>
      <point x="523" y="-223"/>
      <point x="523" y="-174" type="curve" smooth="yes"/>
      <point x="523" y="513" type="line"/>
      <point x="512" y="513" type="line"/>
      <point x="478" y="472" type="line"/>
      <point x="423" y="498"/>
      <point x="376" y="514"/>
      <point x="322" y="514" type="curve" smooth="yes"/>
      <point x="153" y="514"/>
      <point x="43" y="402"/>
    </contour>
    <contour>
      <point x="132" y="279" type="curve" smooth="yes"/>
      <point x="132" y="401"/>
      <point x="196" y="479"/>
      <point x="297" y="479" type="curve" smooth="yes"/>
      <point x="341" y="479"/>
      <point x="393" y="456"/>
      <point x="429" y="419" type="curve"/>
      <point x="429" y="111" type="line"/>
      <point x="387" y="72"/>
      <point x="345" y="53"/>
      <point x="301" y="53" type="curve" smooth="yes"/>
      <point x="209" y="53"/>
      <point x="132" y="143"/>
    </contour>
  </outline>
</glyph>
<glyph name="r" format="2">
  <advance width="502.375"/>
  <unicode hex="0072"/>
  <anchor x="159" y="0" name="bottom"/>
  <anchor x="252" y="502" name="top"/>
  <outline>
    <contour>
      <point x="436" y="307" type="line"/>
      <point x="486" y="433" type="line"/>
      <point x="467" y="478"/>
      <point x="422" y="513"/>
      <point x="367" y="513" type="curve" smooth="yes"/>
      <point x="305" y="513"/>
      <point x="233" y="419"/>
      <point x="204" y="384" type="curve"/>
      <point x="204" y="347" type="line"/>
      <point x="248" y="401"/>
      <point x="301" y="460"/>
      <point x="338" y="460" type="curve" smooth="yes"/>
      <point x="388" y="460"/>
      <point x="427" y="419"/>
      <point x="420" y="307" type="curve"/>
    </contour>
    <contour>
      <point x="21" y="441" type="line"/>
      <point x="77" y="457"/>
      <point x="111" y="471"/>
      <point x="111" y="415" type="curve" smooth="yes"/>
      <point x="111" y="59" type="line" smooth="yes"/>
      <point x="111" y="18"/>
      <point x="92" y="20"/>
      <point x="24" y="19" type="curve"/>
      <point x="24" y="0" type="line"/>
      <point x="351" y="0" type="line"/>
      <point x="351" y="19" type="line"/>
      <point x="237" y="20"/>
      <point x="206" y="16"/>
      <point x="206" y="63" type="curve" smooth="yes"/>
      <point x="206" y="512" type="line"/>
      <point x="21" y="461" type="line"/>
    </contour>
  </outline>
</glyph>
<glyph name="s" format="2">
  <advance width="490.375"/>
  <unicode hex="0073"/>
  <anchor x="242" y="0" name="bottom"/>
  <anchor x="242" y="502" name="top"/>
  <outline>
    <contour>
      <point x="427" y="464" type="line"/>
      <point x="394" y="486"/>
      <point x="319" y="514"/>
      <point x="241" y="514" type="curve" smooth="yes"/>
      <point x="130" y="514"/>
      <point x="52" y="466"/>
      <point x="52" y="377" type="curve" smooth="yes"/>
      <point x="52" y="298"/>
      <point x="107" y="261"/>
      <point x="177" y="234" type="curve" smooth="yes"/>
      <point x="257" y="203" type="line" smooth="yes"/>
      <point x="330" y="175"/>
      <point x="362" y="153"/>
      <point x="362" y="110" type="curve" smooth="yes"/>
      <point x="362" y="64"/>
      <point x="319" y="18"/>
      <point x="246" y="18" type="curve" smooth="yes"/>
      <point x="166" y="18"/>
      <point x="92" y="77"/>
      <point x="79" y="192" type="curve"/>
      <point x="61" y="192" type="line"/>
      <point x="51" y="47" type="line"/>
      <point x="85" y="21"/>
      <point x="163" y="-11"/>
      <point x="243" y="-11" type="curve" smooth="yes"/>
      <point x="355" y="-11"/>
      <point x="443" y="52"/>
      <point x="443" y="140" type="curve" smooth="yes"/>
      <point x="443" y="210"/>
      <point x="401" y="243"/>
      <point x="313" y="276" type="curve" smooth="yes"/>
      <point x="225" y="308" type="line" smooth="yes"/>
      <point x="169" y="329"/>
      <point x="134" y="353"/>
      <point x="134" y="403" type="curve" smooth="yes"/>
      <point x="134" y="450"/>
      <point x="171" y="487"/>
      <point x="236" y="487" type="curve" smooth="yes"/>
      <point x="313" y="487"/>
      <point x="378" y="441"/>
      <point x="386" y="328" type="curve"/>
      <point x="403" y="328" type="line"/>
    </contour>
  </outline>
</glyph>
<glyph name="t" format="2">
  <advance width="396.375"/>
  <unicode hex="0074"/>
  <anchor x="235" y="0" name="bottom"/>
  <anchor x="199" y="251" name="center"/>
  <anchor x="199" y="502" name="top"/>
  <anchor x="376" y="598" name="topright"/>
  <outline>
    <contour>
      <point x="359" y="93" type="line"/>
      <point x="323" y="53"/>
      <point x="300" y="39"/>
      <point x="264" y="39" type="curve" smooth="yes"/>
      <point x="227" y="39"/>
      <point x="195" y="68"/>
      <point x="195" y="128" type="curve" smooth="yes"/>
      <point x="195" y="477" type="line"/>
      <point x="354" y="477" type="line"/>
      <point x="354" y="502" type="line"/>
      <point x="194" y="502" type="line"/>
      <point x="194" y="630" type="line"/>
      <point x="175" y="630" type="line"/>
      <point x="161" y="566"/>
      <point x="108" y="512"/>
      <point x="29" y="501" type="curve"/>
      <point x="29" y="477" type="line"/>
      <point x="101" y="477" type="line"/>
      <point x="101" y="111" type="line" smooth="yes"/>
      <point x="101" y="29"/>
      <point x="161" y="-11"/>
      <point x="225" y="-11" type="curve" smooth="yes"/>
      <point x="296" y="-11"/>
      <point x="337" y="31"/>
      <point x="375" y="79" type="curve"/>
    </contour>
  </outline>
</glyph>
<glyph name="u" format="2">
  <advance width="659.875"/>
  <unicode hex="0075"/>
  <anchor x="334" y="0" name="bottom"/>
  <anchor x="563" y="0" name="ogonek"/>
  <anchor x="320" y="502" name="top"/>
  <anchor x="637" y="502" name="topright"/>
  <outline>
    <contour>
      <point x="12" y="443" type="line"/>
      <point x="82" y="461"/>
      <point x="108" y="473"/>
      <point x="108" y="418" type="curve" smooth="yes"/>
      <point x="108" y="148" type="line" smooth="yes"/>
      <point x="108" y="54"/>
      <point x="170" y="-11"/>
      <point x="267" y="-11" type="curve" smooth="yes"/>
      <point x="332" y="-11"/>
      <point x="400" y="50"/>
      <point x="448" y="93" type="curve"/>
      <point x="448" y="0" type="line"/>
      <point x="643" y="0" type="line"/>
      <point x="643" y="19" type="line"/>
      <point x="570" y="21"/>
      <point x="542" y="18"/>
      <point x="542" y="89" type="curve" smooth="yes"/>
      <point x="542" y="514" type="line"/>
      <point x="352" y="463" type="line"/>
      <point x="352" y="443" type="line"/>
      <point x="426" y="463"/>
      <point x="448" y="473"/>
      <point x="448" y="418" type="curve" smooth="yes"/>
      <point x="448" y="127" type="line"/>
      <point x="419" y="96"/>
      <point x="358" y="45"/>
      <point x="304" y="45" type="curve" smooth="yes"/>
      <point x="243" y="45"/>
      <point x="203" y="91"/>
      <point x="203" y="177" type="curve" smooth="yes"/>
      <point x="203" y="514" type="line"/>
      <point x="12" y="463" type="line"/>
    </contour>
  </outline>
</glyph>
<glyph name="v" format="2">
  <advance width="530.875"/>
  <unicode hex="0076"/>
  <outline>
    <contour>
      <point x="-30" y="483" type="curve"/>
      <point x="-30" y="502" type="line"/>
      <point x="227" y="502" type="line"/>
      <point x="227" y="483" type="line"/>
      <point x="155" y="482"/>
      <point x="140" y="481"/>
      <point x="162" y="429" type="curve" smooth="yes"/>
      <point x="295" y="111" type="line"/>
      <point x="419" y="421" type="line" smooth="yes"/>
      <point x="444" y="484"/>
      <point x="394" y="485"/>
      <point x="341" y="483" type="curve"/>
      <point x="341" y="502" type="line"/>
      <point x="558" y="502" type="line"/>
      <point x="558" y="483" type="line"/>
      <point x="510" y="482"/>
      <point x="484" y="487"/>
      <point x="459" y="433" type="curve" smooth="yes"/>
      <point x="285" y="0" type="line"/>
      <point x="252" y="0" type="line"/>
      <point x="64" y="435" type="line" smooth="yes"/>
      <point x="44" y="482"/>
      <point x="40" y="481"/>
    </contour>
  </outline>
</glyph>
<glyph name="w" format="2">
  <advance width="784.125"/>
  <unicode hex="0077"/>
  <anchor x="392" y="0" name="bottom"/>
  <anchor x="392" y="502" name="top"/>
  <outline>
    <contour>
      <point x="266" y="483" type="line"/>
      <point x="332" y="482"/>
      <point x="335" y="481"/>
      <point x="351" y="443" type="curve" smooth="yes"/>
      <point x="533" y="0" type="line"/>
      <point x="564" y="0" type="line"/>
      <point x="722" y="437" type="line" smooth="yes"/>
      <point x="740" y="488"/>
      <point x="772" y="482"/>
      <point x="820" y="483" type="curve"/>
      <point x="820" y="502" type="line"/>
      <point x="618" y="502" type="line"/>
      <point x="618" y="483" type="line"/>
      <point x="674" y="483"/>
      <point x="708" y="486"/>
      <point x="686" y="427" type="curve" smooth="yes"/>
      <point x="573" y="127" type="line"/>
      <point x="442" y="447" type="line" smooth="yes"/>
      <point x="427" y="482"/>
      <point x="448" y="482"/>
      <point x="518" y="483" type="curve"/>
      <point x="518" y="502" type="line"/>
      <point x="266" y="502" type="line"/>
    </contour>
    <contour>
      <point x="389" y="387" type="line"/>
      <point x="288" y="127" type="line"/>
      <point x="150" y="443" type="line" smooth="yes"/>
      <point x="133" y="483"/>
      <point x="156" y="482"/>
      <point x="218" y="483" type="curve"/>
      <point x="218" y="502" type="line"/>
      <point x="-33" y="502" type="line"/>
      <point x="-33" y="483" type="line"/>
      <point x="37" y="481"/>
      <point x="41" y="481"/>
      <point x="61" y="435" type="curve" smooth="yes"/>
      <point x="247" y="0" type="line"/>
      <point x="277" y="0" type="line"/>
      <point x="420" y="386" type="line"/>
    </contour>
  </outline>
</glyph>
<glyph name="x" format="2">
  <advance width="564.25"/>
  <unicode hex="0078"/>
  <outline>
    <contour>
      <point x="-9" y="483" type="line"/>
      <point x="56" y="481"/>
      <point x="71" y="475"/>
      <point x="101" y="434" type="curve" smooth="yes"/>
      <point x="359" y="76" type="line" smooth="yes"/>
      <point x="394" y="26"/>
      <point x="379" y="20"/>
      <point x="299" y="19" type="curve"/>
      <point x="299" y="0" type="line"/>
      <point x="581" y="0" type="line"/>
      <point x="581" y="19" type="line"/>
      <point x="509" y="21"/>
      <point x="485" y="53"/>
      <point x="448" y="105" type="curve" smooth="yes"/>
      <point x="202" y="449" type="line" smooth="yes"/>
      <point x="177" y="483"/>
      <point x="195" y="482"/>
      <point x="256" y="483" type="curve"/>
      <point x="256" y="502" type="line"/>
      <point x="-9" y="502" type="line"/>
    </contour>
    <contour>
      <point x="-4" y="0" type="line"/>
      <point x="211" y="0" type="line"/>
      <point x="211" y="19" type="line"/>
      <point x="157" y="17"/>
      <point x="105" y="22"/>
      <point x="152" y="78" type="curve" smooth="yes"/>
      <point x="293" y="248" type="line"/>
      <point x="267" y="265" type="line"/>
      <point x="107" y="69" type="line" smooth="yes"/>
      <point x="64" y="16"/>
      <point x="42" y="20"/>
      <point x="-4" y="19" type="curve"/>
    </contour>
    <contour>
      <point x="272" y="265" type="line"/>
      <point x="301" y="250" type="line"/>
      <point x="435" y="418" type="line" smooth="yes"/>
      <point x="484" y="480"/>
      <point x="498" y="482"/>
      <point x="562" y="483" type="curve"/>
      <point x="562" y="502" type="line"/>
      <point x="333" y="502" type="line"/>
      <point x="333" y="483" type="line"/>
      <point x="395" y="485"/>
      <point x="450" y="482"/>
      <point x="406" y="427" type="curve" smooth="yes"/>
    </contour>
  </outline>
</glyph>
<glyph name="y" format="2">
  <advance width="518.75"/>
  <unicode hex="0079"/>
  <anchor x="261" y="0" name="bottom"/>
  <anchor x="276" y="502" name="top"/>
  <outline>
    <contour>
      <point x="-41" y="483" type="curve"/>
      <point x="-41" y="502" type="line"/>
      <point x="227" y="502" type="line"/>
      <point x="227" y="483" type="line"/>
      <point x="155" y="482"/>
      <point x="125" y="480"/>
      <point x="151" y="428" type="curve" smooth="yes"/>
      <point x="289" y="144" type="line"/>
      <point x="416" y="432" type="line" smooth="yes"/>
      <point x="439" y="486"/>
      <point x="405" y="485"/>
      <point x="340" y="483" type="curve"/>
      <point x="340" y="502" type="line"/>
      <point x="554" y="502" type="line"/>
      <point x="554" y="483" type="line"/>
      <point x="493" y="482"/>
      <point x="480" y="487"/>
      <point x="458" y="436" type="curve" smooth="yes"/>
      <point x="157" y="-240" type="line"/>
      <point x="103" y="-215" type="line"/>
      <point x="241" y="40" type="line"/>
      <point x="42" y="448" type="line" smooth="yes"/>
      <point x="25" y="480"/>
      <point x="18" y="482"/>
    </contour>
  </outline>
</glyph>
<glyph name="z" format="2">
  <advance width="523.75"/>
  <unicode hex="007A"/>
  <anchor x="265" y="0" name="bottom"/>
  <anchor x="265" y="251" name="center"/>
  <anchor x="265" y="502" name="top"/>
  <outline>
    <contour>
      <point x="54" y="0" type="line"/>
      <point x="44" y="18" type="line"/>
      <point x="367" y="477" type="line"/>
      <point x="187" y="477" type="line" smooth="yes"/>
      <point x="126" y="477"/>
      <point x="94" y="421"/>
      <point x="75" y="334" type="curve"/>
      <point x="55" y="334" type="line"/>
      <point x="74" y="502" type="line"/>
      <point x="477" y="502" type="line"/>
      <point x="487" y="484" type="line"/>
      <point x="163" y="26" type="line"/>
      <point x="370" y="26" type="line" smooth="yes"/>
      <point x="438" y="26"/>
      <point x="454" y="98"/>
      <point x="470" y="165" type="curve"/>
      <point x="489" y="165" type="line"/>
      <point x="469" y="0" type="line"/>
    </contour>
  </outline>
</glyph>
<glyph name="braceleft" format="2">
  <advance width="393.25"/>
  <unicode hex="007B"/>
  <outline>
    <contour>
      <point x="251" y="4" type="curve" smooth="yes"/>
      <point x="251" y="198"/>
      <point x="207" y="251"/>
      <point x="90" y="276" type="curve"/>
      <point x="90" y="264" type="line"/>
      <point x="206" y="291"/>
      <point x="251" y="322"/>
      <point x="251" y="518" type="curve" smooth="yes"/>
      <point x="251" y="638"/>
      <point x="244" y="687"/>
      <point x="350" y="729" type="curve"/>
      <point x="344" y="743" type="line"/>
      <point x="144" y="693"/>
      <point x="155" y="580"/>
      <point x="155" y="470" type="curve" smooth="yes"/>
      <point x="155" y="350"/>
      <point x="154" y="322"/>
      <point x="126" y="299" type="curve" smooth="yes"/>
      <point x="108" y="285"/>
      <point x="74" y="278"/>
      <point x="53" y="274" type="curve"/>
      <point x="53" y="265" type="line"/>
      <point x="74" y="262"/>
      <point x="108" y="256"/>
      <point x="125" y="240" type="curve" smooth="yes"/>
      <point x="163" y="205"/>
      <point x="155" y="133"/>
      <point x="155" y="33" type="curve" smooth="yes"/>
      <point x="155" y="-37"/>
      <point x="166" y="-175"/>
      <point x="344" y="-220" type="curve"/>
      <point x="350" y="-206" type="line"/>
      <point x="290" y="-177"/>
      <point x="251" y="-145"/>
    </contour>
  </outline>
</glyph>
<glyph name="bar" format="2">
  <advance width="194.75"/>
  <unicode hex="007C"/>
  <outline>
    <contour>
      <point x="76" y="716" type="line"/>
      <point x="76" y="-132" type="line"/>
      <point x="119" y="-132" type="line"/>
      <point x="119" y="716" type="line"/>
    </contour>
  </outline>
</glyph>
<glyph name="asciitilde" format="2">
  <advance width="462.375"/>
  <unicode hex="007E"/>
  <outline>
    <contour>
      <point x="332" y="239" type="curve" smooth="yes"/>
      <point x="282" y="239"/>
      <point x="171" y="306"/>
      <point x="126" y="306" type="curve" smooth="yes"/>
      <point x="107" y="306"/>
      <point x="87" y="281"/>
      <point x="60" y="245" type="curve"/>
      <point x="42" y="255" type="line"/>
      <point x="80" y="319"/>
      <point x="114" y="379"/>
      <point x="137" y="379" type="curve" smooth="yes"/>
      <point x="181" y="379"/>
      <point x="290" y="312"/>
      <point x="342" y="312" type="curve" smooth="yes"/>
      <point x="358" y="312"/>
      <point x="375" y="330"/>
      <point x="403" y="378" type="curve"/>
      <point x="421" y="370" type="line"/>
      <point x="391" y="304"/>
      <point x="363" y="239"/>
    </contour>
  </outline>
</glyph>
<glyph name="cent" format="2">
  <advance width="539"/>
  <unicode hex="00A2"/>
  <outline>
    <component base="c" xScale="0.9816" yScale="0.9816" xOffset="1" yOffset="4" identifier="342C5533"/>
    <contour>
      <point x="255" y="636" type="line"/>
      <point x="255" y="500" type="line"/>
      <point x="299" y="500" type="line"/>
      <point x="299" y="636" type="line"/>
    </contour>
    <contour>
      <point x="255" y="2" type="line"/>
      <point x="255" y="-138" type="line"/>
      <point x="299" y="-138" type="line"/>
      <point x="299" y="2" type="line"/>
    </contour>
  </outline>
</glyph>
<glyph name="sterling" format="2">
  <advance width="602"/>
  <unicode hex="00A3"/>
  <outline>
    <contour>
      <point x="203" y="570" type="curve" smooth="yes"/>
      <point x="203" y="632"/>
      <point x="246" y="685"/>
      <point x="330" y="685" type="curve" smooth="yes"/>
      <point x="402" y="685"/>
      <point x="488" y="637"/>
      <point x="493" y="459" type="curve"/>
      <point x="514" y="459" type="line"/>
      <point x="550" y="619" type="line"/>
      <point x="513" y="663"/>
      <point x="437" y="717"/>
      <point x="330" y="717" type="curve" smooth="yes"/>
      <point x="234" y="717"/>
      <point x="107" y="668"/>
      <point x="105" y="548" type="curve" smooth="yes"/>
      <point x="103" y="429"/>
      <point x="192" y="348"/>
      <point x="192" y="237" type="curve" smooth="yes"/>
      <point x="192" y="170"/>
      <point x="138" y="77"/>
      <point x="62" y="29" type="curve"/>
      <point x="71" y="0" type="line"/>
      <point x="510" y="0" type="line"/>
      <point x="559" y="215" type="line"/>
      <point x="533" y="215" type="line"/>
      <point x="495" y="81"/>
      <point x="468" y="47"/>
      <point x="389" y="46" type="curve" smooth="yes"/>
      <point x="140" y="44" type="line"/>
      <point x="161" y="54"/>
      <point x="289" y="147"/>
      <point x="289" y="291" type="curve" smooth="yes"/>
      <point x="289" y="392"/>
      <point x="203" y="467"/>
    </contour>
    <contour>
      <point x="450" y="387" type="line"/>
      <point x="39" y="386" type="line"/>
      <point x="39" y="349" type="line"/>
      <point x="441" y="349" type="line"/>
    </contour>
    <contour>
      <point x="449" y="288" type="line"/>
      <point x="38" y="287" type="line"/>
      <point x="38" y="249" type="line"/>
      <point x="440" y="249" type="line"/>
    </contour>
  </outline>
</glyph>
<glyph name="currency" format="2">
  <advance width="600"/>
  <unicode hex="00A4"/>
  <outline>
    <contour>
      <point x="299" y="120" type="curve" smooth="yes"/>
      <point x="411" y="120"/>
      <point x="495" y="204"/>
      <point x="495" y="317" type="curve" smooth="yes"/>
      <point x="495" y="429"/>
      <point x="411" y="513"/>
      <point x="299" y="513" type="curve" smooth="yes"/>
      <point x="187" y="513"/>
      <point x="103" y="429"/>
      <point x="103" y="317" type="curve" smooth="yes"/>
      <point x="103" y="204"/>
      <point x="187" y="120"/>
    </contour>
    <contour>
      <point x="299" y="168" type="curve" smooth="yes"/>
      <point x="214" y="168"/>
      <point x="152" y="232"/>
      <point x="152" y="317" type="curve" smooth="yes"/>
      <point x="152" y="402"/>
      <point x="214" y="465"/>
      <point x="299" y="465" type="curve" smooth="yes"/>
      <point x="384" y="465"/>
      <point x="446" y="402"/>
      <point x="446" y="317" type="curve" smooth="yes"/>
      <point x="446" y="232"/>
      <point x="384" y="168"/>
    </contour>
    <contour>
      <point x="59" y="518" type="line"/>
      <point x="162" y="414" type="line"/>
      <point x="192" y="444" type="line"/>
      <point x="89" y="549" type="line"/>
    </contour>
    <contour>
      <point x="538" y="517" type="line"/>
      <point x="508" y="547" type="line"/>
      <point x="405" y="443" type="line"/>
      <point x="435" y="412" type="line"/>
    </contour>
    <contour>
      <point x="61" y="115" type="line"/>
      <point x="91" y="84" type="line"/>
      <point x="194" y="188" type="line"/>
      <point x="164" y="219" type="line"/>
    </contour>
    <contour>
      <point x="540" y="116" type="line"/>
      <point x="436" y="221" type="line"/>
      <point x="407" y="190" type="line"/>
      <point x="510" y="86" type="line"/>
    </contour>
  </outline>
</glyph>
<glyph name="yen" format="2">
  <advance width="606"/>
  <unicode hex="00A5"/>
  <outline>
    <contour>
      <point x="466" y="309" type="line"/>
      <point x="156" y="308" type="line"/>
      <point x="156" y="271" type="line"/>
      <point x="466" y="271" type="line"/>
    </contour>
    <contour>
      <point x="466" y="216" type="line"/>
      <point x="155" y="215" type="line"/>
      <point x="155" y="177" type="line"/>
      <point x="466" y="177" type="line"/>
    </contour>
    <contour>
      <point x="-49" y="683" type="line"/>
      <point x="0" y="683" type="line" smooth="yes"/>
      <point x="41" y="683"/>
      <point x="52" y="661"/>
      <point x="85" y="605" type="curve" smooth="yes"/>
      <point x="266" y="302" type="line"/>
      <point x="266" y="63" type="line" smooth="yes"/>
      <point x="266" y="15"/>
      <point x="229" y="21"/>
      <point x="164" y="19" type="curve"/>
      <point x="164" y="0" type="line"/>
      <point x="465" y="0" type="line"/>
      <point x="465" y="19" type="line"/>
      <point x="400" y="21"/>
      <point x="365" y="15"/>
      <point x="365" y="63" type="curve" smooth="yes"/>
      <point x="365" y="308" type="line"/>
      <point x="531" y="621" type="line" smooth="yes"/>
      <point x="551" y="660"/>
      <point x="559" y="683"/>
      <point x="608" y="683" type="curve" smooth="yes"/>
      <point x="651" y="683" type="line"/>
      <point x="651" y="702" type="line"/>
      <point x="398" y="702" type="line"/>
      <point x="398" y="683" type="line"/>
      <point x="468" y="683" type="line" smooth="yes"/>
      <point x="515" y="683"/>
      <point x="513" y="664"/>
      <point x="478" y="601" type="curve" smooth="yes"/>
      <point x="343" y="351" type="line"/>
      <point x="175" y="630" type="line" smooth="yes"/>
      <point x="152" y="669"/>
      <point x="160" y="683"/>
      <point x="203" y="683" type="curve" smooth="yes"/>
      <point x="273" y="683" type="line"/>
      <point x="273" y="702" type="line"/>
      <point x="-49" y="702" type="line"/>
    </contour>
  </outline>
</glyph>
<glyph name="brokenbar" format="2">
  <advance width="194.75"/>
  <unicode hex="00A6"/>
  <outline>
    <contour>
      <point x="76" y="716" type="line"/>
      <point x="76" y="348" type="line"/>
      <point x="119" y="348" type="line"/>
      <point x="119" y="716" type="line"/>
    </contour>
    <contour>
      <point x="76" y="235" type="line"/>
      <point x="76" y="-132" type="line"/>
      <point x="119" y="-132" type="line"/>
      <point x="119" y="235" type="line"/>
    </contour>
  </outline>
</glyph>
<glyph name="section" format="2">
  <advance width="535"/>
  <unicode hex="00A7"/>
  <outline>
    <contour>
      <point x="80" y="65" type="line"/>
      <point x="69" y="-78" type="line"/>
      <point x="103" y="-104"/>
      <point x="183" y="-138"/>
      <point x="262" y="-138" type="curve" smooth="yes"/>
      <point x="374" y="-138"/>
      <point x="462" y="-76"/>
      <point x="462" y="11" type="curve" smooth="yes"/>
      <point x="462" y="81"/>
      <point x="419" y="109"/>
      <point x="323" y="147" type="curve" smooth="yes"/>
      <point x="254" y="172" type="line" smooth="yes"/>
      <point x="189" y="197"/>
      <point x="153" y="225"/>
      <point x="153" y="274" type="curve" smooth="yes"/>
      <point x="153" y="320"/>
      <point x="190" y="357"/>
      <point x="255" y="357" type="curve"/>
      <point x="249" y="384" type="line"/>
      <point x="144" y="380"/>
      <point x="69" y="333"/>
      <point x="69" y="248" type="curve" smooth="yes"/>
      <point x="69" y="167"/>
      <point x="134" y="129"/>
      <point x="212" y="97" type="curve" smooth="yes"/>
      <point x="264" y="77" type="line" smooth="yes"/>
      <point x="348" y="42"/>
      <point x="380" y="25"/>
      <point x="380" y="-17" type="curve" smooth="yes"/>
      <point x="380" y="-64"/>
      <point x="338" y="-110"/>
      <point x="264" y="-110" type="curve" smooth="yes"/>
      <point x="185" y="-110"/>
      <point x="110" y="-48"/>
      <point x="97" y="65" type="curve"/>
    </contour>
    <contour>
      <point x="410" y="455" type="curve"/>
      <point x="427" y="455" type="line"/>
      <point x="450" y="589" type="line"/>
      <point x="418" y="612"/>
      <point x="342" y="639"/>
      <point x="265" y="639" type="curve" smooth="yes"/>
      <point x="154" y="639"/>
      <point x="75" y="591"/>
      <point x="75" y="507" type="curve" smooth="yes"/>
      <point x="75" y="424"/>
      <point x="142" y="392"/>
      <point x="223" y="356" type="curve" smooth="yes"/>
      <point x="268" y="339" type="line" smooth="yes"/>
      <point x="330" y="312"/>
      <point x="385" y="289"/>
      <point x="385" y="239" type="curve" smooth="yes"/>
      <point x="385" y="199"/>
      <point x="344" y="153"/>
      <point x="272" y="152" type="curve"/>
      <point x="297" y="127" type="line"/>
      <point x="393" y="137"/>
      <point x="467" y="188"/>
      <point x="467" y="267" type="curve" smooth="yes"/>
      <point x="467" y="338"/>
      <point x="424" y="369"/>
      <point x="325" y="408" type="curve" smooth="yes"/>
      <point x="264" y="430" type="line" smooth="yes"/>
      <point x="196" y="458"/>
      <point x="158" y="481"/>
      <point x="158" y="531" type="curve" smooth="yes"/>
      <point x="158" y="576"/>
      <point x="195" y="613"/>
      <point x="260" y="613" type="curve" smooth="yes"/>
      <point x="337" y="613"/>
      <point x="401" y="567"/>
    </contour>
  </outline>
</glyph>
<glyph name="copyright" format="2">
  <advance width="866.5"/>
  <unicode hex="00A9"/>
  <outline>
    <contour>
      <point x="433" y="674" type="curve" smooth="yes"/>
      <point x="620" y="674"/>
      <point x="757" y="537"/>
      <point x="757" y="347" type="curve" smooth="yes"/>
      <point x="757" y="156"/>
      <point x="620" y="21"/>
      <point x="433" y="21" type="curve" smooth="yes"/>
      <point x="246" y="21"/>
      <point x="111" y="157"/>
      <point x="111" y="347" type="curve" smooth="yes"/>
      <point x="111" y="537"/>
      <point x="246" y="674"/>
    </contour>
    <contour>
      <point x="443" y="558" type="curve" smooth="yes"/>
      <point x="505" y="558"/>
      <point x="550" y="537"/>
      <point x="596" y="507" type="curve"/>
      <point x="586" y="404" type="line"/>
      <point x="566" y="404" type="line"/>
      <point x="548" y="479"/>
      <point x="505" y="524"/>
      <point x="439" y="524" type="curve" smooth="yes"/>
      <point x="349" y="524"/>
      <point x="319" y="445"/>
      <point x="319" y="377" type="curve" smooth="yes"/>
      <point x="319" y="272"/>
      <point x="378" y="198"/>
      <point x="463" y="198" type="curve" smooth="yes"/>
      <point x="521" y="198"/>
      <point x="559" y="230"/>
      <point x="586" y="288" type="curve"/>
      <point x="607" y="283" type="line"/>
      <point x="587" y="216"/>
      <point x="534" y="144"/>
      <point x="438" y="144" type="curve" smooth="yes"/>
      <point x="315" y="144"/>
      <point x="237" y="237"/>
      <point x="237" y="347" type="curve" smooth="yes"/>
      <point x="237" y="461"/>
      <point x="316" y="558"/>
    </contour>
    <contour>
      <point x="433" y="723" type="curve" smooth="yes"/>
      <point x="218" y="723"/>
      <point x="53" y="566"/>
      <point x="53" y="347" type="curve" smooth="yes"/>
      <point x="53" y="128"/>
      <point x="218" y="-28"/>
      <point x="433" y="-28" type="curve" smooth="yes"/>
      <point x="647" y="-28"/>
      <point x="813" y="128"/>
      <point x="813" y="347" type="curve" smooth="yes"/>
      <point x="813" y="566"/>
      <point x="647" y="723"/>
    </contour>
  </outline>
</glyph>
<glyph name="ordfeminine" format="2">
  <advance width="337.25"/>
  <unicode hex="00AA"/>
  <outline>
    <contour>
      <point x="176" y="451" type="line"/>
      <point x="296" y="451" type="line"/>
      <point x="296" y="468" type="line"/>
      <point x="267" y="468"/>
      <point x="240" y="469"/>
      <point x="240" y="506" type="curve"/>
      <point x="240" y="666" type="line" smooth="yes"/>
      <point x="240" y="728"/>
      <point x="188" y="771"/>
      <point x="116" y="771" type="curve" smooth="yes"/>
      <point x="20" y="771"/>
      <point x="-12" y="703"/>
      <point x="-12" y="659" type="curve"/>
      <point x="9" y="659" type="line"/>
      <point x="16" y="704"/>
      <point x="46" y="735"/>
      <point x="95" y="735" type="curve" smooth="yes"/>
      <point x="149" y="735"/>
      <point x="177" y="701"/>
      <point x="177" y="653" type="curve" smooth="yes"/>
    </contour>
    <contour>
      <point x="189" y="529" type="line"/>
      <point x="149" y="498"/>
      <point x="120" y="485"/>
      <point x="93" y="485" type="curve" smooth="yes"/>
      <point x="70" y="485"/>
      <point x="49" y="500"/>
      <point x="49" y="532" type="curve" smooth="yes"/>
      <point x="49" y="557"/>
      <point x="63" y="575"/>
      <point x="93" y="584" type="curve" smooth="yes"/>
      <point x="121" y="593"/>
      <point x="151" y="601"/>
      <point x="189" y="611" type="curve"/>
      <point x="189" y="634" type="line"/>
      <point x="158" y="627"/>
      <point x="131" y="620"/>
      <point x="97" y="612" type="curve" smooth="yes"/>
      <point x="36" y="596"/>
      <point x="-14" y="574"/>
      <point x="-14" y="520" type="curve" smooth="yes"/>
      <point x="-14" y="470"/>
      <point x="27" y="446"/>
      <point x="67" y="446" type="curve" smooth="yes"/>
      <point x="104" y="446"/>
      <point x="142" y="468"/>
      <point x="190" y="507" type="curve"/>
    </contour>
  </outline>
</glyph>
<glyph name="logicalnot" format="2">
  <advance width="598.125"/>
  <unicode hex="00AC"/>
  <outline>
    <contour>
      <point x="541" y="409" type="line"/>
      <point x="56" y="409" type="line"/>
      <point x="56" y="360" type="line"/>
      <point x="541" y="360" type="line"/>
    </contour>
    <contour>
      <point x="542" y="138" type="line"/>
      <point x="542" y="404" type="line"/>
      <point x="493" y="404" type="line"/>
      <point x="493" y="138" type="line"/>
    </contour>
  </outline>
</glyph>
<glyph name="registered" format="2">
  <advance width="590"/>
  <unicode hex="00AE"/>
  <outline>
    <contour>
      <point x="419" y="345" type="line" smooth="yes"/>
      <point x="385" y="348"/>
      <point x="346" y="433"/>
      <point x="328" y="468" type="curve"/>
      <point x="280" y="463" type="line"/>
      <point x="319" y="396"/>
      <point x="336" y="328"/>
      <point x="402" y="328" type="curve" smooth="yes"/>
      <point x="432" y="328" type="line"/>
      <point x="431" y="344" type="line"/>
    </contour>
    <contour>
      <point x="165" y="598" type="line"/>
      <point x="203" y="598"/>
      <point x="205" y="598"/>
      <point x="205" y="578" type="curve" smooth="yes"/>
      <point x="205" y="360" type="line" smooth="yes"/>
      <point x="205" y="342"/>
      <point x="188" y="345"/>
      <point x="165" y="345" type="curve"/>
      <point x="165" y="330" type="line"/>
      <point x="292" y="330" type="line"/>
      <point x="292" y="345" type="line"/>
      <point x="269" y="345"/>
      <point x="252" y="342"/>
      <point x="252" y="360" type="curve" smooth="yes"/>
      <point x="252" y="457" type="line"/>
      <point x="281" y="457" type="line" smooth="yes"/>
      <point x="358" y="457"/>
      <point x="398" y="494"/>
      <point x="398" y="540" type="curve" smooth="yes"/>
      <point x="398" y="586"/>
      <point x="352" y="613"/>
      <point x="295" y="613" type="curve" smooth="yes"/>
      <point x="165" y="613" type="line"/>
    </contour>
    <contour>
      <point x="252" y="481" type="line"/>
      <point x="252" y="591" type="line"/>
      <point x="276" y="591" type="line" smooth="yes"/>
      <point x="323" y="591"/>
      <point x="349" y="575"/>
      <point x="349" y="537" type="curve" smooth="yes"/>
      <point x="349" y="500"/>
      <point x="322" y="481"/>
      <point x="287" y="481" type="curve" smooth="yes"/>
    </contour>
    <contour>
      <point x="291" y="679" type="curve" smooth="yes"/>
      <point x="415" y="679"/>
      <point x="506" y="587"/>
      <point x="506" y="461" type="curve" smooth="yes"/>
      <point x="506" y="332"/>
      <point x="413" y="242"/>
      <point x="291" y="242" type="curve" smooth="yes"/>
      <point x="166" y="242"/>
      <point x="77" y="332"/>
      <point x="77" y="461" type="curve" smooth="yes"/>
      <point x="77" y="587"/>
      <point x="166" y="679"/>
    </contour>
    <contour>
      <point x="291" y="716" type="curve" smooth="yes"/>
      <point x="145" y="716"/>
      <point x="32" y="609"/>
      <point x="32" y="460" type="curve" smooth="yes"/>
      <point x="32" y="311"/>
      <point x="145" y="205"/>
      <point x="291" y="205" type="curve" smooth="yes"/>
      <point x="436" y="205"/>
      <point x="550" y="311"/>
      <point x="550" y="460" type="curve" smooth="yes"/>
      <point x="550" y="609"/>
      <point x="436" y="716"/>
    </contour>
  </outline>
</glyph>
<glyph name="degree" format="2">
  <advance width="204"/>
  <unicode hex="00B0"/>
  <outline>
    <contour>
      <point x="82" y="550" type="curve" smooth="yes"/>
      <point x="130" y="550"/>
      <point x="165" y="586"/>
      <point x="165" y="634" type="curve" smooth="yes"/>
      <point x="165" y="680"/>
      <point x="130" y="716"/>
      <point x="82" y="716" type="curve" smooth="yes"/>
      <point x="34" y="716"/>
      <point x="0" y="680"/>
      <point x="0" y="634" type="curve" smooth="yes"/>
      <point x="0" y="586"/>
      <point x="34" y="550"/>
    </contour>
    <contour>
      <point x="82" y="580" type="curve" smooth="yes"/>
      <point x="52" y="580"/>
      <point x="33" y="603"/>
      <point x="33" y="634" type="curve" smooth="yes"/>
      <point x="33" y="663"/>
      <point x="52" y="685"/>
      <point x="82" y="685" type="curve" smooth="yes"/>
      <point x="112" y="685"/>
      <point x="131" y="663"/>
      <point x="131" y="634" type="curve" smooth="yes"/>
      <point x="131" y="603"/>
      <point x="112" y="580"/>
    </contour>
  </outline>
</glyph>
<glyph name="plusminus" format="2">
  <advance width="585"/>
  <unicode hex="00B1"/>
  <outline>
    <contour>
      <point x="528" y="408" type="line"/>
      <point x="54" y="408" type="line"/>
      <point x="54" y="360" type="line"/>
      <point x="528" y="360" type="line"/>
    </contour>
    <contour>
      <point x="321" y="228" type="line"/>
      <point x="321" y="538" type="line"/>
      <point x="271" y="538" type="line"/>
      <point x="271" y="228" type="line"/>
    </contour>
    <contour>
      <point x="531" y="135" type="line"/>
      <point x="58" y="135" type="line"/>
      <point x="58" y="86" type="line"/>
      <point x="531" y="86" type="line"/>
    </contour>
  </outline>
</glyph>
<glyph name="twosuperior" format="2">
  <advance width="363.125"/>
  <unicode hex="00B2"/>
  <outline>
    <contour>
      <point x="60" y="593" type="curve"/>
      <point x="33" y="599" type="line"/>
      <point x="54" y="677"/>
      <point x="105" y="716"/>
      <point x="172" y="716" type="curve" smooth="yes"/>
      <point x="241" y="716"/>
      <point x="296" y="668"/>
      <point x="296" y="603" type="curve" smooth="yes"/>
      <point x="296" y="548"/>
      <point x="264" y="511"/>
      <point x="198" y="455" type="curve" smooth="yes"/>
      <point x="92" y="367" type="line"/>
      <point x="222" y="367" type="line" smooth="yes"/>
      <point x="263" y="367"/>
      <point x="273" y="385"/>
      <point x="287" y="438" type="curve"/>
      <point x="308" y="438" type="line"/>
      <point x="286" y="324" type="line"/>
      <point x="29" y="324" type="line"/>
      <point x="29" y="352" type="line"/>
      <point x="142" y="461" type="line" smooth="yes"/>
      <point x="197" y="513"/>
      <point x="228" y="552"/>
      <point x="228" y="599" type="curve" smooth="yes"/>
      <point x="228" y="649"/>
      <point x="197" y="677"/>
      <point x="157" y="677" type="curve" smooth="yes"/>
      <point x="119" y="677"/>
      <point x="86" y="657"/>
    </contour>
  </outline>
</glyph>
<glyph name="threesuperior" format="2">
  <advance width="334.625"/>
  <unicode hex="00B3"/>
  <outline>
    <contour>
      <point x="61" y="631" type="curve"/>
      <point x="44" y="644" type="line"/>
      <point x="64" y="680"/>
      <point x="104" y="716"/>
      <point x="164" y="716" type="curve" smooth="yes"/>
      <point x="220" y="716"/>
      <point x="260" y="683"/>
      <point x="260" y="637" type="curve" smooth="yes"/>
      <point x="260" y="570"/>
      <point x="176" y="545"/>
      <point x="129" y="535" type="curve"/>
      <point x="126" y="540" type="line"/>
      <point x="209" y="556"/>
      <point x="293" y="520"/>
      <point x="293" y="440" type="curve" smooth="yes"/>
      <point x="293" y="374"/>
      <point x="227" y="321"/>
      <point x="151" y="321" type="curve" smooth="yes"/>
      <point x="100" y="321"/>
      <point x="58" y="337"/>
      <point x="34" y="354" type="curve"/>
      <point x="50" y="449" type="line"/>
      <point x="67" y="449" type="line"/>
      <point x="69" y="377"/>
      <point x="108" y="349"/>
      <point x="150" y="349" type="curve" smooth="yes"/>
      <point x="197" y="349"/>
      <point x="222" y="381"/>
      <point x="222" y="429" type="curve" smooth="yes"/>
      <point x="222" y="492"/>
      <point x="176" y="529"/>
      <point x="87" y="516" type="curve"/>
      <point x="80" y="540" type="line"/>
      <point x="142" y="560"/>
      <point x="200" y="580"/>
      <point x="200" y="634" type="curve" smooth="yes"/>
      <point x="200" y="658"/>
      <point x="182" y="682"/>
      <point x="146" y="682" type="curve" smooth="yes"/>
      <point x="112" y="682"/>
      <point x="85" y="663"/>
    </contour>
  </outline>
</glyph>
<glyph name="micro" format="2">
  <advance width="657"/>
  <unicode hex="00B5"/>
  <outline>
    <contour>
      <point x="12" y="443" type="line"/>
      <point x="82" y="461"/>
      <point x="108" y="473"/>
      <point x="108" y="418" type="curve" smooth="yes"/>
      <point x="108" y="-238" type="line"/>
      <point x="201" y="-238" type="line"/>
      <point x="201" y="10" type="line"/>
      <point x="221" y="-2"/>
      <point x="244" y="-8"/>
      <point x="272" y="-8" type="curve" smooth="yes"/>
      <point x="338" y="-8"/>
      <point x="401" y="50"/>
      <point x="444" y="97" type="curve"/>
      <point x="444" y="0" type="line"/>
      <point x="640" y="0" type="line"/>
      <point x="640" y="19" type="line"/>
      <point x="567" y="21"/>
      <point x="539" y="18"/>
      <point x="539" y="89" type="curve" smooth="yes"/>
      <point x="539" y="514" type="line"/>
      <point x="349" y="463" type="line"/>
      <point x="349" y="443" type="line"/>
      <point x="422" y="463"/>
      <point x="444" y="473"/>
      <point x="444" y="418" type="curve" smooth="yes"/>
      <point x="444" y="131" type="line"/>
      <point x="415" y="100"/>
      <point x="354" y="50"/>
      <point x="297" y="50" type="curve" smooth="yes"/>
      <point x="241" y="50"/>
      <point x="204" y="83"/>
      <point x="201" y="158" type="curve" smooth="yes"/>
      <point x="201" y="514" type="line"/>
      <point x="12" y="463" type="line"/>
    </contour>
  </outline>
</glyph>
<glyph name="paragraph" format="2">
  <advance width="600"/>
  <unicode hex="00B6"/>
  <outline>
    <contour>
      <point x="372" y="702" type="line"/>
      <point x="372" y="-240" type="line"/>
      <point x="417" y="-240" type="line"/>
      <point x="417" y="636" type="line" smooth="yes"/>
      <point x="417" y="684"/>
      <point x="464" y="675"/>
      <point x="519" y="677" type="curve"/>
      <point x="519" y="702" type="line"/>
    </contour>
    <contour>
      <point x="258" y="702" type="line" smooth="yes"/>
      <point x="138" y="702"/>
      <point x="50" y="617"/>
      <point x="50" y="507" type="curve" smooth="yes"/>
      <point x="50" y="397"/>
      <point x="138" y="312"/>
      <point x="258" y="312" type="curve"/>
      <point x="258" y="-240" type="line"/>
      <point x="303" y="-240" type="line"/>
      <point x="303" y="702" type="line"/>
    </contour>
    <contour>
      <point x="284" y="702" type="line"/>
      <point x="284" y="672" type="line"/>
      <point x="431" y="672" type="line"/>
      <point x="431" y="702" type="line"/>
    </contour>
  </outline>
</glyph>
<glyph name="onesuperior" format="2">
  <advance width="295.75"/>
  <unicode hex="00B9"/>
  <outline>
    <contour>
      <point x="36" y="648" type="line"/>
      <point x="36" y="676" type="line"/>
      <point x="165" y="715" type="line"/>
      <point x="171" y="715" type="line"/>
      <point x="171" y="376" type="line" smooth="yes"/>
      <point x="171" y="347"/>
      <point x="197" y="347"/>
      <point x="248" y="344" type="curve"/>
      <point x="248" y="324" type="line"/>
      <point x="32" y="324" type="line"/>
      <point x="32" y="344" type="line"/>
      <point x="76" y="347"/>
      <point x="109" y="347"/>
      <point x="109" y="376" type="curve" smooth="yes"/>
      <point x="109" y="668" type="line"/>
    </contour>
  </outline>
</glyph>
<glyph name="ordmasculine" format="2">
  <advance width="510.875"/>
  <unicode hex="00BA"/>
  <outline>
    <contour>
      <point x="231" y="447" type="curve" smooth="yes"/>
      <point x="324" y="447"/>
      <point x="392" y="521"/>
      <point x="392" y="611" type="curve" smooth="yes"/>
      <point x="392" y="700"/>
      <point x="322" y="771"/>
      <point x="231" y="771" type="curve" smooth="yes"/>
      <point x="142" y="771"/>
      <point x="69" y="700"/>
      <point x="69" y="611" type="curve" smooth="yes"/>
      <point x="69" y="521"/>
      <point x="139" y="447"/>
    </contour>
    <contour>
      <point x="231" y="746" type="curve" smooth="yes"/>
      <point x="290" y="746"/>
      <point x="323" y="688"/>
      <point x="323" y="612" type="curve" smooth="yes"/>
      <point x="323" y="534"/>
      <point x="290" y="473"/>
      <point x="231" y="473" type="curve" smooth="yes"/>
      <point x="173" y="473"/>
      <point x="138" y="534"/>
      <point x="138" y="612" type="curve" smooth="yes"/>
      <point x="138" y="688"/>
      <point x="173" y="746"/>
    </contour>
  </outline>
</glyph>
<glyph name="onequarter" format="2">
  <advance width="810.5"/>
  <unicode hex="00BC"/>
  <outline>
    <component base="one.numr" identifier="52F66E2B"/>
    <contour>
      <point x="182" y="0" type="line"/>
      <point x="687" y="702" type="line"/>
      <point x="636" y="702" type="line"/>
      <point x="130" y="0" type="line"/>
    </contour>
    <component base="four.dnom" xOffset="425" identifier="377DF731"/>
  </outline>
</glyph>
<glyph name="onehalf" format="2">
  <advance width="842.375"/>
  <unicode hex="00BD"/>
  <outline>
    <component base="one.numr" identifier="D17DA6EF"/>
    <contour>
      <point x="182" y="0" type="line"/>
      <point x="687" y="702" type="line"/>
      <point x="636" y="702" type="line"/>
      <point x="130" y="0" type="line"/>
    </contour>
    <component base="two.dnom" xOffset="447" identifier="1BB1DBAA"/>
  </outline>
</glyph>
<glyph name="threequarters" format="2">
  <advance width="851.875"/>
  <unicode hex="00BE"/>
  <outline>
    <contour>
      <point x="196" y="0" type="line"/>
      <point x="702" y="702" type="line"/>
      <point x="650" y="702" type="line"/>
      <point x="145" y="0" type="line"/>
    </contour>
    <component base="three.numr" identifier="BFCD812A"/>
    <component base="four.dnom" xOffset="466" identifier="ABAF61F2"/>
  </outline>
</glyph>
<glyph name="AE" format="2">
  <advance width="1086.875"/>
  <unicode hex="00C6"/>
  <outline>
    <contour>
      <point x="286" y="312" type="line"/>
      <point x="272" y="278" type="line"/>
      <point x="565" y="278" type="line"/>
      <point x="579" y="312" type="line"/>
    </contour>
    <contour>
      <point x="535" y="673" type="line"/>
      <point x="110" y="84" type="line" smooth="yes"/>
      <point x="71" y="30"/>
      <point x="22" y="21"/>
      <point x="-45" y="19" type="curve"/>
      <point x="-45" y="0" type="line"/>
      <point x="217" y="0" type="line"/>
      <point x="217" y="19" type="line"/>
      <point x="148" y="21"/>
      <point x="105" y="14"/>
      <point x="140" y="63" type="curve" smooth="yes"/>
      <point x="571" y="662" type="line"/>
    </contour>
    <contour>
      <point x="419" y="0" type="line"/>
      <point x="1003" y="0" type="line"/>
      <point x="1046" y="225" type="line"/>
      <point x="1025" y="225" type="line"/>
      <point x="1001" y="125"/>
      <point x="976" y="32"/>
      <point x="857" y="32" type="curve" smooth="yes"/>
      <point x="626" y="32" type="line"/>
      <point x="626" y="341" type="line"/>
      <point x="830" y="341" type="line" smooth="yes"/>
      <point x="872" y="341"/>
      <point x="907" y="309"/>
      <point x="909" y="227" type="curve"/>
      <point x="929" y="227" type="line"/>
      <point x="929" y="485" type="line"/>
      <point x="909" y="485" type="line"/>
      <point x="907" y="401"/>
      <point x="872" y="373"/>
      <point x="830" y="373" type="curve" smooth="yes"/>
      <point x="626" y="373" type="line"/>
      <point x="626" y="671" type="line"/>
      <point x="836" y="671" type="line" smooth="yes"/>
      <point x="916" y="671"/>
      <point x="968" y="638"/>
      <point x="992" y="476" type="curve"/>
      <point x="1015" y="476" type="line"/>
      <point x="990" y="702" type="line"/>
      <point x="419" y="702" type="line"/>
      <point x="419" y="683" type="line"/>
      <point x="494" y="680"/>
      <point x="521" y="685"/>
      <point x="521" y="642" type="curve" smooth="yes"/>
      <point x="521" y="60" type="line" smooth="yes"/>
      <point x="521" y="17"/>
      <point x="494" y="22"/>
      <point x="419" y="19" type="curve"/>
    </contour>
  </outline>
</glyph>
<glyph name="Eth" format="2">
  <advance width="742.625"/>
  <unicode hex="00D0"/>
  <outline>
    <contour>
      <point x="397" y="340" type="line"/>
      <point x="397" y="373" type="line"/>
      <point x="37" y="373" type="line"/>
      <point x="37" y="340" type="line"/>
    </contour>
    <component base="D" identifier="1549B549"/>
  </outline>
</glyph>
<glyph name="multiply" format="2">
  <advance width="581.625"/>
  <unicode hex="00D7"/>
  <outline>
    <contour>
      <point x="512" y="139" type="line"/>
      <point x="108" y="543" type="line"/>
      <point x="73" y="508" type="line"/>
      <point x="477" y="104" type="line"/>
    </contour>
    <contour>
      <point x="107" y="104" type="line"/>
      <point x="512" y="508" type="line"/>
      <point x="477" y="543" type="line"/>
      <point x="73" y="139" type="line"/>
    </contour>
  </outline>
</glyph>
<glyph name="Oslash" format="2">
  <advance width="799"/>
  <unicode hex="00D8"/>
  <outline>
    <contour>
      <point x="171" y="-13" type="line"/>
      <point x="652" y="714" type="line"/>
      <point x="600" y="714" type="line"/>
      <point x="115" y="-13" type="line"/>
    </contour>
    <component base="O" identifier="50FB1170"/>
  </outline>
</glyph>
<glyph name="Thorn" format="2">
  <advance width="634.5"/>
  <unicode hex="00DE"/>
  <outline>
    <contour>
      <point x="228" y="564" type="line"/>
      <point x="228" y="638" type="line" smooth="yes"/>
      <point x="228" y="688"/>
      <point x="255" y="683"/>
      <point x="345" y="683" type="curve"/>
      <point x="345" y="702" type="line"/>
      <point x="23" y="702" type="line"/>
      <point x="23" y="683" type="line"/>
      <point x="92" y="682"/>
      <point x="125" y="689"/>
      <point x="125" y="638" type="curve" smooth="yes"/>
      <point x="125" y="61" type="line" smooth="yes"/>
      <point x="125" y="11"/>
      <point x="78" y="21"/>
      <point x="23" y="19" type="curve"/>
      <point x="23" y="0" type="line"/>
      <point x="345" y="0" type="line"/>
      <point x="345" y="19" type="line"/>
      <point x="267" y="20"/>
      <point x="228" y="12"/>
      <point x="228" y="62" type="curve" smooth="yes"/>
      <point x="228" y="155" type="line"/>
      <point x="301" y="155" type="line" smooth="yes"/>
      <point x="486" y="155"/>
      <point x="600" y="243"/>
      <point x="600" y="372" type="curve" smooth="yes"/>
      <point x="600" y="498"/>
      <point x="483" y="564"/>
      <point x="338" y="564" type="curve" smooth="yes"/>
    </contour>
    <contour>
      <point x="228" y="187" type="line"/>
      <point x="228" y="536" type="line"/>
      <point x="291" y="536" type="line" smooth="yes"/>
      <point x="409" y="536"/>
      <point x="494" y="468"/>
      <point x="494" y="360" type="curve" smooth="yes"/>
      <point x="494" y="261"/>
      <point x="424" y="187"/>
      <point x="292" y="187" type="curve" smooth="yes"/>
    </contour>
  </outline>
</glyph>
<glyph name="germandbls" format="2">
  <advance width="656.125"/>
  <unicode hex="00DF"/>
  <outline>
    <contour>
      <point x="23" y="0" type="line"/>
      <point x="23" y="14" type="line"/>
      <point x="72" y="16"/>
      <point x="110" y="11"/>
      <point x="110" y="55" type="curve" smooth="yes"/>
      <point x="111" y="562" type="line" smooth="yes"/>
      <point x="111" y="675"/>
      <point x="189" y="771"/>
      <point x="334" y="771" type="curve" smooth="yes"/>
      <point x="453" y="771"/>
      <point x="538" y="708"/>
      <point x="538" y="622" type="curve" smooth="yes"/>
      <point x="538" y="494"/>
      <point x="390" y="468"/>
      <point x="390" y="432" type="curve" smooth="yes"/>
      <point x="390" y="354"/>
      <point x="608" y="334"/>
      <point x="608" y="157" type="curve" smooth="yes"/>
      <point x="608" y="54"/>
      <point x="526" y="-12"/>
      <point x="439" y="-12" type="curve" smooth="yes"/>
      <point x="363" y="-12"/>
      <point x="310" y="19"/>
      <point x="275" y="49" type="curve"/>
      <point x="296" y="187" type="line"/>
      <point x="313" y="187" type="line"/>
      <point x="315" y="89"/>
      <point x="353" y="20"/>
      <point x="425" y="18" type="curve" smooth="yes"/>
      <point x="492" y="16"/>
      <point x="513" y="83"/>
      <point x="513" y="142" type="curve" smooth="yes"/>
      <point x="513" y="296"/>
      <point x="309" y="296"/>
      <point x="309" y="404" type="curve" smooth="yes"/>
      <point x="309" y="476"/>
      <point x="444" y="479"/>
      <point x="444" y="624" type="curve" smooth="yes"/>
      <point x="444" y="707"/>
      <point x="398" y="742"/>
      <point x="334" y="742" type="curve" smooth="yes"/>
      <point x="254" y="742"/>
      <point x="209" y="672"/>
      <point x="209" y="557" type="curve" smooth="yes"/>
      <point x="209" y="0" type="line"/>
    </contour>
  </outline>
</glyph>
<glyph name="ae" format="2">
  <advance width="879.625"/>
  <unicode hex="00E6"/>
  <outline>
    <contour>
      <point x="140" y="124" type="curve" smooth="yes"/>
      <point x="140" y="169"/>
      <point x="167" y="197"/>
      <point x="224" y="217" type="curve" smooth="yes"/>
      <point x="257" y="228"/>
      <point x="307" y="240"/>
      <point x="360" y="253" type="curve"/>
      <point x="360" y="228" type="line" smooth="yes"/>
      <point x="360" y="118"/>
      <point x="283" y="47"/>
      <point x="218" y="46" type="curve" smooth="yes"/>
      <point x="178" y="45"/>
      <point x="140" y="69"/>
    </contour>
    <contour>
      <point x="425" y="312" type="line"/>
      <point x="826" y="312" type="line"/>
      <point x="824" y="430"/>
      <point x="732" y="514"/>
      <point x="609" y="514" type="curve" smooth="yes"/>
      <point x="529" y="514"/>
      <point x="464" y="482"/>
      <point x="423" y="431" type="curve"/>
      <point x="392" y="477"/>
      <point x="335" y="514"/>
      <point x="259" y="514" type="curve" smooth="yes"/>
      <point x="105" y="514"/>
      <point x="56" y="402"/>
      <point x="53" y="338" type="curve"/>
      <point x="79" y="338" type="line"/>
      <point x="89" y="412"/>
      <point x="142" y="461"/>
      <point x="222" y="461" type="curve" smooth="yes"/>
      <point x="306" y="461"/>
      <point x="360" y="407"/>
      <point x="360" y="320" type="curve" smooth="yes"/>
      <point x="360" y="283" type="line"/>
      <point x="318" y="274"/>
      <point x="270" y="263"/>
      <point x="223" y="252" type="curve" smooth="yes"/>
      <point x="126" y="227"/>
      <point x="51" y="195"/>
      <point x="51" y="107" type="curve" smooth="yes"/>
      <point x="51" y="27"/>
      <point x="116" y="-9"/>
      <point x="187" y="-9" type="curve" smooth="yes"/>
      <point x="254" y="-9"/>
      <point x="347" y="37"/>
      <point x="379" y="153" type="curve"/>
      <point x="409" y="58"/>
      <point x="499" y="-11"/>
      <point x="613" y="-11" type="curve" smooth="yes"/>
      <point x="705" y="-11"/>
      <point x="791" y="45"/>
      <point x="842" y="153" type="curve"/>
      <point x="821" y="162" type="line"/>
      <point x="777" y="78"/>
      <point x="703" y="54"/>
      <point x="653" y="54" type="curve" smooth="yes"/>
      <point x="533" y="54"/>
      <point x="453" y="154"/>
      <point x="453" y="295" type="curve" smooth="yes"/>
      <point x="453" y="389"/>
      <point x="493" y="484"/>
      <point x="594" y="484" type="curve" smooth="yes"/>
      <point x="663" y="484"/>
      <point x="714" y="434"/>
      <point x="724" y="338" type="curve"/>
      <point x="425" y="338" type="line"/>
    </contour>
  </outline>
</glyph>
<glyph name="eth" format="2">
  <advance width="608"/>
  <unicode hex="00F0"/>
  <outline>
    <contour>
      <point x="466" y="317" type="curve"/>
      <point x="482" y="419" type="line"/>
      <point x="435" y="482"/>
      <point x="373" y="514"/>
      <point x="288" y="514" type="curve" smooth="yes"/>
      <point x="153" y="514"/>
      <point x="41" y="406"/>
      <point x="43" y="247" type="curve" smooth="yes"/>
      <point x="45" y="113"/>
      <point x="150" y="-11"/>
      <point x="310" y="-11" type="curve" smooth="yes"/>
      <point x="462" y="-11"/>
      <point x="565" y="112"/>
      <point x="565" y="301" type="curve" smooth="yes"/>
      <point x="565" y="439"/>
      <point x="498" y="646"/>
      <point x="208" y="768" type="curve"/>
      <point x="192" y="740" type="line"/>
      <point x="377" y="643"/>
      <point x="465" y="528"/>
      <point x="465" y="324" type="curve" smooth="yes"/>
      <point x="465" y="125"/>
      <point x="415" y="27"/>
      <point x="320" y="27" type="curve" smooth="yes"/>
      <point x="212" y="27"/>
      <point x="146" y="140"/>
      <point x="146" y="272" type="curve" smooth="yes"/>
      <point x="146" y="392"/>
      <point x="198" y="479"/>
      <point x="291" y="479" type="curve" smooth="yes"/>
      <point x="386" y="479"/>
      <point x="455" y="384"/>
    </contour>
    <contour>
      <point x="206" y="557" type="line"/>
      <point x="509" y="742" type="line"/>
      <point x="486" y="778" type="line"/>
      <point x="183" y="592" type="line"/>
    </contour>
  </outline>
</glyph>
<glyph name="divide" format="2">
  <advance width="585"/>
  <unicode hex="00F7"/>
  <outline>
    <contour>
      <point x="293" y="453" type="curve" smooth="yes"/>
      <point x="262" y="453"/>
      <point x="232" y="477"/>
      <point x="232" y="513" type="curve" smooth="yes"/>
      <point x="232" y="544"/>
      <point x="258" y="572"/>
      <point x="293" y="572" type="curve" smooth="yes"/>
      <point x="323" y="572"/>
      <point x="353" y="548"/>
      <point x="353" y="513" type="curve" smooth="yes"/>
      <point x="353" y="478"/>
      <point x="325" y="453"/>
    </contour>
    <contour>
      <point x="293" y="74" type="curve" smooth="yes"/>
      <point x="262" y="74"/>
      <point x="232" y="98"/>
      <point x="232" y="134" type="curve" smooth="yes"/>
      <point x="232" y="166"/>
      <point x="258" y="193"/>
      <point x="293" y="193" type="curve" smooth="yes"/>
      <point x="323" y="193"/>
      <point x="353" y="169"/>
      <point x="353" y="134" type="curve" smooth="yes"/>
      <point x="353" y="100"/>
      <point x="325" y="74"/>
    </contour>
    <component base="minus" yOffset="4" identifier="FCEC01CA"/>
  </outline>
</glyph>
<glyph name="oslash" format="2">
  <advance width="605"/>
  <unicode hex="00F8"/>
  <outline>
    <contour>
      <point x="139" y="-20" type="line"/>
      <point x="513" y="516" type="line"/>
      <point x="472" y="516" type="line"/>
      <point x="95" y="-20" type="line"/>
    </contour>
    <component base="o" identifier="92607BB1"/>
  </outline>
</glyph>
<glyph name="thorn" format="2">
  <advance width="632.75"/>
  <unicode hex="00FE"/>
  <outline>
    <contour>
      <point x="195" y="385" type="line"/>
      <point x="246" y="437"/>
      <point x="289" y="458"/>
      <point x="337" y="458" type="curve" smooth="yes"/>
      <point x="426" y="458"/>
      <point x="501" y="390"/>
      <point x="501" y="257" type="curve" smooth="yes"/>
      <point x="501" y="116"/>
      <point x="427" y="34"/>
      <point x="331" y="34" type="curve" smooth="yes"/>
      <point x="270" y="34"/>
      <point x="229" y="60"/>
      <point x="196" y="87" type="curve"/>
      <point x="129" y="44" type="line"/>
      <point x="165" y="25"/>
      <point x="215" y="-4"/>
      <point x="303" y="-4" type="curve" smooth="yes"/>
      <point x="468" y="-4"/>
      <point x="590" y="109"/>
      <point x="590" y="287" type="curve" smooth="yes"/>
      <point x="590" y="436"/>
      <point x="487" y="515"/>
      <point x="367" y="515" type="curve" smooth="yes"/>
      <point x="298" y="515"/>
      <point x="239" y="463"/>
      <point x="195" y="426" type="curve"/>
    </contour>
    <contour>
      <point x="13" y="700" type="line"/>
      <point x="88" y="718"/>
      <point x="109" y="726"/>
      <point x="109" y="664" type="curve" smooth="yes"/>
      <point x="109" y="-170" type="line" smooth="yes"/>
      <point x="109" y="-218"/>
      <point x="86" y="-219"/>
      <point x="22" y="-221" type="curve"/>
      <point x="22" y="-240" type="line"/>
      <point x="332" y="-240" type="line"/>
      <point x="332" y="-221" type="line"/>
      <point x="239" y="-219"/>
      <point x="203" y="-218"/>
      <point x="203" y="-170" type="curve" smooth="yes"/>
      <point x="203" y="771" type="line"/>
      <point x="13" y="720" type="line"/>
    </contour>
  </outline>
</glyph>
<glyph name="dcroat" format="2">
  <advance width="638.75"/>
  <unicode hex="0111"/>
  <outline>
    <contour>
      <point x="635" y="621" type="line"/>
      <point x="194" y="621" type="line"/>
      <point x="194" y="594" type="line"/>
      <point x="635" y="594" type="line"/>
    </contour>
    <component base="d" identifier="25761843"/>
  </outline>
</glyph>
<glyph name="Hbar" format="2">
  <advance width="831.125"/>
  <unicode hex="0126"/>
  <outline>
    <component base="H" identifier="21E7A1BF"/>
    <contour>
      <point x="30" y="528" type="line"/>
      <point x="799" y="528" type="line"/>
      <point x="799" y="562" type="line"/>
      <point x="30" y="562" type="line"/>
    </contour>
  </outline>
</glyph>
<glyph name="hbar" format="2">
  <advance width="655"/>
  <unicode hex="0127"/>
  <outline>
    <component base="h" identifier="194475BF"/>
    <contour>
      <point x="19" y="621" type="line"/>
      <point x="19" y="594" type="line"/>
      <point x="365" y="594" type="line"/>
      <point x="365" y="621" type="line"/>
    </contour>
  </outline>
</glyph>
<glyph name="iogonek" format="2">
  <advance width="313"/>
  <unicode hex="012F"/>
  <outline>
    <component base="idotless"/>
    <component base="ogonekcomb" xOffset="41"/>
    <contour>
      <point x="162" y="642" type="curve" smooth="yes"/>
      <point x="127" y="642"/>
      <point x="96" y="670"/>
      <point x="96" y="707" type="curve" smooth="yes"/>
      <point x="96" y="741"/>
      <point x="125" y="770"/>
      <point x="162" y="770" type="curve" smooth="yes"/>
      <point x="196" y="770"/>
      <point x="227" y="743"/>
      <point x="227" y="707" type="curve" smooth="yes"/>
      <point x="227" y="669"/>
      <point x="197" y="642"/>
    </contour>
  </outline>
</glyph>
<glyph name="idotless" format="2">
  <advance width="313"/>
  <unicode hex="0131"/>
  <anchor x="168" y="0" name="bottom"/>
  <anchor x="247" y="0" name="ogonek"/>
  <anchor x="160" y="502" name="top"/>
  <outline>
    <contour>
      <point x="21" y="443" type="line"/>
      <point x="102" y="462"/>
      <point x="117" y="470"/>
      <point x="117" y="398" type="curve" smooth="yes"/>
      <point x="117" y="58" type="line" smooth="yes"/>
      <point x="117" y="13"/>
      <point x="74" y="21"/>
      <point x="30" y="19" type="curve"/>
      <point x="30" y="0" type="line"/>
      <point x="297" y="0" type="line"/>
      <point x="297" y="19" type="line"/>
      <point x="244" y="21"/>
      <point x="211" y="13"/>
      <point x="211" y="58" type="curve" smooth="yes"/>
      <point x="211" y="514" type="line"/>
      <point x="21" y="463" type="line"/>
    </contour>
  </outline>
</glyph>
<glyph name="Lslash" format="2">
  <advance width="656"/>
  <unicode hex="0141"/>
  <outline>
    <component base="L" identifier="76ADAC2A"/>
    <contour>
      <point x="39" y="305" type="line"/>
      <point x="381" y="495" type="line"/>
      <point x="363" y="525" type="line"/>
      <point x="21" y="335" type="line"/>
    </contour>
  </outline>
</glyph>
<glyph name="lslash" format="2">
  <advance width="314.625"/>
  <unicode hex="0142"/>
  <outline>
    <contour>
      <point x="34" y="307" type="line"/>
      <point x="294" y="466" type="line"/>
      <point x="278" y="491" type="line"/>
      <point x="18" y="332" type="line"/>
    </contour>
    <component base="l" identifier="31335C5B"/>
  </outline>
</glyph>
<glyph name="Eng" format="2">
  <advance width="783.5"/>
  <unicode hex="014A"/>
  <anchor x="396" y="0" name="bottom"/>
  <anchor x="396" y="702" name="top"/>
  <outline>
    <contour>
      <point x="626" y="0" type="curve"/>
      <point x="171" y="585" type="line"/>
      <point x="171" y="70" type="line" smooth="yes"/>
      <point x="171" y="22"/>
      <point x="206" y="21"/>
      <point x="269" y="19" type="curve"/>
      <point x="269" y="0" type="line"/>
      <point x="23" y="0" type="line"/>
      <point x="23" y="19" type="line"/>
      <point x="75" y="21"/>
      <point x="129" y="22"/>
      <point x="129" y="70" type="curve" smooth="yes"/>
      <point x="129" y="634" type="line" smooth="yes"/>
      <point x="115" y="687"/>
      <point x="94" y="681"/>
      <point x="24" y="683" type="curve"/>
      <point x="24" y="702" type="line"/>
      <point x="204" y="702" type="line"/>
      <point x="629" y="155" type="line"/>
      <point x="629" y="631" type="line" smooth="yes"/>
      <point x="629" y="680"/>
      <point x="612" y="681"/>
      <point x="527" y="683" type="curve"/>
      <point x="527" y="702" type="line"/>
      <point x="774" y="702" type="line"/>
      <point x="774" y="683" type="line"/>
      <point x="693" y="682"/>
      <point x="671" y="680"/>
      <point x="671" y="631" type="curve" smooth="yes"/>
      <point x="671" y="3" type="line" smooth="yes"/>
      <point x="671" y="-123"/>
      <point x="616" y="-181"/>
      <point x="521" y="-182" type="curve"/>
      <point x="521" y="-165" type="line"/>
      <point x="611" y="-156"/>
      <point x="626" y="-85"/>
    </contour>
  </outline>
</glyph>
<glyph name="eng" format="2">
  <advance width="627"/>
  <unicode hex="014B"/>
  <outline>
    <contour>
      <point x="565" y="20" type="curve" smooth="yes"/>
      <point x="565" y="355" type="line" smooth="yes"/>
      <point x="565" y="448"/>
      <point x="505" y="515"/>
      <point x="404" y="515" type="curve" smooth="yes"/>
      <point x="350" y="515"/>
      <point x="265" y="451"/>
      <point x="212" y="416" type="curve"/>
      <point x="212" y="513" type="line"/>
      <point x="21" y="462" type="line"/>
      <point x="21" y="442" type="line"/>
      <point x="93" y="461"/>
      <point x="117" y="471"/>
      <point x="117" y="413" type="curve" smooth="yes"/>
      <point x="117" y="64" type="line" smooth="yes"/>
      <point x="117" y="16"/>
      <point x="75" y="21"/>
      <point x="30" y="19" type="curve"/>
      <point x="30" y="0" type="line"/>
      <point x="299" y="0" type="line"/>
      <point x="299" y="19" type="line"/>
      <point x="245" y="21"/>
      <point x="212" y="16"/>
      <point x="212" y="64" type="curve" smooth="yes"/>
      <point x="212" y="381" type="line"/>
      <point x="242" y="403"/>
      <point x="307" y="458"/>
      <point x="366" y="458" type="curve" smooth="yes"/>
      <point x="432" y="458"/>
      <point x="469" y="419"/>
      <point x="469" y="329" type="curve" smooth="yes"/>
      <point x="469" y="-25" type="line" smooth="yes"/>
      <point x="469" y="-116"/>
      <point x="467" y="-160"/>
      <point x="368" y="-178" type="curve"/>
      <point x="373" y="-194" type="line"/>
      <point x="508" y="-178"/>
      <point x="565" y="-124"/>
    </contour>
  </outline>
</glyph>
<glyph name="OE" format="2">
  <advance width="1062.75"/>
  <unicode hex="0152"/>
  <outline>
    <contour>
      <point x="404" y="0" type="curve" smooth="yes"/>
      <point x="978" y="0" type="line"/>
      <point x="1022" y="225" type="line"/>
      <point x="1001" y="225" type="line"/>
      <point x="977" y="125"/>
      <point x="952" y="32"/>
      <point x="833" y="32" type="curve" smooth="yes"/>
      <point x="601" y="32" type="line"/>
      <point x="601" y="341" type="line"/>
      <point x="805" y="341" type="line" smooth="yes"/>
      <point x="848" y="341"/>
      <point x="883" y="309"/>
      <point x="885" y="227" type="curve"/>
      <point x="905" y="227" type="line"/>
      <point x="905" y="485" type="line"/>
      <point x="885" y="485" type="line"/>
      <point x="883" y="401"/>
      <point x="848" y="373"/>
      <point x="805" y="373" type="curve" smooth="yes"/>
      <point x="601" y="373" type="line"/>
      <point x="601" y="671" type="line"/>
      <point x="812" y="671" type="line" smooth="yes"/>
      <point x="892" y="671"/>
      <point x="944" y="638"/>
      <point x="968" y="476" type="curve"/>
      <point x="990" y="476" type="line"/>
      <point x="965" y="702" type="line"/>
      <point x="404" y="702" type="line" smooth="yes"/>
      <point x="194" y="702"/>
      <point x="47" y="553"/>
      <point x="47" y="352" type="curve" smooth="yes"/>
      <point x="47" y="150"/>
      <point x="193" y="0"/>
    </contour>
    <contour>
      <point x="415" y="26" type="curve" smooth="yes"/>
      <point x="255" y="26"/>
      <point x="164" y="178"/>
      <point x="164" y="352" type="curve" smooth="yes"/>
      <point x="164" y="542"/>
      <point x="255" y="676"/>
      <point x="415" y="676" type="curve" smooth="yes"/>
      <point x="475" y="675"/>
      <point x="497" y="679"/>
      <point x="497" y="631" type="curve" smooth="yes"/>
      <point x="497" y="66" type="line" smooth="yes"/>
      <point x="497" y="28"/>
      <point x="473" y="26"/>
    </contour>
  </outline>
</glyph>
<glyph name="oe" format="2">
  <advance width="993.75"/>
  <unicode hex="0153"/>
  <outline>
    <contour>
      <point x="304" y="-11" type="curve" smooth="yes"/>
      <point x="394" y="-11"/>
      <point x="466" y="30"/>
      <point x="514" y="101" type="curve"/>
      <point x="558" y="28"/>
      <point x="636" y="-11"/>
      <point x="724" y="-11" type="curve" smooth="yes"/>
      <point x="832" y="-11"/>
      <point x="905" y="47"/>
      <point x="956" y="153" type="curve"/>
      <point x="935" y="162" type="line"/>
      <point x="891" y="79"/>
      <point x="817" y="54"/>
      <point x="765" y="54" type="curve" smooth="yes"/>
      <point x="644" y="54"/>
      <point x="564" y="153"/>
      <point x="564" y="294" type="curve" smooth="yes"/>
      <point x="564" y="299"/>
      <point x="564" y="304"/>
      <point x="565" y="309" type="curve"/>
      <point x="941" y="309" type="line"/>
      <point x="939" y="426"/>
      <point x="848" y="514"/>
      <point x="720" y="514" type="curve" smooth="yes"/>
      <point x="625" y="514"/>
      <point x="554" y="470"/>
      <point x="513" y="402" type="curve"/>
      <point x="466" y="472"/>
      <point x="393" y="514"/>
      <point x="304" y="514" type="curve" smooth="yes"/>
      <point x="158" y="514"/>
      <point x="43" y="400"/>
      <point x="43" y="254" type="curve" smooth="yes"/>
      <point x="43" y="106"/>
      <point x="154" y="-11"/>
    </contour>
    <contour>
      <point x="146" y="255" type="curve" smooth="yes"/>
      <point x="146" y="387"/>
      <point x="208" y="482"/>
      <point x="304" y="482" type="curve" smooth="yes"/>
      <point x="401" y="482"/>
      <point x="459" y="387"/>
      <point x="459" y="255" type="curve" smooth="yes"/>
      <point x="459" y="123"/>
      <point x="401" y="20"/>
      <point x="304" y="20" type="curve" smooth="yes"/>
      <point x="207" y="20"/>
      <point x="146" y="123"/>
    </contour>
    <contour>
      <point x="567" y="334" type="line"/>
      <point x="577" y="415"/>
      <point x="621" y="484"/>
      <point x="705" y="484" type="curve" smooth="yes"/>
      <point x="775" y="484"/>
      <point x="827" y="432"/>
      <point x="838" y="334" type="curve"/>
    </contour>
  </outline>
</glyph>
<glyph name="Tbar" format="2">
  <advance width="681.875"/>
  <unicode hex="0166"/>
  <outline>
    <contour>
      <point x="558" y="431" type="line"/>
      <point x="120" y="431" type="line"/>
      <point x="120" y="396" type="line"/>
      <point x="558" y="396" type="line"/>
    </contour>
    <component base="T" identifier="BEB25FC2"/>
  </outline>
</glyph>
<glyph name="tbar" format="2">
  <advance width="396.375"/>
  <unicode hex="0167"/>
  <outline>
    <contour>
      <point x="30" y="362" type="line"/>
      <point x="30" y="336" type="line"/>
      <point x="354" y="336" type="line"/>
      <point x="354" y="362" type="line"/>
    </contour>
    <component base="t" identifier="7B862278"/>
  </outline>
</glyph>
<glyph name="Schwa" format="2">
  <advance width="727"/>
  <unicode hex="018F"/>
  <outline>
    <contour>
      <point x="594" y="271" type="line"/>
      <point x="46" y="271" type="line"/>
      <point x="46" y="110"/>
      <point x="173" y="-11"/>
      <point x="354" y="-11" type="curve" smooth="yes"/>
      <point x="565" y="-11"/>
      <point x="680" y="164"/>
      <point x="680" y="355" type="curve" smooth="yes"/>
      <point x="680" y="574"/>
      <point x="534" y="714"/>
      <point x="345" y="714" type="curve" smooth="yes"/>
      <point x="189" y="714"/>
      <point x="69" y="613"/>
      <point x="43" y="454" type="curve"/>
      <point x="74" y="454" type="line"/>
      <point x="117" y="597"/>
      <point x="214" y="641"/>
      <point x="302" y="641" type="curve" smooth="yes"/>
      <point x="462" y="641"/>
      <point x="561" y="504"/>
      <point x="561" y="300" type="curve" smooth="yes"/>
      <point x="561" y="154"/>
      <point x="497" y="21"/>
      <point x="364" y="21" type="curve" smooth="yes"/>
      <point x="260" y="21"/>
      <point x="185" y="101"/>
      <point x="176" y="239" type="curve"/>
      <point x="594" y="239" type="line"/>
    </contour>
  </outline>
</glyph>
<glyph name="florin" format="2">
  <advance width="611.25"/>
  <unicode hex="0192"/>
  <outline>
    <contour>
      <point x="149" y="478" type="line"/>
      <point x="149" y="440" type="line"/>
      <point x="475" y="440" type="line"/>
      <point x="475" y="478" type="line"/>
    </contour>
    <contour>
      <point x="245" y="172" type="line" smooth="yes"/>
      <point x="245" y="77"/>
      <point x="226" y="19"/>
      <point x="167" y="19" type="curve" smooth="yes"/>
      <point x="112" y="19"/>
      <point x="81" y="60"/>
      <point x="79" y="182" type="curve"/>
      <point x="62" y="182" type="line"/>
      <point x="25" y="69" type="line"/>
      <point x="69" y="14"/>
      <point x="118" y="-10"/>
      <point x="175" y="-10" type="curve" smooth="yes"/>
      <point x="268" y="-10"/>
      <point x="339" y="60"/>
      <point x="339" y="160" type="curve" smooth="yes"/>
      <point x="339" y="572" type="line" smooth="yes"/>
      <point x="339" y="671"/>
      <point x="359" y="739"/>
      <point x="438" y="739" type="curve" smooth="yes"/>
      <point x="500" y="739"/>
      <point x="534" y="697"/>
      <point x="535" y="562" type="curve"/>
      <point x="552" y="562" type="line"/>
      <point x="592" y="685" type="line"/>
      <point x="549" y="740"/>
      <point x="491" y="767"/>
      <point x="430" y="767" type="curve" smooth="yes"/>
      <point x="315" y="767"/>
      <point x="245" y="684"/>
      <point x="245" y="580" type="curve"/>
    </contour>
  </outline>
</glyph>
<glyph name="jdotless" format="2">
  <advance width="293"/>
  <unicode hex="0237"/>
  <outline>
    <contour>
      <point x="-29" y="-217" type="curve"/>
      <point x="-22" y="-234" type="line"/>
      <point x="94" y="-195"/>
      <point x="199" y="-146"/>
      <point x="199" y="38" type="curve" smooth="yes"/>
      <point x="199" y="513" type="line"/>
      <point x="5" y="467" type="line"/>
      <point x="5" y="447" type="line"/>
      <point x="82" y="462"/>
      <point x="104" y="478"/>
      <point x="104" y="411" type="curve" smooth="yes"/>
      <point x="104" y="-30" type="line" smooth="yes"/>
      <point x="104" y="-110"/>
      <point x="84" y="-171"/>
    </contour>
  </outline>
</glyph>
<glyph name="schwa" format="2">
  <advance width="565.5"/>
  <unicode hex="0259"/>
  <outline>
    <contour>
      <point x="458" y="193" type="line"/>
      <point x="52" y="193" type="line"/>
      <point x="53" y="76"/>
      <point x="146" y="-11"/>
      <point x="274" y="-11" type="curve" smooth="yes"/>
      <point x="437" y="-11"/>
      <point x="523" y="112"/>
      <point x="523" y="253" type="curve" smooth="yes"/>
      <point x="523" y="414"/>
      <point x="412" y="513"/>
      <point x="278" y="513" type="curve" smooth="yes"/>
      <point x="167" y="513"/>
      <point x="95" y="455"/>
      <point x="45" y="349" type="curve"/>
      <point x="66" y="339" type="line"/>
      <point x="110" y="422"/>
      <point x="181" y="448"/>
      <point x="237" y="448" type="curve" smooth="yes"/>
      <point x="351" y="448"/>
      <point x="430" y="349"/>
      <point x="430" y="208" type="curve" smooth="yes"/>
      <point x="430" y="113"/>
      <point x="388" y="18"/>
      <point x="289" y="18" type="curve" smooth="yes"/>
      <point x="218" y="18"/>
      <point x="164" y="68"/>
      <point x="154" y="168" type="curve"/>
      <point x="458" y="168" type="line"/>
    </contour>
  </outline>
</glyph>
<glyph name="gravecomb" format="2">
  <advance width="303.125"/>
  <unicode hex="0300"/>
  <anchor x="160" y="502" name="_top"/>
  <anchor x="154" y="760" name="top"/>
  <outline>
    <contour>
      <point x="247" y="561" type="line"/>
      <point x="40" y="687" type="line"/>
      <point x="87" y="747" type="line"/>
      <point x="263" y="581" type="line"/>
    </contour>
  </outline>
</glyph>
<glyph name="circumflexcomb" format="2">
  <advance width="357.25"/>
  <unicode hex="0302"/>
  <anchor x="177" y="502" name="_top"/>
  <anchor x="177" y="753" name="top"/>
  <outline>
    <contour>
      <point x="40" y="603" type="line"/>
      <point x="169" y="752" type="line"/>
      <point x="189" y="752" type="line"/>
      <point x="317" y="603" type="line"/>
      <point x="302" y="587" type="line"/>
      <point x="178" y="681" type="line"/>
      <point x="57" y="587" type="line"/>
    </contour>
  </outline>
</glyph>
<glyph name="tildecomb" format="2">
  <advance width="383"/>
  <unicode hex="0303"/>
  <anchor x="195" y="502" name="_top"/>
  <anchor x="201" y="747" name="top"/>
  <outline>
    <contour>
      <point x="269" y="611" type="curve" smooth="yes"/>
      <point x="232" y="611"/>
      <point x="140" y="663"/>
      <point x="107" y="663" type="curve" smooth="yes"/>
      <point x="93" y="663"/>
      <point x="77" y="645"/>
      <point x="56" y="616" type="curve"/>
      <point x="40" y="624" type="line"/>
      <point x="71" y="672"/>
      <point x="102" y="719"/>
      <point x="118" y="719" type="curve" smooth="yes"/>
      <point x="151" y="719"/>
      <point x="239" y="669"/>
      <point x="279" y="669" type="curve" smooth="yes"/>
      <point x="293" y="669"/>
      <point x="306" y="682"/>
      <point x="328" y="717" type="curve"/>
      <point x="343" y="711" type="line"/>
      <point x="319" y="662"/>
      <point x="291" y="611"/>
    </contour>
  </outline>
</glyph>
<glyph name="macroncomb" format="2">
  <advance width="354"/>
  <unicode hex="0304"/>
  <anchor x="178" y="502" name="_top"/>
  <anchor x="178" y="667" name="top"/>
  <outline>
    <contour>
      <point x="314" y="667" type="line"/>
      <point x="314" y="619" type="line"/>
      <point x="40" y="619" type="line"/>
      <point x="40" y="667" type="line"/>
    </contour>
  </outline>
</glyph>
<glyph name="brevecomb" format="2">
  <advance width="349.5"/>
  <unicode hex="0306"/>
  <anchor x="175" y="502" name="_top"/>
  <anchor x="175" y="749" name="top"/>
  <outline>
    <contour>
      <point x="40" y="739" type="curve"/>
      <point x="64" y="739" type="line"/>
      <point x="67" y="687"/>
      <point x="113" y="650"/>
      <point x="175" y="650" type="curve" smooth="yes"/>
      <point x="239" y="650"/>
      <point x="283" y="687"/>
      <point x="286" y="739" type="curve"/>
      <point x="310" y="739" type="line"/>
      <point x="310" y="649"/>
      <point x="256" y="592"/>
      <point x="175" y="592" type="curve" smooth="yes"/>
      <point x="94" y="592"/>
      <point x="39" y="646"/>
    </contour>
  </outline>
</glyph>
<glyph name="dotaccentcomb" format="2">
  <advance width="190.625"/>
  <unicode hex="0307"/>
  <anchor x="96" y="502" name="_top"/>
  <anchor x="96" y="748" name="top"/>
  <outline>
    <contour>
      <point x="96" y="620" type="curve" smooth="yes"/>
      <point x="66" y="620"/>
      <point x="40" y="643"/>
      <point x="40" y="675" type="curve" smooth="yes"/>
      <point x="40" y="705"/>
      <point x="66" y="729"/>
      <point x="96" y="729" type="curve" smooth="yes"/>
      <point x="124" y="729"/>
      <point x="151" y="705"/>
      <point x="151" y="675" type="curve" smooth="yes"/>
      <point x="151" y="643"/>
      <point x="124" y="620"/>
    </contour>
  </outline>
</glyph>
<glyph name="dieresiscomb" format="2">
  <advance width="390.375"/>
  <unicode hex="0308"/>
  <anchor x="196" y="502" name="_top"/>
  <anchor x="196" y="750" name="top"/>
  <outline>
    <contour>
      <point x="96" y="620" type="curve" smooth="yes"/>
      <point x="66" y="620"/>
      <point x="40" y="643"/>
      <point x="40" y="675" type="curve" smooth="yes"/>
      <point x="40" y="705"/>
      <point x="66" y="729"/>
      <point x="96" y="729" type="curve" smooth="yes"/>
      <point x="124" y="729"/>
      <point x="151" y="705"/>
      <point x="151" y="675" type="curve" smooth="yes"/>
      <point x="151" y="643"/>
      <point x="124" y="620"/>
    </contour>
    <contour>
      <point x="295" y="620" type="curve" smooth="yes"/>
      <point x="266" y="620"/>
      <point x="240" y="643"/>
      <point x="240" y="675" type="curve" smooth="yes"/>
      <point x="240" y="705"/>
      <point x="266" y="729"/>
      <point x="295" y="729" type="curve" smooth="yes"/>
      <point x="324" y="729"/>
      <point x="350" y="705"/>
      <point x="350" y="675" type="curve" smooth="yes"/>
      <point x="350" y="643"/>
      <point x="324" y="620"/>
    </contour>
  </outline>
</glyph>
<glyph name="ringcomb" format="2">
  <advance width="273"/>
  <unicode hex="030A"/>
  <anchor x="136" y="502" name="_top"/>
  <anchor x="136" y="755" name="top"/>
  <outline>
    <contour>
      <point x="137" y="575" type="curve" smooth="yes"/>
      <point x="188" y="575"/>
      <point x="233" y="616"/>
      <point x="233" y="667" type="curve" smooth="yes"/>
      <point x="233" y="717"/>
      <point x="188" y="757"/>
      <point x="137" y="757" type="curve" smooth="yes"/>
      <point x="86" y="757"/>
      <point x="40" y="717"/>
      <point x="40" y="667" type="curve" smooth="yes"/>
      <point x="40" y="616"/>
      <point x="86" y="575"/>
    </contour>
    <contour>
      <point x="137" y="605" type="curve" smooth="yes"/>
      <point x="104" y="605"/>
      <point x="88" y="631"/>
      <point x="88" y="667" type="curve" smooth="yes"/>
      <point x="88" y="699"/>
      <point x="103" y="727"/>
      <point x="137" y="727" type="curve" smooth="yes"/>
      <point x="171" y="727"/>
      <point x="185" y="699"/>
      <point x="185" y="667" type="curve" smooth="yes"/>
      <point x="185" y="631"/>
      <point x="170" y="605"/>
    </contour>
  </outline>
</glyph>
<glyph name="commaaccentcomb" format="2">
  <advance width="205.25"/>
  <unicode hex="0326"/>
  <anchor x="105" y="0" name="_bottom"/>
  <anchor x="105" y="-286" name="bottom"/>
  <outline>
    <contour>
      <point x="47" y="-275" type="line"/>
      <point x="101" y="-241"/>
      <point x="128" y="-200"/>
      <point x="131" y="-157" type="curve"/>
      <point x="120" y="-166"/>
      <point x="108" y="-172"/>
      <point x="95" y="-172" type="curve" smooth="yes"/>
      <point x="69" y="-172"/>
      <point x="42" y="-152"/>
      <point x="42" y="-118" type="curve" smooth="yes"/>
      <point x="42" y="-86"/>
      <point x="66" y="-60"/>
      <point x="101" y="-60" type="curve" smooth="yes"/>
      <point x="139" y="-60"/>
      <point x="165" y="-91"/>
      <point x="165" y="-137" type="curve" smooth="yes"/>
      <point x="165" y="-194"/>
      <point x="130" y="-251"/>
      <point x="57" y="-289" type="curve"/>
    </contour>
  </outline>
</glyph>
<glyph name="cedillacomb" format="2">
  <advance width="264.75"/>
  <unicode hex="0327"/>
  <anchor x="102" y="0" name="_bottom"/>
  <anchor x="119" y="-235" name="bottom"/>
  <outline>
    <contour>
      <point x="97" y="13" type="line"/>
      <point x="41" y="-107" type="line"/>
      <point x="58" y="-116" type="line"/>
      <point x="75" y="-99"/>
      <point x="97" y="-88"/>
      <point x="117" y="-88" type="curve" smooth="yes"/>
      <point x="142" y="-88"/>
      <point x="166" y="-104"/>
      <point x="166" y="-139" type="curve" smooth="yes"/>
      <point x="166" y="-183"/>
      <point x="132" y="-207"/>
      <point x="42" y="-223" type="curve"/>
      <point x="46" y="-243" type="line"/>
      <point x="162" y="-233"/>
      <point x="225" y="-182"/>
      <point x="225" y="-123" type="curve" smooth="yes"/>
      <point x="225" y="-78"/>
      <point x="190" y="-50"/>
      <point x="146" y="-50" type="curve" smooth="yes"/>
      <point x="128" y="-50"/>
      <point x="112" y="-55"/>
      <point x="92" y="-66" type="curve"/>
      <point x="129" y="13" type="line"/>
    </contour>
  </outline>
</glyph>
<glyph name="ogonekcomb" format="2">
  <advance width="290.125"/>
  <unicode hex="0328"/>
  <anchor x="156" y="0" name="_ogonek"/>
  <outline>
    <contour>
      <point x="125" y="1" type="line"/>
      <point x="91" y="-28"/>
      <point x="40" y="-56"/>
      <point x="40" y="-117" type="curve" smooth="yes"/>
      <point x="40" y="-170"/>
      <point x="83" y="-208"/>
      <point x="140" y="-208" type="curve" smooth="yes"/>
      <point x="189" y="-208"/>
      <point x="225" y="-176"/>
      <point x="250" y="-144" type="curve"/>
      <point x="237" y="-131" type="line"/>
      <point x="218" y="-151"/>
      <point x="193" y="-163"/>
      <point x="169" y="-163" type="curve" smooth="yes"/>
      <point x="131" y="-163"/>
      <point x="100" y="-138"/>
      <point x="100" y="-96" type="curve" smooth="yes"/>
      <point x="100" y="-58"/>
      <point x="122" y="-39"/>
      <point x="156" y="0" type="curve"/>
    </contour>
  </outline>
</glyph>
<glyph name="Germandbls" format="2">
  <advance width="714.375"/>
  <unicode hex="1E9E"/>
  <outline>
    <contour>
      <point x="226" y="0" type="line"/>
      <point x="226" y="702" type="line"/>
      <point x="23" y="702" type="line"/>
      <point x="23" y="683" type="line"/>
      <point x="78" y="681"/>
      <point x="124" y="692"/>
      <point x="124" y="637" type="curve" smooth="yes"/>
      <point x="124" y="70" type="line" smooth="yes"/>
      <point x="124" y="12"/>
      <point x="78" y="21"/>
      <point x="23" y="19" type="curve"/>
      <point x="23" y="0" type="line"/>
    </contour>
    <contour>
      <point x="321" y="355" type="line"/>
      <point x="358" y="372"/>
      <point x="405" y="378"/>
      <point x="427" y="378" type="curve" smooth="yes"/>
      <point x="528" y="378"/>
      <point x="593" y="317"/>
      <point x="593" y="190" type="curve" smooth="yes"/>
      <point x="593" y="75"/>
      <point x="534" y="13"/>
      <point x="465" y="12" type="curve" smooth="yes"/>
      <point x="396" y="11"/>
      <point x="330" y="71"/>
      <point x="335" y="208" type="curve"/>
      <point x="317" y="208" type="line"/>
      <point x="286" y="59" type="line"/>
      <point x="309" y="43"/>
      <point x="373" y="-11"/>
      <point x="472" y="-11" type="curve" smooth="yes"/>
      <point x="594" y="-11"/>
      <point x="704" y="57"/>
      <point x="704" y="200" type="curve" smooth="yes"/>
      <point x="704" y="361"/>
      <point x="575" y="406"/>
      <point x="489" y="406" type="curve" smooth="yes"/>
      <point x="451" y="406"/>
      <point x="419" y="401"/>
      <point x="408" y="393" type="curve"/>
      <point x="417" y="391" type="line"/>
      <point x="659" y="682" type="line"/>
      <point x="659" y="702" type="line"/>
      <point x="159" y="702" type="line"/>
      <point x="159" y="678" type="line"/>
      <point x="538" y="679" type="line"/>
      <point x="320" y="418" type="line"/>
      <point x="320" y="356" type="line"/>
    </contour>
  </outline>
</glyph>
<glyph name="endash" format="2">
  <advance width="605"/>
  <unicode hex="2013"/>
  <outline>
    <contour>
      <point x="0" y="271" type="line"/>
      <point x="0" y="229" type="line"/>
      <point x="605" y="229" type="line"/>
      <point x="605" y="271" type="line"/>
    </contour>
  </outline>
</glyph>
<glyph name="emdash" format="2">
  <advance width="957.125"/>
  <unicode hex="2014"/>
  <outline>
    <contour>
      <point x="0" y="271" type="line"/>
      <point x="0" y="229" type="line"/>
      <point x="957" y="229" type="line"/>
      <point x="957" y="271" type="line"/>
    </contour>
  </outline>
</glyph>
<glyph name="quotesinglbase" format="2">
  <advance width="197"/>
  <unicode hex="201A"/>
  <outline>
    <contour>
      <point x="51" y="-149" type="line"/>
      <point x="110" y="-106"/>
      <point x="134" y="-45"/>
      <point x="137" y="2" type="curve"/>
      <point x="127" y="-7"/>
      <point x="116" y="-11"/>
      <point x="102" y="-11" type="curve" smooth="yes"/>
      <point x="73" y="-11"/>
      <point x="46" y="12"/>
      <point x="46" y="48" type="curve" smooth="yes"/>
      <point x="46" y="79"/>
      <point x="70" y="106"/>
      <point x="107" y="106" type="curve" smooth="yes"/>
      <point x="145" y="106"/>
      <point x="172" y="75"/>
      <point x="172" y="21" type="curve" smooth="yes"/>
      <point x="172" y="-44"/>
      <point x="132" y="-118"/>
      <point x="62" y="-162" type="curve"/>
    </contour>
  </outline>
</glyph>
<glyph name="dagger" format="2">
  <advance width="537.5"/>
  <unicode hex="2020"/>
  <outline>
    <contour>
      <point x="137" y="0" type="line"/>
      <point x="396" y="0" type="line"/>
      <point x="396" y="19" type="line"/>
      <point x="341" y="21"/>
      <point x="299" y="15"/>
      <point x="300" y="63" type="curve" smooth="yes"/>
      <point x="314" y="700" type="line" smooth="yes"/>
      <point x="315" y="748"/>
      <point x="361" y="739"/>
      <point x="416" y="741" type="curve"/>
      <point x="416" y="760" type="line"/>
      <point x="117" y="760" type="line"/>
      <point x="117" y="741" type="line"/>
      <point x="172" y="739"/>
      <point x="217" y="748"/>
      <point x="219" y="700" type="curve" smooth="yes"/>
      <point x="233" y="63" type="line" smooth="yes"/>
      <point x="234" y="15"/>
      <point x="192" y="21"/>
      <point x="137" y="19" type="curve"/>
    </contour>
    <contour>
      <point x="69" y="675" type="line"/>
      <point x="69" y="421" type="line"/>
      <point x="88" y="421" type="line"/>
      <point x="90" y="472"/>
      <point x="84" y="515"/>
      <point x="132" y="519" type="curve" smooth="yes"/>
      <point x="266" y="532" type="line"/>
      <point x="404" y="519" type="line" smooth="yes"/>
      <point x="452" y="515"/>
      <point x="443" y="472"/>
      <point x="445" y="421" type="curve"/>
      <point x="464" y="421" type="line"/>
      <point x="464" y="675" type="line"/>
      <point x="445" y="675" type="line"/>
      <point x="443" y="623"/>
      <point x="452" y="581"/>
      <point x="404" y="576" type="curve" smooth="yes"/>
      <point x="266" y="564" type="line"/>
      <point x="132" y="576" type="line" smooth="yes"/>
      <point x="84" y="581"/>
      <point x="90" y="623"/>
      <point x="88" y="675" type="curve"/>
    </contour>
  </outline>
</glyph>
<glyph name="daggerdbl" format="2">
  <advance width="525"/>
  <unicode hex="2021"/>
  <outline>
    <contour>
      <point x="133" y="0" type="line"/>
      <point x="392" y="0" type="line"/>
      <point x="392" y="19" type="line"/>
      <point x="337" y="21"/>
      <point x="295" y="15"/>
      <point x="296" y="63" type="curve" smooth="yes"/>
      <point x="310" y="700" type="line" smooth="yes"/>
      <point x="311" y="748"/>
      <point x="357" y="739"/>
      <point x="412" y="741" type="curve"/>
      <point x="412" y="760" type="line"/>
      <point x="113" y="760" type="line"/>
      <point x="113" y="741" type="line"/>
      <point x="168" y="739"/>
      <point x="213" y="748"/>
      <point x="215" y="700" type="curve" smooth="yes"/>
      <point x="229" y="63" type="line" smooth="yes"/>
      <point x="230" y="15"/>
      <point x="188" y="21"/>
      <point x="133" y="19" type="curve"/>
    </contour>
    <contour>
      <point x="65" y="687" type="line"/>
      <point x="65" y="434" type="line"/>
      <point x="84" y="434" type="line"/>
      <point x="86" y="485"/>
      <point x="80" y="528"/>
      <point x="128" y="532" type="curve" smooth="yes"/>
      <point x="262" y="544" type="line"/>
      <point x="400" y="532" type="line" smooth="yes"/>
      <point x="448" y="528"/>
      <point x="439" y="485"/>
      <point x="441" y="434" type="curve"/>
      <point x="460" y="434" type="line"/>
      <point x="460" y="687" type="line"/>
      <point x="441" y="687" type="line"/>
      <point x="439" y="636"/>
      <point x="448" y="592"/>
      <point x="400" y="589" type="curve" smooth="yes"/>
      <point x="262" y="577" type="line"/>
      <point x="128" y="589" type="line" smooth="yes"/>
      <point x="80" y="592"/>
      <point x="86" y="636"/>
      <point x="84" y="687" type="curve"/>
    </contour>
    <contour>
      <point x="65" y="374" type="line"/>
      <point x="65" y="121" type="line"/>
      <point x="84" y="121" type="line"/>
      <point x="86" y="172"/>
      <point x="80" y="215"/>
      <point x="128" y="219" type="curve" smooth="yes"/>
      <point x="262" y="231" type="line"/>
      <point x="400" y="219" type="line" smooth="yes"/>
      <point x="448" y="215"/>
      <point x="439" y="172"/>
      <point x="441" y="121" type="curve"/>
      <point x="460" y="121" type="line"/>
      <point x="460" y="374" type="line"/>
      <point x="441" y="374" type="line"/>
      <point x="439" y="323"/>
      <point x="448" y="279"/>
      <point x="400" y="276" type="curve" smooth="yes"/>
      <point x="262" y="264" type="line"/>
      <point x="128" y="276" type="line" smooth="yes"/>
      <point x="80" y="279"/>
      <point x="86" y="323"/>
      <point x="84" y="374" type="curve"/>
    </contour>
  </outline>
</glyph>
<glyph name="bullet" format="2">
  <advance width="439.25"/>
  <unicode hex="2022"/>
  <outline>
    <contour>
      <point x="221" y="140" type="curve" smooth="yes"/>
      <point x="155" y="140"/>
      <point x="94" y="190"/>
      <point x="94" y="265" type="curve" smooth="yes"/>
      <point x="94" y="334"/>
      <point x="150" y="388"/>
      <point x="221" y="388" type="curve" smooth="yes"/>
      <point x="286" y="388"/>
      <point x="346" y="338"/>
      <point x="346" y="265" type="curve" smooth="yes"/>
      <point x="346" y="192"/>
      <point x="288" y="140"/>
    </contour>
  </outline>
</glyph>
<glyph name="perthousand" format="2">
  <advance width="1045"/>
  <unicode hex="2030"/>
  <outline>
    <component base="percent" identifier="51D3A810"/>
    <contour>
      <point x="1010" y="150" type="curve" smooth="yes"/>
      <point x="1010" y="74"/>
      <point x="952" y="-4"/>
      <point x="873" y="-4" type="curve" smooth="yes"/>
      <point x="795" y="-4"/>
      <point x="737" y="76"/>
      <point x="737" y="150" type="curve" smooth="yes"/>
      <point x="737" y="224"/>
      <point x="795" y="305"/>
      <point x="873" y="305" type="curve" smooth="yes"/>
      <point x="952" y="305"/>
      <point x="1010" y="222"/>
    </contour>
    <contour>
      <point x="873" y="271" type="curve" smooth="yes"/>
      <point x="827" y="271"/>
      <point x="798" y="220"/>
      <point x="798" y="150" type="curve" smooth="yes"/>
      <point x="798" y="87"/>
      <point x="827" y="29"/>
      <point x="873" y="29" type="curve" smooth="yes"/>
      <point x="922" y="29"/>
      <point x="950" y="78"/>
      <point x="950" y="150" type="curve" smooth="yes"/>
      <point x="950" y="213"/>
      <point x="922" y="271"/>
    </contour>
  </outline>
</glyph>
<glyph name="guilsinglleft" format="2">
  <advance width="368"/>
  <unicode hex="2039"/>
  <outline>
    <contour>
      <point x="120" y="254" type="curve"/>
      <point x="183" y="314"/>
      <point x="269" y="422"/>
      <point x="308" y="493" type="curve"/>
      <point x="291" y="506" type="line"/>
      <point x="205" y="417"/>
      <point x="115" y="335"/>
      <point x="0" y="260" type="curve"/>
      <point x="0" y="241" type="line"/>
      <point x="115" y="170"/>
      <point x="205" y="83"/>
      <point x="291" y="-6" type="curve"/>
      <point x="308" y="9" type="line"/>
      <point x="269" y="81"/>
      <point x="183" y="195"/>
    </contour>
  </outline>
</glyph>
<glyph name="fraction" format="2">
  <advance width="576.875"/>
  <unicode hex="2044"/>
  <outline>
    <contour>
      <point x="62" y="0" type="line"/>
      <point x="567" y="702" type="line"/>
      <point x="515" y="702" type="line"/>
      <point x="10" y="0" type="line"/>
    </contour>
  </outline>
</glyph>
<glyph name="zerosuperior" format="2">
  <advance width="317.125"/>
  <unicode hex="2070"/>
  <outline>
    <contour>
      <point x="304" y="401"/>
      <point x="234" y="319"/>
      <point x="150" y="319" type="curve" smooth="yes"/>
      <point x="66" y="319"/>
      <point x="-4" y="401"/>
      <point x="-4" y="518" type="curve" smooth="yes"/>
      <point x="-4" y="633"/>
      <point x="66" y="716"/>
      <point x="150" y="716" type="curve" smooth="yes"/>
      <point x="234" y="716"/>
      <point x="304" y="633"/>
      <point x="304" y="518" type="curve" smooth="yes"/>
    </contour>
    <contour>
      <point x="150" y="689" type="curve" smooth="yes"/>
      <point x="91" y="689"/>
      <point x="64" y="615"/>
      <point x="64" y="518" type="curve" smooth="yes"/>
      <point x="64" y="420"/>
      <point x="91" y="346"/>
      <point x="150" y="346" type="curve" smooth="yes"/>
      <point x="209" y="346"/>
      <point x="236" y="420"/>
      <point x="236" y="518" type="curve" smooth="yes"/>
      <point x="236" y="615"/>
      <point x="209" y="689"/>
    </contour>
  </outline>
</glyph>
<glyph name="foursuperior" format="2">
  <advance width="389"/>
  <unicode hex="2074"/>
  <outline>
    <contour>
      <point x="28" y="419" type="line"/>
      <point x="28" y="460" type="line"/>
      <point x="240" y="703" type="line"/>
      <point x="272" y="703" type="line"/>
      <point x="272" y="463" type="line"/>
      <point x="330" y="463" type="line"/>
      <point x="330" y="419" type="line"/>
      <point x="272" y="419" type="line"/>
      <point x="272" y="373" type="line" smooth="yes"/>
      <point x="272" y="347"/>
      <point x="289" y="347"/>
      <point x="330" y="345" type="curve"/>
      <point x="330" y="323" type="line"/>
      <point x="154" y="323" type="line"/>
      <point x="154" y="345" type="line"/>
      <point x="190" y="347"/>
      <point x="211" y="347"/>
      <point x="211" y="373" type="curve" smooth="yes"/>
      <point x="211" y="419" type="line"/>
    </contour>
    <contour>
      <point x="64" y="463" type="line"/>
      <point x="211" y="463" type="line"/>
      <point x="212" y="629" type="line"/>
    </contour>
  </outline>
</glyph>
<glyph name="euro" format="2">
  <advance width="763.125"/>
  <unicode hex="20AC"/>
  <outline>
    <contour>
      <point x="467" y="409" type="line"/>
      <point x="48" y="408" type="line"/>
      <point x="48" y="368" type="line"/>
      <point x="458" y="368" type="line"/>
    </contour>
    <contour>
      <point x="466" y="302" type="line"/>
      <point x="47" y="301" type="line"/>
      <point x="47" y="261" type="line"/>
      <point x="457" y="261" type="line"/>
    </contour>
    <contour>
      <point x="694" y="643" type="line"/>
      <point x="621" y="683"/>
      <point x="550" y="709"/>
      <point x="467" y="709" type="curve" smooth="yes"/>
      <point x="238" y="709"/>
      <point x="128" y="539"/>
      <point x="128" y="344" type="curve" smooth="yes"/>
      <point x="128" y="159"/>
      <point x="250" y="-8"/>
      <point x="447" y="-8" type="curve" smooth="yes"/>
      <point x="614" y="-8"/>
      <point x="697" y="132"/>
      <point x="720" y="245" type="curve"/>
      <point x="695" y="245" type="line"/>
      <point x="662" y="145"/>
      <point x="602" y="58"/>
      <point x="493" y="58" type="curve" smooth="yes"/>
      <point x="344" y="58"/>
      <point x="237" y="190"/>
      <point x="237" y="388" type="curve" smooth="yes"/>
      <point x="237" y="525"/>
      <point x="293" y="678"/>
      <point x="462" y="678" type="curve" smooth="yes"/>
      <point x="588" y="678"/>
      <point x="645" y="580"/>
      <point x="671" y="466" type="curve"/>
      <point x="692" y="466" type="line"/>
    </contour>
  </outline>
</glyph>
